<svg width="16" height="16" viewBox="0 0 16 16" fill="none" xmlns="http://www.w3.org/2000/svg">
<g clip-path="url(#clip0_1_16134)">
<path fill-rule="evenodd" clip-rule="evenodd" d="M10.3784 0H5.62162C5.0255 0 4.54053 0.484969 4.54053 1.08109V2.48633H1.08127C0.722992 2.48633 0.432617 2.7767 0.432617 3.13498C0.432617 3.49327 0.722992 3.78364 1.08127 3.78364H2.00065L2.98723 15.0269C3.04189 15.5724 3.5152 16.0001 4.06504 16.0001H11.9353C12.4849 16.0001 12.9584 15.5726 13.014 15.0191L13.9999 3.78364H14.9191C15.2774 3.78364 15.5678 3.49327 15.5678 3.13498C15.5678 2.7767 15.2774 2.48633 14.9191 2.48633H11.4594V1.08106C11.4595 0.484969 10.9745 0 10.3784 0ZM10.1621 2.48633V1.29728H5.83781V2.48633H10.1621ZM12.6976 3.78364H3.3029L4.26092 14.7028H11.7394L12.6976 3.78364Z" fill="#FF0000"/>
</g>
<defs>
<clipPath id="clip0_1_16134">
<rect width="16" height="16" fill="white"/>
</clipPath>
</defs>
</svg>
