<svg width="16" height="14" viewBox="0 0 16 14" fill="none" xmlns="http://www.w3.org/2000/svg">
<path fill-rule="evenodd" clip-rule="evenodd" d="M10.637 3.07816C10.637 4.22589 11.5672 5.15631 12.7146 5.15631C13.862 5.15631 14.7922 4.22589 14.7922 3.07816C14.7922 1.93042 13.862 1 12.7146 1C11.5672 1 10.637 1.93042 10.637 3.07816ZM15 7.62277V13H10.4928V8.82127L9.77263 9.22278H8.01905C8.39963 9.04731 8.66379 8.66236 8.66379 8.21569C8.66379 7.82358 8.46023 7.47904 8.15305 7.28201H9.4184L11.2496 6.02321C11.6478 5.64098 12.1884 5.40607 12.7839 5.40607C13.9679 5.40607 14.9351 6.33489 14.9969 7.50385L15 7.50684V7.62277ZM8.23326 8.25181C8.23326 8.76568 7.83369 9.1862 7.32838 9.2195L7.32849 9.22278H6.22737L5.50723 8.82127V13H1V7.62277V7.50684L1.00313 7.50385C1.06491 6.33489 2.03209 5.40607 3.21615 5.40607C3.81162 5.40607 4.35224 5.64098 4.75043 6.02321L6.5816 7.28201H7.26369C7.79917 7.28201 8.23326 7.71621 8.23326 8.25181ZM3.2854 5.15631C4.43285 5.15631 5.36304 4.22589 5.36304 3.07816C5.36304 1.93042 4.43285 1 3.2854 1C2.13795 1 1.20776 1.93042 1.20776 3.07816C1.20776 4.22589 2.13795 5.15631 3.2854 5.15631Z" fill="#8792A3"/>
<path d="M15 13V13.25H15.25V13H15ZM10.4928 13H10.2428V13.25H10.4928V13ZM10.4928 8.82127H10.7428V8.39565L10.371 8.60292L10.4928 8.82127ZM9.77263 9.22278V9.47278H9.83762L9.89438 9.44114L9.77263 9.22278ZM8.01905 9.22278L7.91438 8.99575L8.01905 9.47278V9.22278ZM8.15305 7.28201V7.03201H7.30024L8.01808 7.49244L8.15305 7.28201ZM9.4184 7.28201V7.53201H9.49604L9.56003 7.48803L9.4184 7.28201ZM11.2496 6.02321L11.3912 6.22923L11.408 6.21768L11.4227 6.20357L11.2496 6.02321ZM14.9969 7.50385L14.7472 7.51704L14.7524 7.61604L14.8241 7.68455L14.9969 7.50385ZM15 7.50684H15.25V7.39998L15.1728 7.32614L15 7.50684ZM7.32838 9.2195L7.31194 8.97004L7.07044 8.98595L7.07852 9.22783L7.32838 9.2195ZM7.32849 9.22278V9.47278H7.58697L7.57835 9.21445L7.32849 9.22278ZM6.22737 9.22278L6.10562 9.44114L6.16238 9.47278H6.22737V9.22278ZM5.50723 8.82127L5.62897 8.60292L5.25723 8.39565V8.82127H5.50723ZM5.50723 13V13.25H5.75723V13H5.50723ZM1 13H0.75V13.25H1V13ZM1 7.50684L0.827239 7.32614L0.75 7.39998V7.50684H1ZM1.00313 7.50385L1.1759 7.68455L1.24755 7.61604L1.25279 7.51704L1.00313 7.50385ZM4.75043 6.02321L4.5773 6.20357L4.59201 6.21768L4.60881 6.22923L4.75043 6.02321ZM6.5816 7.28201L6.43997 7.48803L6.50396 7.53201H6.5816V7.28201ZM12.7146 4.90631C11.7053 4.90631 10.887 4.08788 10.887 3.07816H10.387C10.387 4.3639 11.429 5.40631 12.7146 5.40631V4.90631ZM14.5422 3.07816C14.5422 4.08788 13.7239 4.90631 12.7146 4.90631V5.40631C14.0002 5.40631 15.0422 4.3639 15.0422 3.07816H14.5422ZM12.7146 1.25C13.7239 1.25 14.5422 2.06843 14.5422 3.07816H15.0422C15.0422 1.79241 14.0002 0.75 12.7146 0.75V1.25ZM10.887 3.07816C10.887 2.06843 11.7053 1.25 12.7146 1.25V0.75C11.429 0.75 10.387 1.79241 10.387 3.07816H10.887ZM15.25 13V7.62277H14.75V13H15.25ZM10.4928 13.25H15V12.75H10.4928V13.25ZM10.2428 8.82127V13H10.7428V8.82127H10.2428ZM9.89438 9.44114L10.6145 9.03962L10.371 8.60292L9.65089 9.00443L9.89438 9.44114ZM8.01905 9.47278H9.77263V8.97278H8.01905V9.47278ZM8.41379 8.21569C8.41379 8.56126 8.20964 8.85962 7.91438 8.99575L8.12373 9.44981C8.58963 9.23501 8.91379 8.76345 8.91379 8.21569H8.41379ZM8.01808 7.49244C8.2566 7.64543 8.41379 7.91226 8.41379 8.21569H8.91379C8.91379 7.73491 8.66387 7.31265 8.28803 7.07158L8.01808 7.49244ZM9.4184 7.03201H8.15305V7.53201H9.4184V7.03201ZM11.1079 5.8172L9.27678 7.07599L9.56003 7.48803L11.3912 6.22923L11.1079 5.8172ZM12.7839 5.15607C12.1213 5.15607 11.5193 5.41774 11.0764 5.84286L11.4227 6.20357C11.7762 5.86422 12.2555 5.65607 12.7839 5.65607V5.15607ZM15.2465 7.49065C15.1778 6.1897 14.1016 5.15607 12.7839 5.15607V5.65607C13.8342 5.65607 14.6924 6.48008 14.7472 7.51704L15.2465 7.49065ZM15.1728 7.32614L15.1696 7.32314L14.8241 7.68455L14.8272 7.68755L15.1728 7.32614ZM15.25 7.62277V7.50684H14.75V7.62277H15.25ZM7.34481 9.46896C7.98072 9.42706 8.48326 8.89819 8.48326 8.25181H7.98326C7.98326 8.63317 7.68667 8.94535 7.31194 8.97004L7.34481 9.46896ZM7.57835 9.21445L7.57824 9.21116L7.07852 9.22783L7.07863 9.23112L7.57835 9.21445ZM6.22737 9.47278H7.32849V8.97278H6.22737V9.47278ZM5.38549 9.03962L6.10562 9.44114L6.34911 9.00443L5.62897 8.60292L5.38549 9.03962ZM5.75723 13V8.82127H5.25723V13H5.75723ZM1 13.25H5.50723V12.75H1V13.25ZM0.75 7.62277V13H1.25V7.62277H0.75ZM0.75 7.50684V7.62277H1.25V7.50684H0.75ZM0.830374 7.32314L0.827239 7.32614L1.17276 7.68755L1.1759 7.68455L0.830374 7.32314ZM3.21615 5.15607C1.89838 5.15607 0.822238 6.1897 0.753483 7.49065L1.25279 7.51704C1.30759 6.48008 2.16579 5.65607 3.21615 5.65607V5.15607ZM4.92356 5.84286C4.48068 5.41774 3.87871 5.15607 3.21615 5.15607V5.65607C3.74453 5.65607 4.22379 5.86422 4.5773 6.20357L4.92356 5.84286ZM6.72322 7.07599L4.89205 5.8172L4.60881 6.22923L6.43997 7.48803L6.72322 7.07599ZM7.26369 7.03201H6.5816V7.53201H7.26369V7.03201ZM8.48326 8.25181C8.48326 7.57819 7.9373 7.03201 7.26369 7.03201V7.53201C7.66104 7.53201 7.98326 7.85422 7.98326 8.25181H8.48326ZM5.11304 3.07816C5.11304 4.08788 4.29472 4.90631 3.2854 4.90631V5.40631C4.57098 5.40631 5.61304 4.3639 5.61304 3.07816H5.11304ZM3.2854 1.25C4.29472 1.25 5.11304 2.06843 5.11304 3.07816H5.61304C5.61304 1.79241 4.57098 0.75 3.2854 0.75V1.25ZM1.45776 3.07816C1.45776 2.06843 2.27608 1.25 3.2854 1.25V0.75C1.99982 0.75 0.957764 1.79241 0.957764 3.07816H1.45776ZM3.2854 4.90631C2.27608 4.90631 1.45776 4.08788 1.45776 3.07816H0.957764C0.957764 4.3639 1.99982 5.40631 3.2854 5.40631V4.90631Z" fill="#F5F5F7"/>
</svg>
