<svg width="18" height="18" viewBox="0 0 18 18" fill="none" xmlns="http://www.w3.org/2000/svg">
<g clip-path="url(#clip0_1_6773)">
<path d="M3.64062 3.09375H4.29688V2H5.39062V3.09375H12.6094V2H13.7031V3.09375H14.3594C15.264 3.09375 16 3.82973 16 4.73438V14.3594C16 15.264 15.264 16 14.3594 16H3.64062C2.73598 16 2 15.264 2 14.3594V4.73438C2 3.82973 2.73598 3.09375 3.64062 3.09375ZM3.09375 14.3594C3.09375 14.6609 3.33908 14.9062 3.64062 14.9062H14.3594C14.6609 14.9062 14.9062 14.6609 14.9062 14.3594V7.14062H3.09375V14.3594ZM3.09375 6.04688H14.9062V4.73438C14.9062 4.43283 14.6609 4.1875 14.3594 4.1875H13.7031V5.28125H12.6094V4.1875H5.39062V5.28125H4.29688V4.1875H3.64062C3.33908 4.1875 3.09375 4.43283 3.09375 4.73438V6.04688Z" fill="#616F82"/>
</g>
<defs>
<clipPath id="clip0_1_6773">
<rect width="14" height="14" fill="white" transform="matrix(-1 0 0 1 16 2)"/>
</clipPath>
</defs>
</svg>
