<svg width="14" height="12" viewBox="0 0 14 12" fill="none" xmlns="http://www.w3.org/2000/svg">
<path fill-rule="evenodd" clip-rule="evenodd" d="M10.2657 6.55355C9.77616 7.22405 9.1081 7.75379 8.26185 8.14297C7.41552 8.53221 6.49487 8.72668 5.5 8.72629C5.05211 8.72629 4.59377 8.68086 4.12506 8.58994C3.47924 9.08986 2.75523 9.45363 1.95314 9.68079C1.76567 9.73198 1.54167 9.77741 1.28131 9.81717H1.25786C1.2005 9.81717 1.14717 9.79451 1.09772 9.74914C1.04825 9.70347 1.01831 9.64392 1.00789 9.57016C1.00258 9.55303 1.00001 9.53464 1.00001 9.51482C1.00001 9.495 1.00132 9.47641 1.00395 9.45948C1.00652 9.44232 1.01183 9.42554 1.01955 9.40838L1.03911 9.3659L1.06647 9.31901C1.0847 9.28776 1.09512 9.27355 1.09775 9.27662C1.10032 9.27928 1.11203 9.26516 1.13291 9.23391C1.15376 9.20266 1.16419 9.18979 1.16419 9.19549C1.19019 9.1615 1.25011 9.09048 1.34389 8.98252C1.43769 8.87476 1.50539 8.79076 1.54706 8.73113C1.58877 8.67167 1.6473 8.58934 1.72282 8.48412C1.7984 8.37893 1.86344 8.26965 1.91817 8.15604C1.97287 8.04226 2.02626 7.91743 2.0783 7.78096C1.43252 7.37196 0.924675 6.86905 0.554937 6.27263C0.18517 5.67609 0 5.03949 0 4.36346C0 3.57367 0.244823 2.8437 0.734388 2.17319C1.2239 1.50277 1.89187 0.972974 2.73821 0.583737C3.58462 0.194649 4.50517 0 5.49995 0C6.49481 0 7.41535 0.194529 8.26171 0.583737C9.10808 0.973004 9.77602 1.5028 10.2655 2.17319C10.7552 2.84358 10.9999 3.57367 10.9999 4.36343C10.9999 5.15316 10.7552 5.88319 10.2657 6.55355ZM14 6.54516C14 7.22701 13.8152 7.86454 13.4453 8.45821C13.0756 9.0521 12.5679 9.55348 11.922 9.96289C11.9741 10.0992 12.0275 10.2242 12.0822 10.3378C12.1369 10.4515 12.202 10.5609 12.2775 10.6659C12.353 10.7711 12.4116 10.8534 12.4533 10.9131C12.495 10.9727 12.5626 11.0565 12.6564 11.1644C12.7501 11.2724 12.81 11.3433 12.836 11.3775C12.8413 11.3832 12.8517 11.3961 12.8673 11.4158C12.883 11.4355 12.8946 11.4498 12.9023 11.4583C12.9102 11.4667 12.9206 11.4812 12.9336 11.5009C12.9467 11.5207 12.9555 11.5364 12.9609 11.5476L12.9804 11.5901L12.9959 11.6413C13.0063 11.6754 13.0076 11.6939 12.9999 11.6966C12.992 11.6993 12.9896 11.718 12.992 11.7522C12.9765 11.8316 12.9426 11.8939 12.8905 11.9394C12.8385 11.9848 12.7811 12.0047 12.7186 11.999C12.4582 11.9593 12.2342 11.914 12.0467 11.8627C11.2447 11.6353 10.5206 11.2719 9.87483 10.7717C9.40604 10.8626 8.94775 10.9082 8.49978 10.9082C7.08839 10.9082 5.85918 10.5331 4.81235 9.78329C5.11439 9.80598 5.34359 9.81723 5.49978 9.81723C6.33834 9.81723 7.14309 9.68929 7.91376 9.43372C8.68465 9.17797 9.37216 8.81163 9.97635 8.3344C10.6274 7.81161 11.1274 7.20943 11.4763 6.52779C11.8255 5.84593 11.9998 5.12438 11.9998 4.36313C11.9998 3.92557 11.9399 3.49379 11.8202 3.06772C12.492 3.47111 13.0233 3.97685 13.414 4.58464C13.8045 5.1925 14 5.84626 14 6.54516Z" fill="#8792A3"/>
</svg>
