<svg width="18" height="18" viewBox="0 0 18 18" fill="none" xmlns="http://www.w3.org/2000/svg">
<path fill-rule="evenodd" clip-rule="evenodd" d="M6.5534 0.873786C6.5534 0.391209 6.94455 0 7.42718 0H10.5728C11.0554 0 11.4466 0.391209 11.4466 0.873786V17.1262C11.4466 17.6088 11.0554 18 10.5728 18H7.42718C6.94455 18 6.5534 17.6088 6.5534 17.1262V0.873786ZM0 9.69903C0 9.21645 0.391156 8.82524 0.873786 8.82524H4.01942C4.50205 8.82524 4.8932 9.21645 4.8932 9.69903V17.1262C4.8932 17.6088 4.50205 18 4.01942 18H0.873786C0.391156 18 0 17.6088 0 17.1262V9.69903ZM13.9806 4.1068C13.498 4.1068 13.1068 4.49801 13.1068 4.98058V17.1262C13.1068 17.6088 13.498 18 13.9806 18H17.1262C17.6088 18 18 17.6088 18 17.1262V4.98058C18 4.49801 17.6088 4.1068 17.1262 4.1068H13.9806Z" fill="#616F82"/>
</svg>
