<svg width="22" height="18" viewBox="0 0 22 18" fill="none" xmlns="http://www.w3.org/2000/svg">
<path fill-rule="evenodd" clip-rule="evenodd" d="M19.7561 3.15254C20.3036 3.15254 20.7476 2.72 20.7476 2.18644C20.7476 1.65288 20.3036 1.22034 19.7561 1.22034C19.2085 1.22034 18.7645 1.65288 18.7645 2.18644C18.7645 2.72 19.2085 3.15254 19.7561 3.15254ZM19.7561 4.37288C20.9953 4.37288 22 3.39398 22 2.18644C22 0.978903 20.9953 0 19.7561 0C18.5168 0 17.5121 0.978903 17.5121 2.18644C17.5121 2.79452 17.7669 3.34462 18.1781 3.74094L14.4304 10.1472C14.239 10.0955 14.0373 10.0678 13.829 10.0678C12.5897 10.0678 11.585 11.0467 11.585 12.2542C11.585 13.4618 12.5897 14.4407 13.829 14.4407C15.0683 14.4407 16.0729 13.4618 16.0729 12.2542C16.0729 11.6912 15.8546 11.1779 15.4958 10.7904L19.279 4.32336C19.4327 4.3558 19.5923 4.37288 19.7561 4.37288ZM7.98429 8.74576C8.35673 8.74576 8.70797 8.65735 9.01713 8.5009L11.8363 11.2479C12.0327 10.8795 12.3335 10.5725 12.7005 10.364L9.92423 7.65893C10.1175 7.33589 10.2282 6.96021 10.2282 6.55932C10.2282 5.35178 9.22358 4.37288 7.98429 4.37288C6.74499 4.37288 5.74034 5.35178 5.74034 6.55932C5.74034 7.76686 6.74499 8.74576 7.98429 8.74576ZM6.31189 8.04083C6.59626 8.34142 6.96602 8.56412 7.38366 8.6724L3.81983 14.257C4.23227 14.6535 4.4879 15.2044 4.4879 15.8136C4.4879 17.0211 3.48325 18 2.24395 18C1.00465 18 0 17.0211 0 15.8136C0 14.606 1.00465 13.6271 2.24395 13.6271C2.4059 13.6271 2.56385 13.6438 2.71607 13.6756L6.31189 8.04083ZM14.8205 12.2542C14.8205 12.7878 14.3766 13.2203 13.829 13.2203C13.2814 13.2203 12.8375 12.7878 12.8375 12.2542C12.8375 11.7207 13.2814 11.2881 13.829 11.2881C14.3766 11.2881 14.8205 11.7207 14.8205 12.2542ZM7.98429 7.52542C8.53188 7.52542 8.9758 7.09288 8.9758 6.55932C8.9758 6.02576 8.53188 5.59322 7.98429 5.59322C7.43669 5.59322 6.99277 6.02576 6.99277 6.55932C6.99277 7.09288 7.43669 7.52542 7.98429 7.52542ZM3.23546 15.8136C3.23546 16.3471 2.79155 16.7797 2.24395 16.7797C1.69635 16.7797 1.25244 16.3471 1.25244 15.8136C1.25244 15.28 1.69635 14.8475 2.24395 14.8475C2.79155 14.8475 3.23546 15.28 3.23546 15.8136Z" fill="#616F82"/>
</svg>
