<svg width="16" height="16" viewBox="0 0 16 16" fill="none" xmlns="http://www.w3.org/2000/svg">
<path d="M12.6562 8.03153C11.6224 8.03153 10.7812 8.87266 10.7812 9.90653C10.7812 10.9404 11.6224 11.7815 12.6562 11.7815H15.3125C15.3231 11.7815 15.3334 11.7805 15.3439 11.7799C15.3543 11.7804 15.3645 11.7815 15.375 11.7815C15.7202 11.7815 16 11.5017 16 11.1565V6.25026C16 5.41819 15.591 4.68023 14.9639 4.22557L12.8376 0.737453C12.7509 0.595203 12.611 0.493453 12.449 0.454828C12.2869 0.416141 12.1162 0.443797 11.9746 0.531609L10.4065 1.50398L9.69942 0.307297C9.61439 0.163423 9.47533 0.0596104 9.31323 0.0189854C9.15117 -0.0216395 8.97952 0.00439171 8.83673 0.0911416L2.8159 3.75026H1.875C1.53559 3.75026 1.2585 3.47832 1.25019 3.14089C1.2585 2.80345 1.53559 2.53151 1.875 2.53151H3.03124C3.37643 2.53151 3.65624 2.2517 3.65624 1.90651C3.65624 1.56133 3.37643 1.28151 3.03124 1.28151H1.875C0.990686 1.28151 0.247468 1.89695 0.0509374 2.72198C0.01825 2.79779 0 2.88123 0 2.96901V3.12526V3.15651V13.5002C0 14.8787 1.1215 16.0002 2.5 16.0002H13.5C14.5778 16.0002 15.531 15.3136 15.8719 14.2918C15.9811 13.9643 15.8042 13.6103 15.4768 13.5011C15.1494 13.3919 14.7953 13.5688 14.6861 13.8962C14.5157 14.407 14.0391 14.7502 13.5 14.7502H2.5C1.81075 14.7502 1.25 14.1895 1.25 13.5002V4.89304C1.44559 4.96241 1.65593 5.00026 1.875 5.00026H13.5C14.1892 5.00026 14.75 5.56101 14.75 6.25026V8.03153H12.6562ZM14.75 10.5315H12.6562C12.3116 10.5315 12.0312 10.2512 12.0312 9.9065C12.0312 9.56187 12.3116 9.2815 12.6562 9.2815H14.75V10.5315ZM5.22274 3.75029L8.9452 1.48801L9.61073 2.61429C9.62351 2.64507 9.6382 2.67542 9.65633 2.70467C9.66992 2.72657 9.68498 2.74698 9.7007 2.76661L10.282 3.75029H5.22274ZM11.7339 3.75026L11.0426 2.58039L12.0981 1.92586L13.2102 3.75026H11.7339Z" fill="#616F82"/>
</svg>
