<svg width="10" height="10" viewBox="0 0 10 10" fill="none" xmlns="http://www.w3.org/2000/svg">
<path fill-rule="evenodd" clip-rule="evenodd" d="M5.7128 4.31452H9.30443C9.68858 4.31452 10 4.62593 10 5.01008C10 5.39423 9.68859 5.70565 9.30444 5.70565H5.7128V9.2768C5.7128 9.67621 5.38901 10 4.98959 10C4.59018 10 4.26639 9.67621 4.26639 9.27679V5.70565H0.695565C0.311415 5.70565 0 5.39423 0 5.01008C0 4.62593 0.311415 4.31452 0.695564 4.31452H4.26639V0.723205C4.26639 0.32379 4.59018 0 4.98959 0C5.38901 0 5.7128 0.32379 5.7128 0.723205V4.31452Z" fill="#4198C5"/>
</svg>
