<?xml version="1.0" encoding="utf-8"?>
<svg width="14px" height="12px" viewBox="0 0 14 12" version="1.1" xmlns:xlink="http://www.w3.org/1999/xlink" xmlns="http://www.w3.org/2000/svg">
  <desc>Created with Lunacy</desc>
  <path d="M0.57189 0L10.7412 0Q10.7976 0 10.8528 0.0109887Q10.9081 0.0219774 10.9601 0.0435325Q11.0121 0.0650877 11.059 0.0963809Q11.1058 0.127674 11.1456 0.167503Q11.1855 0.207331 11.2168 0.254165Q11.248 0.300999 11.2696 0.353037Q11.2912 0.405076 11.3021 0.46032Q11.3131 0.515564 11.3131 0.57189L11.3131 1.87176L10.606 2.56999L10.606 2.44543Q10.606 2.3891 10.595 2.33385Q10.584 2.27861 10.5625 2.22657Q10.5409 2.17453 10.5096 2.1277Q10.4783 2.08087 10.4385 2.04104Q10.3987 2.00121 10.3519 1.96992Q10.305 1.93862 10.253 1.91707Q10.2009 1.89551 10.1457 1.88452Q10.0905 1.87354 10.0341 1.87354L1.27892 1.87354Q1.22259 1.87354 1.16735 1.88452Q1.11211 1.89551 1.06007 1.91707Q1.00803 1.93862 0.961196 1.96992Q0.914363 2.00121 0.874534 2.04104Q0.834705 2.08087 0.803412 2.1277Q0.772119 2.17453 0.750564 2.22657Q0.729009 2.27861 0.71802 2.33385Q0.707031 2.3891 0.707031 2.44543L0.707031 10.0928Q0.707031 10.1491 0.71802 10.2044Q0.729008 10.2596 0.750564 10.3117Q0.772119 10.3637 0.803412 10.4105Q0.834705 10.4574 0.874534 10.4972Q0.914363 10.537 0.961196 10.5683Q1.00803 10.5996 1.06007 10.6212Q1.11211 10.6427 1.16735 10.6537Q1.22259 10.6647 1.27892 10.6647L10.0341 10.6647Q10.0905 10.6647 10.1457 10.6537Q10.2009 10.6427 10.253 10.6212Q10.305 10.5996 10.3519 10.5683Q10.3987 10.537 10.4385 10.4972Q10.4783 10.4574 10.5096 10.4105Q10.5409 10.3637 10.5625 10.3117Q10.584 10.2596 10.595 10.2044Q10.606 10.1491 10.606 10.0928L10.606 6.10178L11.3131 5.37691L11.3131 10.8134Q11.3131 10.8697 11.3021 10.925Q11.2912 10.9802 11.2696 11.0323Q11.248 11.0843 11.2168 11.1311Q11.1855 11.178 11.1456 11.2178Q11.1058 11.2576 11.059 11.2889Q11.0121 11.3202 10.9601 11.3418Q10.9081 11.3633 10.8528 11.3743Q10.7976 11.3853 10.7412 11.3853L0.57189 11.3853Q0.515564 11.3853 0.46032 11.3743Q0.405076 11.3633 0.353037 11.3418Q0.300999 11.3202 0.254165 11.2889Q0.207331 11.2576 0.167503 11.2178Q0.127674 11.178 0.0963809 11.1311Q0.0650877 11.0843 0.0435325 11.0323Q0.0219774 10.9802 0.0109887 10.925Q0 10.8697 0 10.8134L0 0.57189Q0 0.515564 0.0109887 0.46032Q0.0219774 0.405076 0.0435325 0.353037Q0.0650877 0.300999 0.0963809 0.254165Q0.127674 0.207331 0.167503 0.167503Q0.207331 0.127674 0.254165 0.0963809Q0.300999 0.0650877 0.353037 0.0435325Q0.405076 0.0219774 0.46032 0.0109887Q0.515564 0 0.57189 0ZM0.883799 0.936954C0.981425 0.936954 1.06057 0.8563 1.06057 0.756807C1.06057 0.657315 0.981425 0.57666 0.883799 0.57666C0.786173 0.57666 0.707031 0.657315 0.707031 0.756807C0.707031 0.8563 0.786173 0.936954 0.883799 0.936954ZM1.90908 0.756807C1.90908 0.8563 1.82994 0.936954 1.73231 0.936954C1.63468 0.936954 1.55554 0.8563 1.55554 0.756807C1.55554 0.657315 1.63468 0.57666 1.73231 0.57666C1.82994 0.57666 1.90908 0.657315 1.90908 0.756807ZM2.58082 0.936954C2.67845 0.936954 2.75759 0.8563 2.75759 0.756807C2.75759 0.657315 2.67845 0.57666 2.58082 0.57666C2.48319 0.57666 2.40405 0.657315 2.40405 0.756807C2.40405 0.8563 2.48319 0.936954 2.58082 0.936954ZM10.6061 0.57666L6.64648 0.57666L6.64648 1.00901L10.6061 1.00901L10.6061 0.57666ZM12.4057 1.82706L13.0234 2.4557C13.1511 2.58526 13.1511 2.79611 13.0234 2.9261L12.5293 3.42806L11.4489 2.32902L11.943 1.82692C12.0066 1.76192 12.0904 1.72949 12.1743 1.72949C12.258 1.72949 12.3419 1.76206 12.4057 1.82706ZM8.24158 5.59179L9.32198 6.69097L12.298 3.66364L11.2176 2.56445L8.24158 5.59179ZM2.12569 2.88232L5.79361 2.88232Q5.83583 2.88232 5.87723 2.89056Q5.91864 2.8988 5.95765 2.91495Q5.99666 2.93111 6.03176 2.95457Q6.06686 2.97802 6.09672 3.00788Q6.12657 3.03773 6.15003 3.07284Q6.17349 3.10794 6.18964 3.14695Q6.2058 3.18595 6.21404 3.22736Q6.22227 3.26877 6.22227 3.31099L6.22227 7.06542Q6.22227 7.10764 6.21404 7.14905Q6.2058 7.19046 6.18964 7.22947Q6.17349 7.26847 6.15003 7.30358Q6.12657 7.33868 6.09672 7.36854Q6.06687 7.39839 6.03176 7.42185Q5.99666 7.4453 5.95765 7.46146Q5.91864 7.47761 5.87723 7.48585Q5.83583 7.49409 5.79361 7.49409L2.12569 7.49409Q2.08347 7.49409 2.04206 7.48585Q2.00065 7.47761 1.96164 7.46146Q1.92264 7.4453 1.88753 7.42185Q1.85243 7.39839 1.82258 7.36854Q1.79272 7.33868 1.76926 7.30358Q1.74581 7.26847 1.72965 7.22947Q1.71349 7.19046 1.70526 7.14905Q1.69702 7.10764 1.69702 7.06542L1.69702 3.31099Q1.69702 3.26877 1.70526 3.22736Q1.71349 3.18595 1.72965 3.14695Q1.74581 3.10794 1.76926 3.07284Q1.79272 3.03773 1.82258 3.00788Q1.85243 2.97802 1.88753 2.95457Q1.92264 2.93111 1.96164 2.91495Q2.00065 2.8988 2.04206 2.89056Q2.08347 2.88232 2.12569 2.88232ZM7.77783 7.16018L8.00848 5.82666L9.08888 6.9257L7.77783 7.16018ZM7.07076 8.64697L1.69702 8.64697L1.69702 9.07933L7.07076 9.07933L7.07076 8.64697ZM7.495 8.64697L9.33338 8.64697L9.33338 9.07933L7.495 9.07933L7.495 8.64697ZM3.53541 9.51172L1.69702 9.51172L1.69702 9.94407L3.53541 9.94407L3.53541 9.51172ZM3.95959 9.51172L9.33333 9.51172L9.33333 9.94407L3.95959 9.94407L3.95959 9.51172Z" id="Combined-Shape" fill="#8792A3" fill-rule="evenodd" stroke="none" />
</svg>