<?xml version="1.0" encoding="utf-8"?>
<svg width="14px" height="10px" viewBox="0 0 14 10" version="1.1" xmlns:xlink="http://www.w3.org/1999/xlink" xmlns="http://www.w3.org/2000/svg">
  <desc>Created with Lunacy</desc>
  <path d="M10.2657 5.46129C9.77616 6.02005 9.1081 6.46149 8.26185 6.78581C7.41552 7.11017 6.49487 7.27223 5.5 7.27191C5.05211 7.27191 4.59377 7.23405 4.12506 7.15828C3.47924 7.57488 2.75523 7.87803 1.95314 8.06732C1.76567 8.10998 1.54167 8.14784 1.28131 8.18097L1.25786 8.18097C1.2005 8.18097 1.14717 8.1621 1.09772 8.12429C1.04825 8.08623 1.01831 8.0366 1.00789 7.97514C1.00258 7.96086 1.00001 7.94554 1.00001 7.92902C1.00001 7.9125 1.00132 7.89701 1.00395 7.8829C1.00652 7.8686 1.01183 7.85462 1.01955 7.84032L1.03911 7.80492C1.03911 7.80492 1.04825 7.79191 1.06647 7.76584C1.0847 7.7398 1.09512 7.72796 1.09775 7.73052C1.10032 7.73274 1.11203 7.72097 1.13291 7.69493C1.15376 7.66888 1.16419 7.65816 1.16419 7.66291C1.19019 7.63458 1.25011 7.5754 1.34389 7.48543C1.43769 7.39563 1.50539 7.32564 1.54706 7.27594C1.58877 7.22639 1.6473 7.15778 1.72282 7.0701C1.7984 6.98244 1.86344 6.89138 1.91817 6.7967C1.97287 6.70188 2.02626 6.59786 2.0783 6.48413C1.43252 6.1433 0.924675 5.72421 0.554937 5.22719C0.18517 4.73008 0 4.19957 0 3.63622C0 2.97806 0.244823 2.36975 0.734388 1.81099C1.2239 1.25231 1.89187 0.810812 2.73821 0.486447C3.58462 0.162207 4.50517 0 5.49995 0C6.49481 0 7.41535 0.162108 8.26171 0.486447C9.10808 0.810837 9.77602 1.25234 10.2655 1.81099C10.7552 2.36965 10.9999 2.97806 10.9999 3.63619C10.9999 4.2943 10.7552 4.90265 10.2657 5.46129ZM14 5.4545C14 6.02271 13.8152 6.55399 13.4453 7.04872C13.0756 7.54362 12.5679 7.96144 11.9221 8.30262C11.9741 8.41617 12.0275 8.52037 12.0822 8.61504C12.1369 8.70976 12.2021 8.80093 12.2775 8.88844C12.353 8.97612 12.4116 9.04473 12.4533 9.09445C12.495 9.14415 12.5626 9.21397 12.6564 9.30384C12.7501 9.39384 12.81 9.45299 12.836 9.48142C12.8413 9.48618 12.8518 9.49692 12.8673 9.51334C12.883 9.52978 12.8947 9.5417 12.9023 9.54876C12.9102 9.55582 12.9206 9.56784 12.9336 9.58426C12.9467 9.60077 12.9555 9.61388 12.9609 9.62323L12.9804 9.65866C12.9804 9.65866 12.9857 9.67286 12.996 9.70132C13.0063 9.72967 13.0076 9.74514 12.9999 9.74738C12.9921 9.74965 12.9896 9.76524 12.9921 9.79367C12.9765 9.85989 12.9426 9.91183 12.8905 9.94969C12.8385 9.98757 12.7811 10.0042 12.7186 9.99941C12.4582 9.9663 12.2342 9.92852 12.0467 9.88579C11.2447 9.69629 10.5206 9.39342 9.87486 8.97664C9.40606 9.05239 8.94778 9.09035 8.49981 9.09035C7.08841 9.09035 5.85921 8.77777 4.81238 8.15295C5.11442 8.17185 5.34362 8.18123 5.49981 8.18123C6.33837 8.18123 7.14311 8.07462 7.91378 7.86164C8.68468 7.64852 9.37219 7.34323 9.97638 6.94554C10.6274 6.50988 11.1274 6.00806 11.4764 5.44003C11.8255 4.87182 11.9998 4.27052 11.9998 3.63615C11.9998 3.27151 11.9399 2.9117 11.8202 2.55664C12.492 2.8928 13.0233 3.31425 13.414 3.82074C13.8045 4.32729 14 4.87209 14 5.4545Z" id="Combined-Shape" fill="#8792A3" fill-rule="evenodd" stroke="none" />
</svg>