<svg width="16" height="15" viewBox="0 0 16 15" fill="none" xmlns="http://www.w3.org/2000/svg">
<path fill-rule="evenodd" clip-rule="evenodd" d="M10.7355 0H0.166992V15H10.7355V9.54545H6.6707C5.47341 9.54545 4.50279 8.56862 4.50279 7.36364C4.50279 6.15865 5.47341 5.18182 6.6707 5.18182H10.7355V0ZM6.39971 7.36364C6.39971 6.91176 6.76372 6.54545 7.21267 6.54545H12.4766V4.66851C12.4766 4.43252 12.7542 4.30791 12.9286 4.46559L15.9104 7.16072C16.0303 7.26909 16.0303 7.45819 15.9104 7.56655L12.9286 10.2617C12.7542 10.4194 12.4766 10.2948 12.4766 10.0588V8.18182H7.21267C6.76372 8.18182 6.39971 7.81551 6.39971 7.36364Z" fill="#4198C5"/>
</svg>
