<?xml version="1.0" encoding="utf-8"?>
<svg width="17px" height="11px" viewBox="0 0 17 11" version="1.1" xmlns:xlink="http://www.w3.org/1999/xlink" xmlns="http://www.w3.org/2000/svg">
  <desc>Created with Lunacy</desc>
  <path d="M8.07517 0.0213118L15.7337 2.6195Q15.7947 2.64018 15.846 2.679Q15.8973 2.71783 15.9338 2.77084Q15.9703 2.82386 15.9882 2.88567Q16.0061 2.94748 16.0036 3.01178Q16.0011 3.07609 15.9785 3.13634Q15.9559 3.19659 15.9155 3.24664Q15.875 3.29669 15.8209 3.33145Q15.7667 3.36621 15.7044 3.38214L8.36495 5.25657Q8.25002 5.28592 8.13777 5.24757C6.74585 4.77471 5.43837 4.32482 4.23592 3.91343L8.46495 2.23941Q8.52547 2.21545 8.57221 2.17016Q8.61895 2.12487 8.6448 2.06514Q8.67066 2.00541 8.67169 1.94034Q8.67271 1.87526 8.64876 1.81474L8.64802 1.81288Q8.63616 1.78292 8.61868 1.75584Q8.6012 1.72877 8.57877 1.70562Q8.55635 1.68248 8.52984 1.66415Q8.50333 1.64583 8.47375 1.63303Q8.44418 1.62022 8.41267 1.61344Q8.38117 1.60665 8.34894 1.60615Q8.31672 1.60564 8.28502 1.61142Q8.25331 1.61721 8.22335 1.62907L3.27827 3.58654C3.11257 3.53014 2.94919 3.47465 2.7882 3.42009C2.7882 3.42009 2.51511 3.53162 2.25429 4.29943C2.18937 4.49051 2.11286 4.86416 2.13402 5.2563C2.13462 5.26743 2.14517 5.32796 2.1623 5.42631C2.16686 5.45246 2.17188 5.48129 2.17731 5.51257C2.37411 5.65656 2.49891 5.8709 2.49891 6.11025C2.49891 6.27309 2.44114 6.42436 2.34223 6.54977C2.45294 7.33372 2.54889 8.27574 2.4563 8.77575C2.28225 9.71562 1.61551 9.96689 1.40847 9.99942C1.20142 10.0319 0.0680196 9.45729 0.00326753 9.34889C-0.0178312 9.31357 0.0668572 9.24053 0.200628 9.12516C0.477389 8.88646 0.964229 8.46659 1.15885 7.82475C1.24625 7.53653 1.29999 7.20062 1.33207 6.86508C0.949538 6.77112 0.669556 6.46875 0.669556 6.11025C0.669556 5.74158 0.965636 5.43227 1.36484 5.34792C1.36109 5.25261 1.35725 5.18084 1.35502 5.13952C1.34526 4.95865 1.43774 4.13633 1.49685 3.99926C1.78059 3.34125 2.02044 3.15139 2.02044 3.15139L0.455124 2.63383Q0.393763 2.61354 0.341973 2.57488Q0.290183 2.53622 0.253284 2.48316Q0.216385 2.4301 0.198168 2.36809Q0.179951 2.30609 0.182288 2.2415Q0.184625 2.17692 0.207275 2.11639Q0.229925 2.05586 0.270562 2.0056Q0.311198 1.95535 0.365647 1.92053Q0.420095 1.88572 0.482762 1.86992L7.84996 0.0122914Q7.9639 -0.0164375 8.07517 0.0213118ZM3.0969 4.58105C3.0969 4.58105 8.21305 6.06974 8.37077 6.06974C8.52848 6.06974 13.6283 4.58105 13.6283 4.58105L13.6283 6.7779C13.6283 7.07346 11.7576 8.38361 8.37077 8.38361C4.98391 8.38361 3.25479 7.18065 3.25479 7.18065C3.25479 7.18065 3.6513 6.78546 3.6513 6.26078C3.6513 5.73611 3.01514 5.4061 3.01514 5.4061L3.0969 4.58105Z" id="Mask" fill="#8792A3" fill-rule="evenodd" stroke="none" />
</svg>