<?xml version="1.0" encoding="utf-8"?>
<svg width="14px" height="15px" viewBox="0 0 14 15" version="1.1" xmlns:xlink="http://www.w3.org/1999/xlink" xmlns="http://www.w3.org/2000/svg">
  <desc>Created with Lunacy</desc>
  <path d="M10.4985 3.63158C10.4985 5.63724 8.92029 7.26316 6.97349 7.26316C5.02668 7.26316 3.44849 5.63724 3.44849 3.63158C3.44849 1.62591 5.02668 0 6.97349 0C8.92029 0 10.4985 1.62591 10.4985 3.63158ZM14 11.463C13.1015 9.55796 11.492 8.07476 9.52695 7.37988C8.80446 7.90325 7.9238 8.21052 6.97349 8.21052C6.03084 8.21052 5.15674 7.90819 4.43762 7.39238C2.4887 8.09269 0.893117 9.56946 0 11.463C1.26066 13.5567 3.92148 15 7.00004 15C10.0785 15 12.7393 13.5568 14 11.463Z" id="Mask" fill="#8792A3" fill-rule="evenodd" stroke="none" />
</svg>