<svg width="20" height="20" viewBox="0 0 20 20" fill="none" xmlns="http://www.w3.org/2000/svg">
<path d="M10 0C4.48582 0 0 4.48582 0 10C0 15.5142 4.48582 20 10 20C15.5142 20 20 15.5142 20 10C20 4.48582 15.5142 0 10 0ZM10 19.1667C8.01332 19.1667 6.1775 18.5242 4.67418 17.4459L6.8275 16.7275C8.13082 16.1842 8.565 14.2275 8.565 13.75C8.565 13.625 8.50918 13.5075 8.41332 13.4284C7.9475 13.0442 7.45332 12.3775 7.45332 11.8984C7.45332 11.3375 7.22414 11.0192 7.00082 10.8634C6.89664 10.575 6.72832 10.05 6.71414 9.71918C6.92164 9.69586 7.08332 9.51918 7.08332 9.305V7.0825C7.08332 5.89332 8.21914 4.16582 10 4.16582C11.6733 4.16582 12.1142 4.88664 12.17 5.17164C12.155 5.22496 12.1492 5.27746 12.1542 5.32414C12.1784 5.54996 12.3475 5.65746 12.4384 5.71496C12.5817 5.80578 12.9167 6.01914 12.9167 7.08328V9.30578C12.9167 9.5366 13.0284 9.6966 13.2584 9.6966C13.2659 9.7041 13.2759 9.72242 13.285 9.74078C13.265 10.0733 13.1034 10.5766 12.9992 10.8633C12.7767 11.0191 12.5467 11.3375 12.5467 11.8983C12.5467 12.3775 12.0525 13.0441 11.5867 13.4283C11.49 13.5075 11.435 13.6258 11.435 13.75C11.435 14.2266 11.87 16.1841 13.2017 16.7375L15.3259 17.4458C13.8233 18.5242 11.9867 19.1667 10 19.1667ZM15.9475 16.9617C15.9092 16.8384 15.8208 16.7325 15.6892 16.6884L13.4959 15.9584C12.7292 15.6392 12.3734 14.4125 12.29 13.9217C12.8575 13.3942 13.3817 12.6084 13.3817 11.8984C13.3817 11.6575 13.45 11.5642 13.4367 11.5617C13.5667 11.5292 13.6725 11.4367 13.7225 11.3125C13.7634 11.21 14.1225 10.2942 14.1225 9.67668C14.1225 9.64336 14.1184 9.60918 14.11 9.57586C14.0575 9.36668 13.935 9.15586 13.7517 9.02418V7.08418C13.7517 5.88418 13.3859 5.3825 13 5.09168C12.9134 4.49586 12.275 3.33418 10.0017 3.33418C7.6784 3.33418 6.25172 5.51836 6.25172 7.08418V9.02418C6.0684 9.15586 5.9459 9.36668 5.8934 9.57586C5.88508 9.60836 5.8809 9.64254 5.8809 9.67668C5.8809 10.2942 6.24008 11.21 6.2809 11.3125C6.3309 11.4367 6.39672 11.5158 6.52672 11.5483C6.5534 11.5641 6.62172 11.6566 6.62172 11.8983C6.62172 12.6083 7.1459 13.3941 7.7134 13.9216C7.63008 14.4125 7.27758 15.6375 6.5359 15.9475L4.3134 16.6883C4.1809 16.7325 4.09258 16.8391 4.05422 16.9633C2.08668 15.28 0.83332 12.7858 0.83332 10C0.83332 4.94582 4.94582 0.83332 10 0.83332C15.0542 0.83332 19.1667 4.94582 19.1667 10C19.1667 12.7842 17.9142 15.2783 15.9475 16.9617Z" fill="#616F82"/>
</svg>
