<?xml version="1.0" encoding="utf-8"?>
<svg width="12px" height="16px" viewBox="0 0 12 16" version="1.1" xmlns:xlink="http://www.w3.org/1999/xlink" xmlns="http://www.w3.org/2000/svg">
  <desc>Created with Lunacy</desc>
  <path d="M9.75 5.33333L10.5 5.33333C11.325 5.33333 12 6.01905 12 6.85714L12 14.4762C12 15.3143 11.325 16 10.5 16L1.5 16C0.675 16 0 15.3143 0 14.4762L0 6.85714C0 6.01905 0.675 5.33333 1.5 5.33333L2.25 5.33333L2.25 3.80952C2.25 1.67619 3.9 0 6 0C8.1 0 9.75 1.67619 9.75 3.80952L9.75 5.33333ZM3.67505 3.80966L3.67505 5.33347L8.32505 5.33347L8.32505 3.80966C8.32505 2.51442 7.27505 1.44775 6.00005 1.44775C4.72505 1.44775 3.67505 2.51442 3.67505 3.80966ZM6 12.1907C5.175 12.1907 4.5 11.505 4.5 10.6669C4.5 9.82878 5.175 9.14307 6 9.14307C6.825 9.14307 7.5 9.82878 7.5 10.6669C7.5 11.505 6.825 12.1907 6 12.1907Z" id="Mask" fill="#8792A3" fill-rule="evenodd" stroke="none" />
</svg>