<?xml version="1.0" encoding="utf-8"?>
<svg width="16px" height="12px" viewBox="0 0 16 12" version="1.1" xmlns:xlink="http://www.w3.org/1999/xlink" xmlns="http://www.w3.org/2000/svg">
  <desc>Created with Lunacy</desc>
  <path d="M11.6374 4.81863e-06L4.36264 4.81863e-06Q4.25554 4.81863e-06 4.14857 0.0052598Q4.04161 0.0105148 3.93503 0.0210121Q3.82844 0.0315094 3.72251 0.0472237Q3.61657 0.062938 3.51153 0.0838316Q3.40649 0.104725 3.3026 0.130747Q3.19872 0.15677 3.09623 0.187858Q2.99375 0.218947 2.89291 0.255027Q2.79208 0.291106 2.69313 0.33209Q2.59419 0.373074 2.49737 0.418864Q2.40056 0.464654 2.30611 0.515139Q2.21166 0.565624 2.1198 0.620683Q2.02794 0.675741 1.93889 0.735241Q1.84984 0.794741 1.76382 0.858538Q1.6778 0.922335 1.59501 0.990277Q1.51223 1.05822 1.43287 1.13014Q1.35352 1.20206 1.27779 1.27779Q1.20206 1.35352 1.13014 1.43287Q1.05822 1.51223 0.990278 1.59501Q0.922336 1.6778 0.858539 1.76382Q0.794742 1.84984 0.735242 1.93889Q0.675742 2.02794 0.620683 2.1198Q0.565625 2.21166 0.51514 2.30611Q0.464655 2.40056 0.418865 2.49737Q0.373075 2.59419 0.332091 2.69313Q0.291107 2.79207 0.255028 2.89291Q0.218948 2.99375 0.187859 3.09623Q0.156771 3.19872 0.130748 3.3026Q0.104726 3.40649 0.0838325 3.51153Q0.062939 3.61657 0.0472247 3.72251Q0.0315104 3.82844 0.0210131 3.93502Q0.0105158 4.04161 0.00526079 4.14857Q5.80701e-06 4.25554 5.80701e-06 4.36264L5.80701e-06 7.63737Q5.80701e-06 7.74447 0.00526079 7.85143Q0.0105158 7.9584 0.0210131 8.06498Q0.0315104 8.17156 0.0472247 8.2775Q0.062939 8.38344 0.0838325 8.48848Q0.104726 8.59351 0.130748 8.6974Q0.156771 8.80129 0.187859 8.90377Q0.218948 9.00626 0.255028 9.10709Q0.291107 9.20793 0.332091 9.30688Q0.373075 9.40582 0.418865 9.50263Q0.464655 9.59945 0.51514 9.6939Q0.565625 9.78835 0.620683 9.88021Q0.675742 9.97207 0.735242 10.0611Q0.794742 10.1502 0.858539 10.2362Q0.922336 10.3222 0.990278 10.405Q1.05822 10.4878 1.13014 10.5671Q1.20206 10.6465 1.27779 10.7222Q1.35352 10.7979 1.43287 10.8699Q1.51223 10.9418 1.59501 11.0097Q1.6778 11.0777 1.76382 11.1415Q1.84984 11.2053 1.93889 11.2648Q2.02794 11.3243 2.1198 11.3793Q2.21166 11.4344 2.30611 11.4849Q2.40056 11.5353 2.49737 11.5811Q2.59419 11.6269 2.69313 11.6679Q2.79208 11.7089 2.89291 11.745Q2.99375 11.7811 3.09623 11.8121Q3.19872 11.8432 3.3026 11.8693Q3.40649 11.8953 3.51153 11.9162Q3.61657 11.9371 3.72251 11.9528Q3.82844 11.9685 3.93503 11.979Q4.04161 11.9895 4.14857 11.9947Q4.25554 12 4.36264 12L11.6374 12Q11.7445 12 11.8514 11.9947Q11.9584 11.9895 12.065 11.979Q12.1716 11.9685 12.2775 11.9528Q12.3834 11.9371 12.4885 11.9162Q12.5935 11.8953 12.6974 11.8693Q12.8013 11.8432 12.9038 11.8121Q13.0062 11.7811 13.1071 11.745Q13.2079 11.7089 13.3069 11.6679Q13.4058 11.6269 13.5026 11.5811Q13.5994 11.5353 13.6939 11.4849Q13.7883 11.4344 13.8802 11.3793Q13.9721 11.3243 14.0611 11.2648Q14.1502 11.2053 14.2362 11.1415Q14.3222 11.0777 14.405 11.0097Q14.4878 10.9418 14.5671 10.8699Q14.6465 10.7979 14.7222 10.7222Q14.7979 10.6465 14.8699 10.5671Q14.9418 10.4878 15.0097 10.405Q15.0777 10.3222 15.1415 10.2362Q15.2053 10.1502 15.2648 10.0611Q15.3243 9.97207 15.3793 9.88021Q15.4344 9.78835 15.4849 9.6939Q15.5353 9.59945 15.5811 9.50263Q15.6269 9.40582 15.6679 9.30688Q15.7089 9.20793 15.745 9.10709Q15.781 9.00626 15.8121 8.90377Q15.8432 8.80129 15.8692 8.6974Q15.8953 8.59351 15.9162 8.48848Q15.9371 8.38344 15.9528 8.2775Q15.9685 8.17156 15.979 8.06498Q15.9895 7.9584 15.9947 7.85143Q16 7.74447 16 7.63737L16 4.36264Q16 4.25554 15.9947 4.14857Q15.9895 4.04161 15.979 3.93502Q15.9685 3.82844 15.9528 3.72251Q15.9371 3.61657 15.9162 3.51153Q15.8953 3.40649 15.8692 3.3026Q15.8432 3.19872 15.8121 3.09623Q15.7811 2.99375 15.745 2.89291Q15.7089 2.79207 15.6679 2.69313Q15.6269 2.59419 15.5811 2.49737Q15.5353 2.40056 15.4849 2.30611Q15.4344 2.21166 15.3793 2.1198Q15.3243 2.02794 15.2648 1.93889Q15.2053 1.84984 15.1415 1.76382Q15.0777 1.6778 15.0097 1.59501Q14.9418 1.51223 14.8699 1.43287Q14.7979 1.35352 14.7222 1.27779Q14.6465 1.20206 14.5671 1.13014Q14.4878 1.05822 14.405 0.990277Q14.3222 0.922335 14.2362 0.858538Q14.1502 0.794741 14.0611 0.735241Q13.9721 0.675741 13.8802 0.620682Q13.7883 0.565624 13.6939 0.515139Q13.5994 0.464654 13.5026 0.418864Q13.4058 0.373074 13.3069 0.33209Q13.2079 0.291106 13.1071 0.255027Q13.0062 0.218947 12.9038 0.187858Q12.8013 0.15677 12.6974 0.130747Q12.5935 0.104725 12.4885 0.0838316Q12.3834 0.062938 12.2775 0.0472237Q12.1716 0.0315094 12.065 0.0210121Q11.9584 0.0105148 11.8514 0.0052598Q11.7445 4.81863e-06 11.6374 4.81863e-06ZM11.335 6.02981L6.28428 3.63434Q6.23804 3.61241 6.18696 3.61551Q6.13588 3.6186 6.09263 3.64596Q6.04938 3.67331 6.02469 3.71814Q6 3.76297 6 3.81414L6 8.60508Q6 8.65626 6.02469 8.70108Q6.04938 8.74591 6.09263 8.77326Q6.13588 8.80062 6.18696 8.80372Q6.23804 8.80681 6.28428 8.78488L11.335 6.38941Q11.3871 6.36471 11.4179 6.31599Q11.4487 6.26726 11.4487 6.20961Q11.4487 6.15196 11.4179 6.10324Q11.3871 6.05451 11.335 6.02981Z" id="Mask" fill="#8792A3" fill-rule="evenodd" stroke="none" />
</svg>