<?xml version="1.0" encoding="utf-8"?>
<svg width="14px" height="15px" viewbox="0 0 14 15" version="1.1" xmlns:xlink="http://www.w3.org/1999/xlink" xmlns="http://www.w3.org/2000/svg">
  <path d="M10.4985 3.63158C10.4985 5.63724 8.92029 7.26316 6.97349 7.26316C5.02668 7.26316 3.44848 5.63724 3.44848 3.63158C3.44848 1.62591 5.02668 0 6.97349 0C8.92029 0 10.4985 1.62591 10.4985 3.63158ZM14 11.463C13.1015 9.55797 11.492 8.07477 9.52695 7.37989C8.80446 7.90326 7.9238 8.21053 6.97349 8.21053C6.03084 8.21053 5.15674 7.9082 4.43762 7.39239C2.4887 8.0927 0.893117 9.56947 0 11.463C1.26066 13.5568 3.92148 15 7.00004 15C10.0785 15 12.7393 13.5568 14 11.463ZM9.11914 9.71053L10.0387 9.71053L10.0387 10.5394L10.8433 10.5395L10.8433 11.4868L10.0387 11.4868L10.0387 12.3158L9.11914 12.3158L9.11907 11.4868L8.31452 11.4868L8.31452 10.5395L9.11907 10.5394L9.11914 9.71053Z" id="Mask" fill="#8792A3" fill-rule="evenodd" stroke="none" />
</svg>