<svg width="18" height="17" viewBox="0 0 18 17" fill="none" xmlns="http://www.w3.org/2000/svg">
<path fill-rule="evenodd" clip-rule="evenodd" d="M15.2997 2.20073C16.6021 3.50306 17.3337 5.26941 17.3337 7.11119V7.80564H9.69483V0.166748H10.3893C12.2311 0.166748 13.9974 0.898393 15.2997 2.20073ZM7.61144 16.8334C9.47492 16.7849 11.2421 15.995 12.5212 14.639L13.0212 14.139C14.03 12.9546 14.5753 11.4447 14.5559 9.88898V9.19454H8.30588V2.94454H7.61144C3.77613 2.94454 0.666992 6.05367 0.666992 9.88898C0.666992 13.7243 3.77613 16.8334 7.61144 16.8334ZM11.9866 13.1389L9.3338 10.5834H13.1185C12.986 11.5239 12.594 12.4088 11.9866 13.1389Z" fill="#4198C5"/>
</svg>
