<?xml version="1.0" encoding="utf-8"?>
<svg width="14px" height="13px" viewBox="0 0 14 13" version="1.1" xmlns:xlink="http://www.w3.org/1999/xlink" xmlns="http://www.w3.org/2000/svg">
  <desc>Created with Lunacy</desc>
  <path d="M13.9138 2.4717C13.8292 2.35736 13.6943 2.2897 13.5508 2.2897L3.4439 2.2897C3.42432 2.2897 3.40477 2.29087 3.38594 2.29338L2.96999 1.11041C2.92688 0.988068 2.83194 0.890544 2.70994 0.843157L0.613653 0.0306916C0.382619 -0.0585485 0.121914 0.0534112 0.0311797 0.281071C-0.059398 0.508854 0.0540513 0.766219 0.28496 0.855738L2.18888 1.59365L4.5193 8.22094C4.41644 8.2563 4.32928 8.33417 4.28958 8.4431L3.61578 10.2897C3.57449 10.4029 3.5915 10.5287 3.66178 10.6271C3.73196 10.7255 3.8461 10.7841 3.96797 10.7841L4.31399 10.7841C4.09956 11.0195 3.96797 11.3295 3.96797 11.6705C3.96797 12.4036 4.5726 13 5.31558 13C6.05856 13 6.66318 12.4036 6.66318 11.6705C6.66318 11.3295 6.53159 11.0195 6.31717 10.7841L9.25525 10.7841C9.04073 11.0195 8.90911 11.3295 8.90911 11.6705C8.90911 12.4036 9.51361 13 10.2567 13C10.9999 13 11.6044 12.4036 11.6044 11.6705C11.6044 11.3295 11.4728 11.0195 11.2584 10.7841L11.6792 10.7841C11.886 10.7841 12.0535 10.6187 12.0535 10.4148C12.0535 10.2108 11.886 10.0455 11.6792 10.0455L4.5006 10.0455L4.91789 8.90188C4.97178 8.92426 5.03 8.93749 5.09094 8.93749L11.6791 8.93749C11.8745 8.93749 12.0473 8.81301 12.1068 8.62964L13.9785 2.86823C14.0224 2.73334 13.9983 2.58604 13.9138 2.4717ZM6.45094 4.17343L6.45094 3.17627L3.69617 3.17627L4.04679 4.17343L6.45094 4.17343ZM7.34937 4.17343L7.34937 3.17627L9.42075 3.17627L9.42075 4.17343L7.34937 4.17343ZM10.3191 4.17343L12.6113 4.17343L12.9352 3.17627L10.3191 3.17627L10.3191 4.17343ZM6.45105 5.05957L4.35864 5.05957L4.76128 6.20445L6.45105 6.20445L6.45105 5.05957ZM7.34937 5.05957L7.34937 6.20445L9.42075 6.20445L9.42075 5.05957L7.34937 5.05957ZM11.9512 6.20445L10.3191 6.20445L10.3191 5.05957L12.3232 5.05957L11.9512 6.20445ZM5.073 7.09082L6.45099 7.09082L6.45099 8.05104L5.41062 8.05104L5.073 7.09082ZM9.42075 7.09082L9.42075 8.05104L7.34937 8.05104L7.34937 7.09082L9.42075 7.09082ZM10.3191 7.09082L10.3191 8.05104L11.3516 8.05104L11.6635 7.09082L10.3191 7.09082ZM4.71667 11.6705C4.71667 11.9964 4.98527 12.2614 5.3156 12.2614C5.64592 12.2614 5.91452 11.9964 5.91452 11.6705C5.91452 11.3446 5.64592 11.0796 5.3156 11.0796C4.98527 11.0796 4.71667 11.3446 4.71667 11.6705ZM10.2567 12.2614C9.92635 12.2614 9.65771 11.9964 9.65771 11.6705C9.65771 11.3446 9.92635 11.0796 10.2567 11.0796C10.587 11.0796 10.8556 11.3446 10.8556 11.6705C10.8556 11.9964 10.587 12.2614 10.2567 12.2614Z" id="Mask" fill="#8792A3" fill-rule="evenodd" stroke="none" />
</svg>