<?xml version="1.0" encoding="utf-8"?>
<svg width="17px" height="12px" viewbox="0 0 17 12" version="1.1" xmlns:xlink="http://www.w3.org/1999/xlink" xmlns="http://www.w3.org/2000/svg">
  <path d="M10.3657 3.88815L10.6788 4.62342C10.6788 4.62342 12.382 5.223 12.3815 5.31327L12.3815 6.63052C12.3815 6.71909 10.6822 7.36806 10.6822 7.36806L10.3691 8.10334C10.3691 8.10334 11.1353 9.69482 11.0693 9.75784L10.107 10.6907C10.0422 10.7515 8.36882 10.0463 8.36882 10.0463L7.61183 10.35C7.61183 10.35 6.99189 12 6.89841 12L5.53926 12C5.4475 12 4.77882 10.3557 4.77882 10.3557L4.02126 10.0508C4.02126 10.0508 2.37938 10.7923 2.31457 10.7293L1.3517 9.79759C1.28804 9.73513 2.01522 8.11072 2.01522 8.11072L1.70267 7.37772C1.70267 7.37772 0 6.77757 0 6.68673L0 5.36835C0 5.27977 1.69865 4.63307 1.69865 4.63307L2.01063 3.8978C2.01063 3.8978 1.24503 2.30745 1.31155 2.24216L2.27328 1.3093C2.33751 1.24855 4.01323 1.95373 4.01323 1.95373L4.76965 1.64996C4.76965 1.64996 5.38786 0 5.48191 0L6.84107 0C6.93168 0 7.60208 1.64542 7.60208 1.64542L8.35907 1.94805C8.35907 1.94805 9.9998 1.20766 10.0669 1.27182L11.0292 2.20241C11.0923 2.26487 10.3657 3.88815 10.3657 3.88815ZM16.374 2.70452L16.366 3.08834C16.366 3.08834 16.9945 3.68281 16.9779 3.72255L16.7158 4.30168C16.6975 4.34029 15.824 4.29601 15.824 4.29601L15.5407 4.55662C15.5407 4.55662 15.5608 5.40545 15.519 5.41964L14.9122 5.64278C14.8709 5.65697 14.2762 5.02163 14.2762 5.02163L13.8834 5.00857C13.8834 5.00857 13.2847 5.61155 13.2434 5.59281L12.6464 5.32879C12.6057 5.31119 12.6372 4.45839 12.6372 4.45839L12.366 4.17791C12.366 4.17791 11.4983 4.18415 11.4811 4.14441L11.2431 3.54881C11.2276 3.50906 11.8682 2.93674 11.8682 2.93674L11.8762 2.5552C11.8762 2.5552 11.2471 1.96073 11.2654 1.91985L11.5275 1.34072C11.5453 1.30211 12.4187 1.34867 12.4187 1.34867L12.7026 1.08579C12.7026 1.08579 12.6825 0.238093 12.7232 0.223898L13.3317 0.000761305C13.3718 -0.0145687 13.9677 0.620775 13.9677 0.620775L14.3599 0.636105C14.3599 0.636105 14.9581 0.029718 15.0005 0.0484547L15.5975 0.313607C15.6382 0.331208 15.605 1.18401 15.605 1.18401L15.8768 1.46336C15.8768 1.46336 16.7445 1.45768 16.7623 1.49856L16.9997 2.09359C17.0152 2.13334 16.374 2.70452 16.374 2.70452ZM13.7394 3.6652C14.2212 3.87812 14.7832 3.67145 14.9936 3.20587C15.203 2.74143 14.9827 2.19012 14.5027 1.97606C14.0233 1.76428 13.4596 1.96982 13.2503 2.43426C13.0398 2.90097 13.26 3.45342 13.7394 3.6652ZM4.20706 5.99915C4.20706 7.05919 5.09825 7.92221 6.19074 7.92221C7.28494 7.92221 8.17441 7.05976 8.17441 5.99915C8.17441 4.94024 7.28494 4.07722 6.19074 4.07722C5.09825 4.07722 4.20706 4.94024 4.20706 5.99915Z" id="Mask" fill="#8792A3" fill-rule="evenodd" stroke="none" />
</svg>