<?xml version="1.0" encoding="utf-8"?>
<svg width="14px" height="14px" viewBox="0 0 14 14" version="1.1" xmlns:xlink="http://www.w3.org/1999/xlink" xmlns="http://www.w3.org/2000/svg">
  <desc>Created with Lunacy</desc>
  <path d="M9.55671 11.1429L10.225 10.7023C10.3482 10.6213 10.4526 10.5108 10.5268 10.3824L10.8313 9.85639L10.8313 13.3638C10.8313 13.7149 10.5459 14 10.1937 14L0.637014 14C0.285106 14 0 13.7152 0 13.3638L0 0.636242C0 0.285058 0.285106 0 0.637014 0L10.1937 0C10.5456 0 10.831 0.28476 10.831 0.636242L10.831 1.58286L9.55671 3.78737L9.55671 1.27278L1.27433 1.27278L1.27433 12.7269L9.55671 12.7269L9.55671 11.1429ZM13.9926 2.94693C13.9794 2.88974 13.8449 2.37562 13.0343 1.90797C12.2238 1.44062 11.7108 1.58122 11.6541 1.59879C11.5781 1.62292 11.514 1.67415 11.474 1.74326L7.49208 8.6317C7.46733 8.6749 7.45271 8.72285 7.44973 8.7723L7.30062 11.258C7.29346 11.3783 7.3549 11.4921 7.45898 11.5526C7.56395 11.6127 7.69309 11.6086 7.79389 11.5427L9.87462 10.1708C9.91608 10.144 9.95037 10.1073 9.97512 10.0647L13.9574 3.1751C13.9973 3.10599 14.0096 3.02497 13.9926 2.94693ZM3.02642 2.49239L7.80462 2.49239C8.15683 2.49239 8.44164 2.77745 8.44194 3.12863C8.44194 3.47981 8.15713 3.76487 7.80462 3.76487L3.02642 3.76487C2.67451 3.76487 2.38911 3.47981 2.38911 3.12863C2.38911 2.77745 2.67451 2.49239 3.02642 2.49239ZM7.80433 4.87859C8.15683 4.87859 8.44164 5.16335 8.44164 5.51483C8.44164 5.86632 8.15683 6.15137 7.80462 6.15137L3.02642 6.15137C2.67451 6.15137 2.38911 5.86632 2.38911 5.51483C2.38911 5.16365 2.67451 4.87859 3.02642 4.87859L7.80433 4.87859ZM5.41582 8.53758C5.76773 8.53758 6.05283 8.25252 6.05283 7.90134C6.05283 7.54985 5.76773 7.2648 5.41582 7.2648L3.02642 7.2648C2.67451 7.2648 2.38911 7.54985 2.38911 7.90134C2.38911 8.25282 2.67451 8.53758 3.02642 8.53758L5.41582 8.53758ZM8.59672 10.4415C8.49085 10.3561 8.37066 10.2753 8.24153 10.2006C8.1118 10.1258 7.98177 10.063 7.85473 10.0135L7.89916 9.26824C8.06527 9.28999 8.31161 9.35731 8.62445 9.53722C8.93699 9.71743 9.11802 9.89734 9.22061 10.0299L8.59672 10.4415ZM4.44181 11.4778C4.46268 11.6056 4.61031 11.6452 4.70902 11.6863C4.78957 11.7203 4.88329 11.6712 4.95827 11.632C4.97212 11.6248 4.98533 11.6178 4.9977 11.6119C5.31651 11.4569 5.70945 11.523 6.08904 11.5869C6.28826 11.6204 6.48379 11.6533 6.66301 11.6533C6.97108 11.6533 6.97108 11.1761 6.66301 11.1761C6.4296 11.1761 6.21127 11.1534 5.99672 11.1311C5.65314 11.0955 5.31927 11.0608 4.94879 11.1219C4.94879 11.087 4.93597 11.04 4.89839 10.9759C4.78596 10.7838 4.64281 10.7293 4.49937 10.7525C4.48982 10.7299 4.48058 10.7072 4.46716 10.6843C4.42958 10.6229 4.37709 10.5923 4.31804 10.5795C4.48595 10.2864 4.5942 9.97627 4.48416 9.72547C4.45046 9.64921 4.35472 9.61019 4.27778 9.60722C4.00319 9.59696 3.76216 9.84323 3.56952 10.0401C3.5383 10.072 3.50834 10.1026 3.47972 10.1306C2.96647 10.6331 2.51436 11.2035 2.07686 11.7712C1.88898 12.0152 2.30441 12.2523 2.48931 12.0125C2.87701 11.5097 3.28767 11.0215 3.72964 10.5649C3.62317 10.7394 3.51014 10.9107 3.39115 11.0757C3.22116 11.3381 3.62705 11.5615 3.8036 11.3167C3.84565 11.2526 3.89903 11.2065 3.95749 11.1668C3.94585 11.1963 3.93393 11.2252 3.922 11.255L3.92379 11.2556C3.91454 11.2747 3.9053 11.2937 3.89784 11.3119C3.79107 11.5791 4.18981 11.7015 4.33474 11.4954C4.37143 11.4436 4.40542 11.3882 4.43614 11.3301C4.43405 11.37 4.43316 11.4236 4.44181 11.4778Z" id="Mask" fill="#8792A3" fill-rule="evenodd" stroke="none" />
</svg>