<svg width="18" height="16" viewBox="0 0 18 16" fill="none" xmlns="http://www.w3.org/2000/svg">
<path fill-rule="evenodd" clip-rule="evenodd" d="M1.34043 1C1.15242 1 1 1.14924 1 1.33333C1 1.51743 1.15242 1.66667 1.34043 1.66667H2.77956L4.73336 9.00014L4.72174 9.00043C4.71025 9.0008 4.69496 9.0015 4.67642 9.0028C4.63944 9.00539 4.58884 9.0104 4.52901 9.02016C4.41097 9.03942 4.24838 9.07857 4.08168 9.1602C3.91364 9.24247 3.73524 9.37112 3.59964 9.57034C3.46261 9.77164 3.38295 10.0251 3.383 10.3334C3.38305 10.6417 3.46276 10.8951 3.59979 11.0963C3.7354 11.2955 3.91376 11.4242 4.08178 11.5065C4.24847 11.5881 4.41102 11.6272 4.52904 11.6465C4.58886 11.6563 4.63945 11.6613 4.67642 11.6639C4.69496 11.6652 4.71025 11.6659 4.72174 11.6662L4.73613 11.6666L4.74111 11.6667L4.74303 11.6667L4.74384 11.6667C4.74384 11.6667 4.74455 11.6667 4.74455 11.3333V11.6667H15.6384C15.8265 11.6667 15.9789 11.5174 15.9789 11.3333C15.9789 11.1492 15.8265 11 15.6384 11H4.74664L4.74443 10.9999C4.74097 10.9998 4.73432 10.9996 4.72495 10.9989C4.70608 10.9976 4.67691 10.9948 4.64101 10.9889C4.56759 10.9769 4.47491 10.9536 4.38633 10.9102C4.29909 10.8675 4.22218 10.8086 4.16631 10.7266C4.11186 10.6466 4.06389 10.525 4.06386 10.3333C4.06383 10.1416 4.11177 10.02 4.16619 9.94008C4.22203 9.85805 4.29892 9.79919 4.38618 9.75647C4.47478 9.71309 4.5675 9.68974 4.64095 9.67776C4.67686 9.6719 4.70605 9.66909 4.72492 9.66777C4.7343 9.66712 4.74096 9.66684 4.74443 9.66673L4.74664 9.66667H14.617C14.7635 9.66667 14.8936 9.57486 14.94 9.43874L16.9825 3.43874C17.0171 3.33709 16.9997 3.22535 16.9357 3.13843C16.8718 3.05151 16.769 3 16.6596 3H6.10627C5.91826 3 5.76584 3.14924 5.76584 3.33333C5.76584 3.51743 5.91826 3.66667 6.10627 3.66667H16.1872L14.3716 9H5.42566C5.42564 8.97222 5.42205 8.94399 5.41455 8.91586L3.37198 1.24919C3.33287 1.10242 3.19749 1 3.04257 1H1.34043ZM6.44686 14.3333C6.82289 14.3333 7.12772 14.0349 7.12772 13.6667C7.12772 13.2985 6.82289 13 6.44686 13C6.07084 13 5.76601 13.2985 5.76601 13.6667C5.76601 14.0349 6.07084 14.3333 6.44686 14.3333ZM6.44686 15C7.19892 15 7.80858 14.403 7.80858 13.6667C7.80858 12.9303 7.19892 12.3333 6.44686 12.3333C5.69481 12.3333 5.08515 12.9303 5.08515 13.6667C5.08515 14.403 5.69481 15 6.44686 15ZM13.9363 13.6667C13.9363 14.0349 13.6315 14.3333 13.2554 14.3333C12.8794 14.3333 12.5746 14.0349 12.5746 13.6667C12.5746 13.2985 12.8794 13 13.2554 13C13.6315 13 13.9363 13.2985 13.9363 13.6667ZM14.6172 13.6667C14.6172 14.403 14.0075 15 13.2554 15C12.5034 15 11.8937 14.403 11.8937 13.6667C11.8937 12.9303 12.5034 12.3333 13.2554 12.3333C14.0075 12.3333 14.6172 12.9303 14.6172 13.6667Z" fill="#4198C5"/>
<path d="M4.74445 9.04174L4.74455 9.33333M1 1.33333C1 1.14924 1.15242 1 1.34043 1H3.04257C3.19749 1 3.33287 1.10242 3.37198 1.24919L5.41455 8.91586C5.42205 8.94399 5.42564 8.97222 5.42566 9H14.3716L16.1872 3.66667H6.10627C5.91826 3.66667 5.76584 3.51743 5.76584 3.33333C5.76584 3.14924 5.91826 3 6.10627 3H16.6596C16.769 3 16.8718 3.05151 16.9357 3.13843C16.9997 3.22535 17.0171 3.33709 16.9825 3.43874L14.94 9.43874C14.8936 9.57486 14.7635 9.66667 14.617 9.66667H4.74664L4.74443 9.66673C4.74096 9.66684 4.7343 9.66712 4.72492 9.66777C4.70605 9.66909 4.67686 9.67189 4.64095 9.67776C4.5675 9.68974 4.47478 9.71309 4.38618 9.75647C4.29892 9.79919 4.22203 9.85805 4.16619 9.94008C4.11177 10.02 4.06383 10.1416 4.06386 10.3333C4.06389 10.525 4.11186 10.6466 4.16631 10.7266C4.22218 10.8086 4.29909 10.8675 4.38633 10.9102C4.4749 10.9536 4.56759 10.9769 4.64101 10.9889C4.67691 10.9948 4.70608 10.9976 4.72495 10.9989C4.73432 10.9996 4.74097 10.9998 4.74443 10.9999L4.74664 11H15.6384C15.8265 11 15.9789 11.1492 15.9789 11.3333C15.9789 11.5174 15.8265 11.6667 15.6384 11.6667H4.74455V11.3333C4.74455 11.6667 4.74384 11.6667 4.74384 11.6667L4.74303 11.6667L4.74111 11.6667L4.73613 11.6666L4.72174 11.6662C4.71025 11.6659 4.69496 11.6652 4.67642 11.6639C4.63945 11.6613 4.58886 11.6563 4.52904 11.6465C4.41102 11.6272 4.24847 11.5881 4.08178 11.5065C3.91376 11.4242 3.7354 11.2955 3.59979 11.0963C3.46277 10.8951 3.38305 10.6417 3.383 10.3334C3.38295 10.0251 3.46261 9.77164 3.59964 9.57034C3.73524 9.37112 3.91364 9.24247 4.08168 9.1602C4.24838 9.07857 4.41097 9.03942 4.52901 9.02016C4.58884 9.0104 4.63944 9.00539 4.67642 9.0028C4.69496 9.0015 4.71025 9.0008 4.72174 9.00043L4.73336 9.00014L2.77956 1.66667H1.34043C1.15242 1.66667 1 1.51743 1 1.33333ZM7.12772 13.6667C7.12772 14.0349 6.82289 14.3333 6.44686 14.3333C6.07084 14.3333 5.76601 14.0349 5.76601 13.6667C5.76601 13.2985 6.07084 13 6.44686 13C6.82289 13 7.12772 13.2985 7.12772 13.6667ZM7.80858 13.6667C7.80858 14.403 7.19892 15 6.44686 15C5.69481 15 5.08515 14.403 5.08515 13.6667C5.08515 12.9303 5.69481 12.3333 6.44686 12.3333C7.19892 12.3333 7.80858 12.9303 7.80858 13.6667ZM13.2554 14.3333C13.6315 14.3333 13.9363 14.0349 13.9363 13.6667C13.9363 13.2985 13.6315 13 13.2554 13C12.8794 13 12.5746 13.2985 12.5746 13.6667C12.5746 14.0349 12.8794 14.3333 13.2554 14.3333ZM13.2554 15C14.0075 15 14.6172 14.403 14.6172 13.6667C14.6172 12.9303 14.0075 12.3333 13.2554 12.3333C12.5034 12.3333 11.8937 12.9303 11.8937 13.6667C11.8937 14.403 12.5034 15 13.2554 15Z" stroke="#4198C5" stroke-width="0.3" stroke-linecap="round"/>
</svg>
