<svg width="16" height="16" viewBox="0 0 16 16" fill="none" xmlns="http://www.w3.org/2000/svg">
<path d="M1.875 1.25H2.625V0H3.875V1.25H12.125V0H13.375V1.25H14.125C15.1589 1.25 16 2.09113 16 3.125V14.125C16 15.1589 15.1589 16 14.125 16H1.875C0.841125 16 0 15.1589 0 14.125V3.125C0 2.09113 0.841125 1.25 1.875 1.25ZM1.25 14.125C1.25 14.4696 1.53037 14.75 1.875 14.75H14.125C14.4696 14.75 14.75 14.4696 14.75 14.125V5.875H1.25V14.125ZM1.25 4.625H14.75V3.125C14.75 2.78038 14.4696 2.5 14.125 2.5H13.375V3.75H12.125V2.5H3.875V3.75H2.625V2.5H1.875C1.53037 2.5 1.25 2.78038 1.25 3.125V4.625Z" fill="#616F82"/>
</svg>
