<svg width="34px" height="34px" viewBox="0 0 34 34" version="1.1" xmlns="http://www.w3.org/2000/svg" xmlns:xlink="http://www.w3.org/1999/xlink">
    <g stroke="none" stroke-width="1" fill="none" fill-rule="evenodd">
        <g id="file" transform="translate(-507.000000, -252.000000)">
            <g id="Group-8" transform="translate(507.000000, 252.000000)">
                <path d="M11.6284508,23.3408896 C12.030836,23.7629106 12.5765903,24
                    13.1456522,24 C13.7147142,24 14.2604685,23.7629106 14.6628536,23.3408896
                    L22.0800708,15.5615669 C22.8701983,14.741974 23.1814407,13.5414333
                    22.8958057,12.415071 C22.6101707,11.2887088 21.7713849,10.4089541
                    20.6974326,10.1093229 C19.6234804,9.80969176 18.4787678,10.1360531
                    17.6972564,10.964683 L12.8083109,16.09189 L13.1456522,16.4456888
                    L18.0343593,11.3184818 C18.6953399,10.6159024 19.6645977,10.3386477
                    20.5741667,10.5919738 C21.4837357,10.8452999 22.194139,11.590361
                    22.4356813,12.5443041 C22.6772236,13.4982471 22.4128658,14.5147911
                    21.7429679,15.2080182 L14.3257508,22.9870908 C13.6740003,23.6706375
                    12.6173041,23.6706375 11.9655537,22.9870908 C11.3138033,22.3035442
                    11.3138033,21.1952961 11.9655537,20.5117495 L18.3714622,13.7933231
                    C18.6514472,13.5044906 19.1011205,13.5064663 19.3787883,13.797749
                    C19.6564561,14.0890317 19.6582339,14.5606432 19.3827709,14.8542194
                    L15.5056109,18.9207801 L15.8427138,19.2743289 L19.7201122,15.2080182
                    C20.1821467,14.7191798 20.1805002,13.9305988 19.7164289,13.4438874
                    C19.2523575,12.9571759 18.5004586,12.9554491 18.0343593,13.4400244
                    L11.6284508,20.1584508 C11.2260608,20.5804666 11,21.152846
                    11,21.7496702 C11,22.3464944 11.2260608,22.9188738
                    11.6284508,23.3408896 L11.6284508,23.3408896 Z" id="Path"
                      stroke-width="0.4"  fill-rule="nonzero"></path>
                <rect id="Rectangle" x="0.5" y="0.5" width="33" height="33" rx="16.5"></rect>
            </g>
        </g>

    </g>
    <use xlink:href="#Path"/>
</svg>