<svg width="18" height="16" viewBox="0 0 18 16" fill="none" xmlns="http://www.w3.org/2000/svg">
<path fill-rule="evenodd" clip-rule="evenodd" d="M10.4774 5.6731V2.53461L16.4219 7.99988L10.4774 13.4654V10.378L9.52248 10.1788C8.87302 10.0433 8.18555 9.96322 7.47466 9.93605L7.47221 9.93595C5.82154 9.87623 4.04167 10.2459 2.59837 11.0032C2.30965 11.1547 2.02612 11.3267 1.75571 11.5194C2.89369 8.831 5.70578 6.59034 9.50389 5.86023L10.4774 5.6731ZM0.0317192 13.4884C0.0107327 13.7219 6.67572e-05 13.9573 6.67572e-05 14.1942C6.67572e-05 14.2006 7.62939e-05 14.207 9.53674e-05 14.2135C0.000656128 14.4009 0.00939369 14.5959 0.0276108 14.8194C0.0299435 14.8479 0.0325069 14.8779 0.0351524 14.9075C0.0534801 15.1152 0.226166 15.2756 0.43469 15.2792C0.640753 15.2846 0.820757 15.1282 0.846472 14.9209C0.850018 14.8921 0.853983 14.8634 0.858362 14.8348L0.858526 14.8338C0.886669 14.6507 0.931852 14.4735 0.992584 14.3023C1.00547 14.266 1.01906 14.2299 1.03333 14.1942C1.08399 14.0672 1.14329 13.9437 1.21059 13.8238C2.20995 12.043 4.97461 11.0464 7.42882 11.1352C8.08011 11.1601 8.70041 11.2331 9.27743 11.3535V15.269C9.27743 15.4306 9.37331 15.5775 9.52145 15.6428C9.57438 15.6657 9.63026 15.6771 9.68579 15.6771C9.78619 15.6771 9.88535 15.6399 9.96209 15.5694L17.8682 8.30023C17.9523 8.22309 18 8.11373 18 7.99986C18 7.88599 17.9523 7.77663 17.8682 7.69949L9.96168 0.430424C9.84254 0.320656 9.6691 0.292479 9.52138 0.357382C9.37324 0.422285 9.27736 0.569189 9.27736 0.731207V4.68181C4.16378 5.66478 0.411087 9.26801 0.0317192 13.4884Z" fill="#616F82"/>
</svg>
