<svg width="20" height="20" viewBox="0 0 20 20" fill="none" xmlns="http://www.w3.org/2000/svg">
<rect opacity="0.01" width="20" height="20" fill="#D8D8D8"/>
<path d="M10.0001 1.66666C14.5949 1.66666 18.3334 5.40521 18.3334 10C18.3334 14.5948 14.5949 18.3333 10.0001 18.3333C9.26675 18.3333 8.54175 18.2385 7.84279 18.051L8.11258 17.0448C8.723 17.2083 9.35737 17.2917 10.0001 17.2917C14.0209 17.2917 17.2917 14.0198 17.2917 10C17.2917 5.97917 14.0209 2.70729 10.0001 2.70729C5.98029 2.70729 2.70841 5.97917 2.70841 10C2.70841 10.6396 2.79175 11.276 2.95529 11.8885L1.94904 12.1562C1.76154 11.4562 1.66675 10.7302 1.66675 10C1.66675 5.40521 5.40529 1.66666 10.0001 1.66666ZM6.48446 16.0893C6.85842 16.3049 6.9855 16.783 6.76987 17.1559C6.55425 17.5299 6.07717 17.658 5.70321 17.4424C5.32925 17.2268 5.20216 16.7486 5.41779 16.3747C5.63341 16.0018 6.1105 15.8736 6.48446 16.0893ZM3.92352 14.9712C4.22769 14.6671 4.72352 14.6671 5.02873 14.9712C5.33394 15.2765 5.33394 15.7723 5.02873 16.0775C4.72352 16.3817 4.22769 16.3817 3.92352 16.0775C3.61831 15.7723 3.61831 15.2765 3.92352 14.9712ZM3.91081 13.5156C4.12644 13.8885 3.99831 14.3667 3.62539 14.5823C3.25144 14.7979 2.77331 14.6698 2.55769 14.2969C2.34206 13.924 2.47019 13.4458 2.84414 13.2302C3.21706 13.0146 3.69519 13.1427 3.91081 13.5156Z" fill="#4198C5"/>
<path d="M14.9166 8.03571L9.85706 13.0556C9.55944 13.3532 9.08325 13.373 8.76579 13.0754L6.08722 10.6349C5.76976 10.3373 5.74992 9.84127 6.0277 9.52381C6.32532 9.20635 6.82135 9.18651 7.13881 9.48412L9.26182 11.4286L13.7856 6.90476C14.1031 6.5873 14.5991 6.5873 14.9166 6.90476C15.234 7.22222 15.234 7.71825 14.9166 8.03571Z" fill="#4198C5"/>
</svg>
