<svg width="16" height="16" viewBox="0 0 16 16" fill="none" xmlns="http://www.w3.org/2000/svg">
<path d="M10.8503 9.41291L8.6195 7.73979V4.3316C8.6195 3.98891 8.3425 3.71191 7.99981 3.71191C7.65713 3.71191 7.38013 3.98891 7.38013 4.3316V8.04966C7.38013 8.24485 7.47185 8.42891 7.628 8.54541L10.1067 10.4044C10.2182 10.4881 10.3484 10.5284 10.4779 10.5284C10.6669 10.5284 10.8528 10.4435 10.9743 10.2799C11.18 10.0066 11.1243 9.61804 10.8503 9.41291Z" fill="#4198C5"/>
<path d="M8 0C3.58853 0 0 3.58853 0 8C0 12.4115 3.58853 16 8 16C12.4115 16 16 12.4115 16 8C16 3.58853 12.4115 0 8 0ZM8 14.7607C4.27266 14.7607 1.23934 11.7273 1.23934 8C1.23934 4.27266 4.27266 1.23934 8 1.23934C11.728 1.23934 14.7607 4.27266 14.7607 8C14.7607 11.7273 11.7273 14.7607 8 14.7607Z" fill="#4198C5"/>
</svg>
