<?xml version="1.0" encoding="UTF-8"?>
<svg width="12px" height="12px" viewBox="0 0 12 12" version="1.1" xmlns="http://www.w3.org/2000/svg" xmlns:xlink="http://www.w3.org/1999/xlink">
    <!-- Generator: Sketch 59.1 (86144) - https://sketch.com -->
    <title>Path</title>
    <desc>Created with Sketch.</desc>
    <g id="Макеты-в-доработке" stroke="none" stroke-width="1" fill="none" fill-rule="evenodd">
        <g id="25-Программы-|-Мои-|-ReLife-kontent-|-Новая-видео-программа-|-Заполнено" transform="translate(-1493.000000, -448.000000)" fill="#616F82" fill-rule="nonzero" stroke="#616F82" stroke-width="0.3">
            <g id="Exercise-10-Copy" transform="translate(1254.000000, 423.000000)">
                <g id="Exercise">
                    <g id="tick/active" transform="translate(232.000000, 18.000000)">
                        <g id="Oval">
                            <g id="Group">
                                <path d="M8.14065727,8.83422565 C7.95311424,8.64672975 7.95311424,8.33467363 8.14065727,8.14062193 C8.33475776,7.95312602 8.64033487,7.95312602 8.83443535,8.14062193 L12.997541,12.3096742 L17.1676412,8.14062193 C17.3551842,7.95312602 17.6673188,7.95312602 17.8544246,8.14062193 C18.0485251,8.33467363 18.0485251,8.6471668 17.8544246,8.83422565 L13.691319,12.9967221 L17.8544246,17.1657743 C18.0485251,17.3532703 18.0485251,17.6653264 17.8544246,17.8593781 C17.6668816,18.046874 17.354747,18.046874 17.1676412,17.8593781 L12.997541,13.6903258 L8.83443535,17.8593781 C8.64033487,18.046874 8.33475776,18.046874 8.14065727,17.8593781 C7.95311424,17.6653264 7.95311424,17.3528332 8.14065727,17.1657743 L12.3037629,12.9967221 L8.14065727,8.83422565 Z" id="Path"></path>
                            </g>
                        </g>
                    </g>
                </g>
            </g>
        </g>
    </g>
</svg>