<svg width="13" height="13" viewBox="0 0 13 13" fill="none" xmlns="http://www.w3.org/2000/svg">
<path fill-rule="evenodd" clip-rule="evenodd" d="M6.22833 0.0918193C6.38947 -0.0306064 6.61053 -0.0306064 6.77167 0.0918193L12.8175 4.68515C13.0185 4.83786 13.0598 5.12749 12.9098 5.33205C12.7597 5.53662 12.4752 5.57866 12.2742 5.42596L6.5 1.03902L0.725841 5.42596C0.524848 5.57866 0.24028 5.53662 0.0902427 5.33205C-0.0597949 5.12749 -0.0184868 4.83786 0.182507 4.68515L6.22833 0.0918193ZM1.16378 6.52988C1.16378 6.38383 1.23159 6.24638 1.34668 6.15915L6.22875 2.45892C6.38972 2.33692 6.61028 2.33692 6.77125 2.45892L11.6533 6.15915C11.7684 6.24638 11.8362 6.38383 11.8362 6.52988V12.5378C11.8362 12.7931 11.6329 13 11.3821 13H1.61792C1.36711 13 1.16378 12.7931 1.16378 12.5378V6.52988ZM8.44991 8.44986H4.54991V12.9999H8.44991V8.44986Z" fill="#8792A3"/>
</svg>
