<svg width="15" height="15" viewBox="0 0 15 15" fill="none" xmlns="http://www.w3.org/2000/svg">
<path fill-rule="evenodd" clip-rule="evenodd" d="M8.05945 6.22435H13.0939C13.6328 6.22435 14.0696 6.66119 14.0696 7.20005C14.0696 7.73891 13.6328 8.17575 13.0939 8.17575H8.05945V13.1996C8.05945 13.7519 7.61174 14.1996 7.05945 14.1996H7.03176C6.47947 14.1996 6.03176 13.7519 6.03176 13.1996V8.17575H1.02648C0.487616 8.17575 0.0507812 7.73891 0.0507812 7.20005C0.0507812 6.66119 0.487615 6.22435 1.02648 6.22435H6.03176V1.17221C6.03176 0.619927 6.47947 0.172211 7.03176 0.172211H7.05945C7.61174 0.172211 8.05945 0.619926 8.05945 1.17221V6.22435Z" fill="#6C7A8C"/>
</svg>
