<?xml version="1.0" encoding="UTF-8"?>
<svg width="78px" height="20px" viewBox="0 0 78 20" version="1.1" xmlns="http://www.w3.org/2000/svg" xmlns:xlink="http://www.w3.org/1999/xlink">
    <!-- Generator: Sketch 57.1 (83088) - https://sketch.com -->
    <title>Group</title>
    <desc>Created with Sketch.</desc>
    <g id="Symbols" stroke="none" stroke-width="1" fill="none" fill-rule="evenodd">
        <g id="Logo/reLife" transform="translate(-5.000000, -4.000000)" fill="#4198C5">
            <g id="Group" transform="translate(3.000000, 1.000000)">
                <path d="M74.4728,9.44366131 C76.0277411,9.44366131 77.3278614,9.93457798 78.3732,10.9164261 C79.4185386,11.8982741 79.9607998,13.242959 80,14.9505208 L70.6312,14.9505208 C70.6965337,16.0482392 71.0917964,16.9294499 71.817,17.5941793 C72.5422036,18.2589088 73.4078616,18.5912685 74.414,18.5912685 C76.1257419,18.5912685 77.4323955,17.8045821 78.334,16.2311858 L79.706,16.8898136 C79.0918636,17.9509413 78.3666708,18.7345785 77.5304,19.2407486 C76.6941292,19.7469187 75.6945391,20 74.5316,20 C72.924392,20 71.5981386,19.4846899 70.5528,18.4540544 C69.5074614,17.4234188 68.9848,16.1824059 68.9848,14.7309783 C68.9848,13.2795507 69.5107281,12.0354885 70.5626,10.9987545 C71.6144719,9.96202053 72.9178589,9.44366131 74.4728,9.44366131 Z M42.6032,9.44366131 C44.1581411,9.44366131 45.4582614,9.93457798 46.5036,10.9164261 C47.5489386,11.8982741 48.0911998,13.242959 48.1304,14.9505208 L38.7616,14.9505208 C38.8269337,16.0482392 39.2221964,16.9294499 39.9474,17.5941793 C40.6726036,18.2589088 41.5382616,18.5912685 42.5444,18.5912685 C44.2561419,18.5912685 45.5627955,17.8045821 46.4644,16.2311858 L47.8364,16.8898136 C47.2222636,17.9509413 46.4970708,18.7345785 45.6608,19.2407486 C44.8245292,19.7469187 43.8249391,20 42.662,20 C41.054792,20 39.7285386,19.4846899 38.6832,18.4540544 C37.6378614,17.4234188 37.1152,16.1824059 37.1152,14.7309783 C37.1152,13.2795507 37.6411281,12.0354885 38.693,10.9987545 C39.7448719,9.96202053 41.0482589,9.44366131 42.6032,9.44366131 Z M52.266,6.05072464 L52.266,18.202908 L57.6756,18.202908 L57.6756,19.7214108 L50.5608,19.7214108 L50.5608,6.05072464 L52.266,6.05072464 Z M60.8312,9.75051895 L60.8312,19.7214108 L59.2044,19.7214108 L59.2044,9.75051895 L60.8312,9.75051895 Z M66.182,6 C66.6001354,6 67.1685297,6.09147516 67.8872,6.27442822 L67.8872,7.79293101 C67.2599969,7.5489936 66.7700018,7.42702672 66.4172,7.42702672 C66.0643982,7.42702672 65.8357339,7.53374774 65.7312,7.74719297 C65.6266661,7.96063821 65.5744,8.31739132 65.5744,8.81746301 L65.5744,9.75051895 L67.75,9.75051895 L67.75,11.0677744 L65.5744,11.0677744 L65.5744,19.7214108 L63.9476,19.7214108 L63.9476,11.0677744 L62.5952,11.0677744 L62.5952,9.75051895 L63.9476,9.75051895 L63.9476,8.61621566 C63.9476,7.71364723 64.1272649,7.05197693 64.4866,6.6311849 C64.8459351,6.21039286 65.4110628,6 66.182,6 Z M34.773,9.49438595 C35.1976688,9.49438595 35.677864,9.62854951 36.2136,9.89688066 L35.3708,11.1775457 C35.1486656,11.0677738 34.9330677,11.0128887 34.724,11.0128887 C34.3189313,11.0128887 33.9530683,11.1988882 33.6264,11.5708928 C33.2997317,11.9428973 33.0547341,12.4307648 32.8914,13.0345099 C32.7280658,13.638255 32.6464,14.7268094 32.6464,16.3002057 L32.6464,19.7214108 L31,19.7214108 L31,9.75051895 L32.6464,9.75051895 L32.6464,10.8299366 C32.9730683,10.3786524 33.3029983,10.0432435 33.6362,9.8236998 C33.9694017,9.60415613 34.3483312,9.49438595 34.773,9.49438595 Z M74.4728,10.9072785 C72.6434575,10.9072785 71.4282697,11.8098333 70.8272,13.6149702 L78.1968,13.6149702 C78.000799,12.7611892 77.5565368,12.0964698 76.864,11.6207918 C76.1714632,11.1451139 75.3744045,10.9072785 74.4728,10.9072785 Z M42.6032,10.9072785 C40.7738575,10.9072785 39.5586697,11.8098333 38.9576,13.6149702 L46.3272,13.6149702 C46.131199,12.7611892 45.6869368,12.0964698 44.9944,11.6207918 C44.3018632,11.1451139 43.5048045,10.9072785 42.6032,10.9072785 Z M60.008,6 C60.3608018,6 60.6580655,6.11281936 60.8998,6.33846147 C61.1415345,6.56410357 61.2624,6.83852904 61.2624,7.16174611 C61.2624,7.48496318 61.1415345,7.75938865 60.8998,7.98503076 C60.6580655,8.21067286 60.3640684,8.32349223 60.0178,8.32349223 C59.6715316,8.32349223 59.3775345,8.20762369 59.1358,7.97588315 C58.8940655,7.74414261 58.7732,7.47276631 58.7732,7.16174611 C58.7732,6.85072591 58.8940655,6.57934961 59.1358,6.34760907 C59.3775345,6.11586853 59.668265,6 60.008,6 Z" id="Combined-Shape"></path>
                <path d="M19.7937909,13.2128267 C20.0684827,13.6127696 20.2593213,14.0555635 20.3605235,14.5269247 C20.3373916,14.5497786 20.3142596,14.5726325 20.2911277,14.5926296 C20.2651042,14.6154835 20.2419723,14.6354806 20.2188404,14.6554778 C20.1957084,14.6783317 20.169685,14.6983288 20.146553,14.718326 C20.1234211,14.7383231 20.1002891,14.7583202 20.0771572,14.7754606 C20.0424593,14.804028 20.0222188,14.8240251 19.9990869,14.8411655 C19.970172,14.8611627 19.94704,14.8811598 19.9239081,14.8983002 C19.8198143,14.9782888 19.7128291,15.0554207 19.6029524,15.126839 C19.5769289,15.1439794 19.5509055,15.1611198 19.5277736,15.1754035 C19.4959671,15.1954007 19.4670522,15.2125411 19.4410288,15.2296815 C19.4207883,15.2411084 19.4005479,15.2553921 19.3803074,15.266819 L19.336935,15.2925296 C19.2906711,15.321097 19.2704307,15.3296672 19.2530817,15.3410941 C19.2328413,15.3525211 19.2126008,15.363948 19.1923604,15.3753749 C19.1605539,15.3953721 19.137422,15.406799 19.1113986,15.418226 C19.0998326,15.4239394 19.0882666,15.4296529 19.0767007,15.4382231 C19.0593517,15.4467933 19.0448942,15.4553635 19.0275453,15.461077 C19.0101963,15.4696472 18.9957389,15.4782174 18.9783899,15.4867876 C18.8685132,15.5410656 18.7528534,15.5924868 18.6400852,15.6381945 C18.6111703,15.6496215 18.5822554,15.6610484 18.5504489,15.6724754 C18.515751,15.686759 18.4839446,15.698186 18.4492467,15.7096129 C18.4145488,15.7238966 18.3856338,15.7324668 18.3567189,15.7438937 C18.3017806,15.7610341 18.2728656,15.7724611 18.2439507,15.7810313 L18.1980482,15.7938866 L18.1543144,15.8067419 C18.1022675,15.8210256 18.0791356,15.8295958 18.0531122,15.8353092 C17.9894993,15.8524497 17.9605844,15.8610199 17.928778,15.8667333 C17.905646,15.8724468 17.8854056,15.8781603 17.8622736,15.881017 C17.8073353,15.8924439 17.7784203,15.9010141 17.7495054,15.9067276 C17.7032415,15.9181545 17.6540861,15.9267248 17.6049308,15.935295 C17.7899863,16.4780746 17.8911886,17.0579917 17.8911886,17.6636195 L17.8911886,17.755035 C17.8911886,17.7750321 17.8911886,17.7950293 17.8882971,17.8150264 C17.8882971,17.8607342 17.8882971,17.8807313 17.8854056,17.9035852 L17.8854056,17.9350093 C17.8854056,17.949293 17.8825141,17.9664334 17.8825141,17.980717 C17.8796226,18.0092844 17.8796226,18.0407085 17.8767311,18.0692758 C17.8738396,18.0978432 17.8709481,18.1264105 17.8709481,18.1549779 C17.8680566,18.1692615 17.8680566,18.1835452 17.8651651,18.1978289 C17.8622736,18.2206828 17.8593821,18.2435366 17.8593821,18.2663905 C17.8564906,18.2949579 17.8535991,18.3206685 17.8507077,18.3492358 L17.8449247,18.3835166 C17.8420332,18.4092273 17.8362502,18.4377946 17.8333587,18.4635052 C17.8275757,18.4920726 17.8246842,18.5234966 17.8189012,18.552064 C17.8102268,18.6006285 17.8073353,18.6263391 17.8015523,18.6549064 C17.7957693,18.6891873 17.7899863,18.7091844 17.7870948,18.7291815 C17.7842033,18.7434652 17.7813118,18.7606056 17.7755288,18.7748893 C17.7697459,18.8005999 17.7639629,18.8263105 17.7581799,18.8491644 C17.7523969,18.8805885 17.7437224,18.9091558 17.7350479,18.9405799 C17.7263735,18.9777175 17.7148075,19.0177118 17.706133,19.0548493 C17.70035,19.0748465 17.694567,19.0977003 17.6887841,19.1176975 C17.6772181,19.154835 17.6685436,19.1891158 17.6569776,19.2262534 C17.500837,19.7318954 17.2695176,20.2061134 16.9774768,20.6346236 C16.0059352,22.0601343 14.3577842,23 12.4869883,23 C10.7318521,23 9.1704459,22.1744037 8.18444681,20.8917298 C8.26540861,20.8945865 8.34926191,20.8974432 8.43022371,20.8974432 C8.90442855,20.8974432 9.36706742,20.8403085 9.80657434,20.7317526 C9.87307868,20.7888873 9.94247451,20.846022 10.0147618,20.8974432 C10.0350023,20.9117269 10.0552427,20.9288673 10.0754832,20.943151 C10.1043981,20.9660049 10.1217471,20.9774318 10.139096,20.9888587 C10.150662,20.9974289 10.162228,21.0059991 10.1737939,21.0117126 C10.1853599,21.0202828 10.1969259,21.0259963 10.2056004,21.0345665 C10.2258408,21.0488502 10.2460813,21.0602771 10.2663217,21.0745608 C10.2952366,21.0917012 10.3154771,21.1031281 10.3328261,21.1145551 L10.3761984,21.1402657 C10.3877644,21.1459791 10.3964389,21.1516926 10.4080049,21.1574061 L10.4542688,21.1831167 L10.4947497,21.2059706 L10.5381221,21.2316812 C10.567037,21.2459649 10.5930604,21.2602485 10.6219753,21.2745322 C10.6798052,21.3030996 10.7376351,21.3316669 10.7954649,21.3573775 C10.8272713,21.3716612 10.8561863,21.3830881 10.8879927,21.3945151 C10.9024502,21.4002285 10.9197991,21.4087987 10.9342566,21.4145122 C10.948714,21.4202257 10.96028,21.4259392 10.9747375,21.4316526 C11.0296758,21.4516498 11.0817227,21.4716469 11.1395526,21.4916441 L11.1973824,21.5116412 C11.2407548,21.5259249 11.2667783,21.5316383 11.2899102,21.5402085 C11.3188251,21.5487787 11.3477401,21.557349 11.3737635,21.5659192 C11.3997869,21.5744894 11.4200274,21.5802028 11.4373764,21.5830596 C11.4662913,21.5916298 11.4807487,21.5944865 11.4923147,21.5973432 C11.5125552,21.6030567 11.5327956,21.6059134 11.5530361,21.6116269 L11.6397809,21.6316241 C11.6744788,21.6401943 11.7005022,21.643051 11.7236342,21.6487645 C11.7496576,21.6544779 11.775681,21.6573347 11.8017045,21.6630481 C11.8161619,21.6659049 11.8306194,21.6687616 11.8450769,21.6687616 C11.8682088,21.6716183 11.8913407,21.6744751 11.9173642,21.6801885 L11.9896515,21.6887587 C12.0503729,21.697329 12.0763963,21.7001857 12.0995282,21.7030424 C12.1313347,21.7058992 12.1602496,21.7087559 12.192056,21.7116126 C12.2180794,21.7144694 12.2441029,21.7144694 12.2672348,21.7173261 C12.3221732,21.7173261 12.3481966,21.7201828 12.3713286,21.7201828 L12.4783138,21.7201828 C13.617562,21.7201828 14.6469335,21.2631053 15.3900472,20.523211 C15.7283518,20.1861163 16.0088267,19.7890301 16.2112312,19.3519497 C16.2488206,19.2719611 16.2835185,19.1862591 16.3153249,19.1034138 C16.485923,18.6549064 16.5813423,18.1692615 16.5813423,17.6636195 C16.5813423,17.0779889 16.4541166,16.5209256 16.2285801,16.0181403 C15.9336478,15.363948 15.471009,14.8011713 14.8927104,14.3869447 C15.4073961,14.6183402 15.9799117,14.7440366 16.5813423,14.7440366 C16.7201339,14.7440366 16.8560341,14.7383231 16.9890428,14.7240394 C18.122508,14.6126268 19.1229645,14.0469933 19.7937909,13.2128267 Z M3.40191752,13.3299529 C3.66215188,13.8098843 3.98889058,14.2498215 4.37345914,14.6326239 C4.33586973,14.8554492 4.31562928,15.0868447 4.31562928,15.321097 L4.31562928,15.4267962 C4.31562928,15.4553635 4.31562928,15.4753607 4.31852077,15.4953578 C4.31852077,15.5239252 4.32141227,15.5524925 4.32430376,15.5810598 L4.33008674,15.6639052 L4.33008674,15.6639052 C4.33297824,15.7038994 4.33586973,15.7238966 4.33876122,15.741037 C4.34165272,15.7638909 4.34454421,15.7867448 4.3474357,15.8095986 C4.3474357,15.8181688 4.3503272,15.8295958 4.3503272,15.838166 C4.3503272,15.8467362 4.35321869,15.8581631 4.35321869,15.8667333 L4.36189317,15.9267248 L4.36189317,15.9267248 C4.36767615,15.9752892 4.37635063,16.020997 4.38502511,16.0667048 C4.3879166,16.075275 4.3879166,16.0867019 4.3908081,16.0952721 C4.39369959,16.1095558 4.39659108,16.1238395 4.39948257,16.1409799 C4.40237407,16.1552635 4.40526556,16.1666905 4.40815705,16.1781174 C4.41394004,16.203828 4.41972303,16.2295386 4.42550601,16.258106 L4.43996348,16.3123839 L4.43996348,16.3123839 L4.44574646,16.3380946 L4.44574646,16.3380946 L4.46309542,16.398086 L4.46309542,16.398086 C4.4717699,16.4380803 4.48044438,16.4609342 4.48911886,16.4866448 C4.49779333,16.5123554 4.50357632,16.5352093 4.5122508,16.5609199 C4.52670826,16.6066276 4.54116573,16.6494786 4.55851469,16.6951864 C4.56429767,16.7094701 4.57008066,16.7266105 4.57586364,16.7408942 C4.58453812,16.7608913 4.59032111,16.7808884 4.59899559,16.8008856 C4.60767007,16.8265962 4.61923604,16.8523068 4.62791052,16.8751607 L4.65393395,16.9351521 L4.65393395,16.9351521 C4.66549992,16.9608627 4.67128291,16.9780031 4.67995739,16.9951436 C4.68574037,17.0094272 4.69441485,17.0265676 4.70308933,17.0408513 C4.70887232,17.055135 4.7175468,17.0722754 4.72622128,17.0865591 C4.73200426,17.097986 4.73778725,17.1094129 4.74357023,17.1208399 C4.75224471,17.1379803 4.76091919,17.152264 4.76959367,17.1694044 C4.78115964,17.1922582 4.79561711,17.2179689 4.80718308,17.2408227 C4.81874905,17.2636766 4.83320651,17.2865305 4.84477249,17.3093844 C4.85922995,17.3322383 4.87368741,17.3579489 4.88525339,17.3808027 C4.90260234,17.4093701 4.91416832,17.4293672 4.92862578,17.4522211 C4.94019175,17.4722183 4.95175772,17.4893587 4.9633237,17.5093558 C4.98067265,17.5350664 4.98356415,17.5436366 4.98934713,17.5493501 C4.99513012,17.5579203 5.0009131,17.5693472 5.00958758,17.5779174 C5.02982803,17.6064848 5.04717699,17.6350521 5.06741744,17.6607627 C5.08765789,17.6893301 5.10789834,17.7150407 5.12813879,17.7436081 C5.15127074,17.7750321 5.17151119,17.8035995 5.19464313,17.8293101 C5.21488358,17.8578774 5.23801552,17.8835881 5.26114747,17.9092987 C5.27271344,17.9235823 5.2871709,17.937866 5.29873687,17.9521497 C5.30741135,17.9635766 5.31897732,17.9750036 5.3276518,17.9835738 C5.33921778,17.9978574 5.35367524,18.0121411 5.36524121,18.0264248 C5.37391569,18.034995 5.37969868,18.0435652 5.38837315,18.0521354 C5.40283062,18.0664191 5.41728808,18.0807028 5.43174555,18.0978432 C5.451986,18.1178403 5.46933496,18.1349807 5.48379242,18.1521211 C5.48957541,18.1578346 5.49824989,18.1664048 5.50403287,18.1721183 L5.54451377,18.2121126 L5.54451377,18.2121126 C5.58499467,18.2521068 5.62547557,18.2892444 5.66884797,18.3263819 C5.67752245,18.3349521 5.68619693,18.3406656 5.6948714,18.3492358 C5.70354588,18.357806 5.71511186,18.3663762 5.72378633,18.3749464 L5.76715873,18.412084 L5.76715873,18.412084 C5.79029067,18.4320811 5.80185664,18.4406513 5.81342261,18.4492215 C5.82209709,18.4577917 5.83077157,18.4635052 5.83944605,18.4720754 L5.86546949,18.4949293 L5.86546949,18.4949293 C5.88570994,18.5120697 5.90595039,18.5263534 5.92619084,18.5434938 C5.96378025,18.5720611 5.9811292,18.5834881 5.99847816,18.594915 C6.01871861,18.6120554 6.03317608,18.6234824 6.05052503,18.6320526 L6.11413788,18.6749036 L6.11413788,18.6749036 C6.13437833,18.6891873 6.15172729,18.7006142 6.17196774,18.7120411 C6.19509968,18.7263248 6.22112312,18.7434652 6.24425506,18.7577489 C6.26449551,18.7720326 6.28473596,18.7834595 6.3078679,18.7948864 C6.33099985,18.8091701 6.35413179,18.8234538 6.37726373,18.8348807 C6.39461269,18.8434509 6.41196165,18.8548779 6.42641911,18.8634481 C6.47846599,18.8920154 6.53051286,18.917726 6.58255973,18.9434367 C6.59990869,18.9520069 6.62014914,18.9605771 6.6374981,18.972004 C6.65484706,18.9805742 6.67219601,18.9891444 6.68954497,18.9948579 C6.71267691,19.0062848 6.73870035,19.0177118 6.76183229,19.026282 L6.83122812,19.0548493 L6.83122812,19.0548493 C6.8427941,19.0605628 6.85436007,19.0634195 6.86303455,19.069133 C6.89194947,19.0805599 6.91218993,19.0891301 6.93532187,19.0977003 C6.96712829,19.111984 6.98736874,19.1176975 7.01050068,19.1262677 C7.02784964,19.1319811 7.0451986,19.1405513 7.06543905,19.1462648 C7.11459443,19.166262 7.13483488,19.1719754 7.15796682,19.1776889 C7.18109877,19.1862591 7.2071222,19.1919726 7.23314564,19.2005428 C7.25627758,19.209113 7.28230102,19.2148265 7.30832446,19.2233967 C7.66108659,19.3205256 8.03408918,19.3748036 8.41865774,19.3748036 C8.52853447,19.3748036 8.64130269,19.3690901 8.74828793,19.3605199 C8.84081571,19.3519497 8.93334348,19.3433795 9.02587125,19.3290958 C10.1419875,19.166262 11.1135291,18.5577775 11.7467661,17.6950436 C12.1602496,17.1294101 12.4320499,16.4552207 12.5043372,15.7238966 C12.5766246,16.4552207 12.8484249,17.1294101 13.2619084,17.6950436 C13.8922538,18.5577775 14.8464465,19.1605485 15.9509968,19.3319526 C15.7428093,19.7604628 15.45366,20.1432652 15.1037894,20.4603628 L15.0170446,20.4346522 L15.0170446,20.4346522 C15.0025871,20.4289387 14.9852382,20.426082 14.9707807,20.4203685 C14.9245168,20.4060848 14.8811444,20.3918012 14.8348805,20.3775175 C14.8175316,20.371804 14.7972911,20.3660906 14.7799422,20.3575204 C14.7336783,20.3403799 14.7192208,20.3375232 14.7047634,20.3318097 L14.5746462,20.2832453 L14.5746462,20.2832453 C14.5601887,20.2775318 14.5428398,20.2718183 14.5283823,20.2661048 C14.4821184,20.2461077 14.4358545,20.2261106 14.3895906,20.2061134 C14.3751332,20.2003999 14.3606757,20.1946865 14.3462182,20.1861163 L14.2623649,20.1489787 L14.2623649,20.1489787 C14.1495967,20.0975575 14.0426115,20.0404228 13.9356262,19.9804314 C13.9211688,19.9747179 13.9096028,19.9661477 13.8980368,19.9575775 C13.8777964,19.9461505 13.8604474,19.9375803 13.8430985,19.9261534 C13.817075,19.9118697 13.7910516,19.8975861 13.7679196,19.8804457 C13.7390047,19.8633052 13.7071983,19.8433081 13.6782834,19.823311 C13.6580429,19.811884 13.640694,19.7976003 13.6204535,19.7861734 C13.6002131,19.7747465 13.5886471,19.7661763 13.5799726,19.7576061 C13.5684066,19.7518926 13.5568407,19.7433224 13.5452747,19.7347522 C13.5308172,19.7233252 13.5163598,19.714755 13.4990108,19.7033281 C13.4325065,19.6576203 13.3688936,19.6119126 13.3052808,19.5633481 L13.2272105,19.5033567 L13.2272105,19.5033567 C13.2098615,19.489073 13.1925126,19.4747893 13.1751636,19.4605056 L13.0710699,19.3748036 L13.0710699,19.3748036 C13.0595039,19.3633767 13.0479379,19.3548065 13.0334804,19.3433795 C13.01324,19.3262391 12.9929995,19.3090987 12.9727591,19.2891016 C12.9554101,19.2748179 12.9409527,19.2605342 12.9236037,19.2433938 C12.9149292,19.2348236 12.9033633,19.2262534 12.8946888,19.2176832 L12.8126427,19.1401943 L12.8126427,19.1401943 L12.6951758,19.0234252 L12.6951758,19.0234252 L12.6431289,18.9691473 L12.6431289,18.9691473 C12.6373459,18.9634338 12.6315629,18.9548636 12.6228884,18.9491501 C12.6055395,18.929153 12.585299,18.9091558 12.5679501,18.8891587 C12.5477096,18.8663048 12.5274692,18.8434509 12.5072287,18.8205971 C11.8248364,19.5976289 10.9169076,20.1804028 9.88175316,20.4660763 C9.7834424,20.4946436 9.68224015,20.5174975 9.58103789,20.5403514 C9.20803531,20.62034 8.82057525,20.663191 8.42154923,20.663191 C8.27697459,20.663191 8.13529143,20.6574775 7.99360828,20.6460506 C7.88373155,20.6374804 7.77385482,20.6260534 7.66397809,20.6117697 C5.03561102,20.2489644 3.01445746,18.0178546 3.01445746,15.321097 C3.01445746,14.6183402 3.15324912,13.9441508 3.40191752,13.3299529 Z M16.6015827,6.87944579 C16.9948257,6.87944579 17.3736113,6.93658049 17.729265,7.04513641 C17.7321564,7.05942008 17.7350479,7.07370376 17.7408309,7.08798743 C17.7466139,7.10798457 17.7495054,7.12512498 17.7552884,7.14512213 C17.7610714,7.167976 17.7668544,7.19082988 17.7697459,7.21368376 L17.7813118,7.26796172 C17.8015523,7.3650907 17.8189012,7.46221968 17.8333587,7.55934866 C17.8362502,7.57934581 17.8391417,7.59934295 17.8420332,7.61934009 C17.8449247,7.63362377 17.8449247,7.65076418 17.8478162,7.66504785 C17.8564906,7.72218255 17.8593821,7.73932295 17.8593821,7.7593201 C17.8651651,7.81074132 17.8680566,7.85644908 17.8738396,7.90501357 C17.8767311,7.92215398 17.8767311,7.93929439 17.8767311,7.9564348 C17.8796226,7.97928867 17.8796226,8.00214255 17.8825141,8.02785316 C17.8854056,8.07641765 17.8882971,8.0964148 17.8882971,8.11926868 L17.8882971,8.1621197 C17.8911886,8.22211113 17.8911886,8.28210256 17.8911886,8.34209399 L17.8911886,8.4335095 C17.8911886,8.47064705 17.8882971,8.50207113 17.8882971,8.53349521 C17.8882971,8.55634909 17.8882971,8.57634624 17.8854056,8.59634338 C17.8854056,8.62205399 17.8825141,8.64490787 17.8825141,8.67061848 L17.8767311,8.75632053 L17.8709481,8.83059563 C17.8651651,8.89915726 17.8622736,8.92772461 17.8593821,8.95914869 L17.8535991,9.01342665 C17.8507077,9.04485074 17.8449247,9.07627482 17.8420332,9.1076989 C17.8391417,9.13055278 17.8362502,9.15340666 17.8304672,9.17626053 L17.8189012,9.24482217 C17.8131182,9.27338952 17.8102268,9.29910013 17.8044438,9.32481074 C17.7928778,9.3790887 17.7870948,9.41336952 17.7784203,9.4447936 C17.7697459,9.47907442 17.7639629,9.51621197 17.7552884,9.55049279 C17.7466139,9.58191687 17.7408309,9.61334095 17.7321564,9.64476503 C17.7263735,9.66761891 17.7205905,9.68761605 17.7148075,9.7076132 C17.70035,9.76474789 17.6916755,9.78760177 17.6858926,9.81331238 L17.6736037,9.85152121 L17.6656521,9.87901728 C17.6511946,9.93043851 17.6425202,9.95043565 17.6367372,9.97328953 C17.6280627,10.0047136 17.6164967,10.0361377 17.6049308,10.0675618 C17.706133,10.0875589 17.8073353,10.1075561 17.9085375,10.1332667 C17.9316695,10.1389801 17.9548014,10.1446936 17.9779333,10.1504071 L18.0155228,10.1589773 C18.0299802,10.161834 18.0415462,10.1646908 18.0560037,10.1704042 C18.0762441,10.1761177 18.0964846,10.1818312 18.116725,10.1875446 C18.1369655,10.1932581 18.1543144,10.1989716 18.1716634,10.204685 C18.1861208,10.2075418 18.1976868,10.2132552 18.2121443,10.216112 C18.2294932,10.2218255 18.2439507,10.2246822 18.2612996,10.2303957 C18.2844316,10.2361091 18.304672,10.2446793 18.327804,10.2532495 L18.4029828,10.2789601 C18.4261147,10.2846736 18.4463552,10.2932438 18.4665956,10.301814 C18.5128595,10.3189544 18.5359915,10.3303814 18.5620149,10.3389516 C18.5967128,10.3532353 18.6314107,10.3675189 18.6661087,10.3818026 C18.6950236,10.3932295 18.7239385,10.4046565 18.749962,10.4160834 C18.7788769,10.4275104 18.8077918,10.441794 18.8367067,10.453221 C18.8511642,10.4589344 18.8627302,10.4646479 18.8771876,10.4732181 C18.8974281,10.4817883 18.9176685,10.4932153 18.9408005,10.5017855 C18.949475,10.5046422 18.9581494,10.5103557 18.9639324,10.5132124 C18.9841729,10.5217826 19.0044133,10.5332095 19.0246538,10.5417797 L19.0767007,10.5674904 C19.0882666,10.5732038 19.0998326,10.5789173 19.1113986,10.5846308 C19.1287475,10.593201 19.148988,10.6046279 19.1663369,10.6131981 C19.1807944,10.6217683 19.1952519,10.6274818 19.2097093,10.636052 C19.2241668,10.6446222 19.2386243,10.6531924 19.2530817,10.6617626 C19.2675392,10.6674761 19.2791052,10.6760463 19.2935626,10.6846165 L19.3513925,10.7188973 C19.3918734,10.7417512 19.4323543,10.7646051 19.4699437,10.7903157 L19.5219906,10.8245965 C19.6145183,10.8817312 19.7041546,10.9445793 19.7908994,11.0074275 C19.8111399,11.0217112 19.8313803,11.0359949 19.8516208,11.0502785 C19.8776442,11.0702757 19.9007761,11.0874161 19.9267996,11.1074132 C19.9441485,11.1188402 19.958606,11.1331238 19.975955,11.1445508 L20.0077614,11.1702614 C20.0280018,11.1845451 20.0453508,11.2016855 20.0655912,11.2159691 C20.1031806,11.2473932 20.1263126,11.2645336 20.146553,11.2845308 C20.169685,11.3045279 20.1899254,11.3216683 20.2130574,11.3416655 L20.2795617,11.4016569 C20.2940192,11.4130838 20.3084766,11.4273675 20.3200426,11.4416512 C20.3316086,11.4530781 20.346066,11.4645051 20.357632,11.475932 C20.3836555,11.5016426 20.4096789,11.5244965 20.4328108,11.5473504 C20.4559428,11.5702043 20.4761832,11.5902014 20.4964237,11.6130553 C20.5224471,11.6416226 20.5484706,11.6673332 20.5716025,11.6930439 C20.9330391,12.078703 21.2366459,12.5186402 21.4679653,12.9985716 C21.8091615,13.7098986 22,14.4955006 22,15.3239537 C22,18.034995 19.958606,20.2718183 17.3099985,20.62034 C17.5933648,20.1689759 17.8131182,19.6776175 17.9576929,19.1519783 C19.553797,18.5977717 20.6988282,17.0922725 20.6988282,15.3239537 C20.6988282,14.9754321 20.6554558,14.6383374 20.5716025,14.3155264 C20.4501598,13.8413084 20.2419723,13.4013712 19.9672805,13.0099986 C19.9152336,12.9357235 19.8574037,12.8614484 19.7995739,12.79003 C19.125856,11.9615769 18.1311825,11.3959434 17.0006087,11.2873875 C16.8676001,11.2731038 16.7316999,11.2673904 16.5929082,11.2673904 C15.9914777,11.2673904 15.4189621,11.3959434 14.9042764,11.6244822 C15.482575,11.2073989 15.9452138,10.6446222 16.2372546,9.99328667 C16.4627911,9.49050136 16.5900167,8.93343808 16.5900167,8.34780746 C16.5900167,7.8335952 16.4945975,7.34223682 16.3182164,6.89087273 C16.4107442,6.88515926 16.5061634,6.87944579 16.6015827,6.87944579 Z M7.66976107,5.39965719 C7.38639476,5.85102128 7.1666413,6.34809313 7.02206666,6.87373232 C5.43752853,7.43650907 4.30117182,8.93343808 4.30117182,10.6931867 C4.30117182,10.7360377 4.30117182,10.7788887 4.30406331,10.8217398 C4.3069548,10.9102985 4.30984629,10.9617198 4.31273779,11.013141 C4.31562928,11.055992 4.31562928,11.0617055 4.31562928,11.0645622 C4.32141227,11.1216969 4.32141227,11.1388373 4.32430376,11.1588345 C4.32719525,11.1788316 4.33008674,11.195972 4.33008674,11.2159691 C4.33297824,11.238823 4.33586973,11.2616769 4.33876122,11.2873875 C4.34454421,11.3273818 4.34454421,11.3416655 4.3474357,11.3559492 C4.3503272,11.3702328 4.35321869,11.3845165 4.35321869,11.3988002 C4.35611018,11.4273675 4.35900167,11.433081 4.35900167,11.4416512 C4.36767615,11.4959292 4.37345914,11.518783 4.37924212,11.5416369 C4.38213362,11.5616341 4.3879166,11.5787745 4.3908081,11.5987716 C4.39659108,11.6187687 4.39948257,11.6416226 4.40526556,11.6616198 C4.41104855,11.6816169 4.41394004,11.7016141 4.41972303,11.7244679 C4.54405722,12.1958292 4.75224471,12.6357663 5.02982803,13.0242822 C5.0818749,13.0985573 5.13970476,13.1728325 5.19753462,13.2442508 C5.86546949,14.061277 6.84857708,14.6183402 7.96469335,14.7326096 C8.1063765,14.7468933 8.25095115,14.7554635 8.3955258,14.7554635 C8.99117334,14.7468933 9.54633998,14.6269104 10.0494597,14.4097986 C9.47983564,14.8240251 9.02587125,15.3782317 8.73383047,16.0238537 C8.50540253,16.5294958 8.37817684,17.0894158 8.37817684,17.6779032 C8.37817684,18.1835452 8.47070461,18.6663334 8.64130269,19.111984 C8.56901537,19.1148407 8.49961954,19.1176975 8.42733222,19.1176975 C8.00806574,19.1176975 7.60325673,19.0519926 7.22736265,18.929153 C7.12905189,18.5292101 7.07700502,18.1092701 7.07700502,17.6779032 L7.07700502,17.5864876 C7.07700502,17.5493501 7.07700502,17.517926 7.07989651,17.4893587 C7.07989651,17.4579346 7.08278801,17.4236538 7.0856795,17.3922297 C7.0856795,17.3665191 7.08857099,17.3408085 7.09146249,17.3150978 C7.09435398,17.2779603 7.09435398,17.2722468 7.09435398,17.2693901 L7.10013697,17.2036852 L7.10881144,17.1179831 C7.11459443,17.0751321 7.11748592,17.0465648 7.12037742,17.0208542 C7.12905189,16.9522925 7.13772637,16.8951578 7.14640085,16.8408799 C7.15507533,16.8008856 7.15796682,16.7723182 7.16374981,16.7437509 C7.17242429,16.7008999 7.17531578,16.6723325 7.18109877,16.6466219 C7.2071222,16.5237823 7.23603713,16.4009427 7.26784356,16.2781031 C7.27362654,16.2523925 7.28230102,16.2266819 7.28808401,16.203828 C7.29964998,16.1638337 7.30543296,16.1466933 7.30832446,16.1295529 C7.31989043,16.0952721 7.32856491,16.0609913 7.34013088,16.0295672 C7.34880536,15.9981431 7.36037133,15.9695758 7.3719373,15.9381517 C6.33099985,15.7381803 5.39704763,15.2439651 4.66260843,14.5469219 C4.58742961,14.4755035 4.5122508,14.4012284 4.44285497,14.3240966 C4.08141835,13.9384374 3.7778116,13.5013569 3.54070918,13.0242822 C3.4915538,12.9271533 3.4481814,12.8271675 3.40480901,12.7243251 C3.14457465,12.0987002 3,11.4130838 3,10.6931867 C3,7.99071561 5.03271953,5.7538923 7.66976107,5.39965719 Z M12.4985543,3 C14.2247755,3.00571347 15.7746157,3.81988287 16.7635063,5.08255963 C16.708568,5.08255963 16.6536296,5.0797029 16.6015827,5.0797029 C16.1013544,5.0797029 15.6155836,5.14255106 15.1529448,5.26539066 C14.4358545,4.65690616 13.5047938,4.29124411 12.4840968,4.29124411 L12.397352,4.29124411 C12.3308477,4.29124411 12.2643433,4.29410084 12.197839,4.29981431 C12.1833815,4.29981431 12.1689241,4.30267105 12.1573581,4.30267105 C12.1082027,4.30552778 12.0619388,4.31124125 12.0127834,4.31695472 C11.98676,4.31981146 11.9578451,4.32266819 11.9318216,4.32552493 C11.8884492,4.33123839 11.8624258,4.33409513 11.8392939,4.3398086 C11.8248364,4.34266533 11.8103789,4.34552207 11.7959215,4.34552207 C11.781464,4.3483788 11.7670065,4.35123554 11.7525491,4.35409227 C11.7380916,4.35694901 11.7236342,4.35980574 11.7091767,4.36266248 L11.6455638,4.37408942 C11.6166489,4.37980289 11.587734,4.38551635 11.5588191,4.39122982 C11.5270126,4.39980003 11.4923147,4.4055135 11.4605083,4.4140837 C11.4315934,4.41979717 11.4055699,4.42836738 11.376655,4.43693758 C11.3621975,4.43979432 11.3477401,4.44550778 11.3332826,4.44836452 C11.3188251,4.45122125 11.3043677,4.45693472 11.2899102,4.46264819 L11.268224,4.46871875 L11.2465378,4.47693187 C11.2320804,4.48264534 11.2176229,4.48550207 11.2031654,4.49121554 C11.1742505,4.49978574 11.1453356,4.51121268 11.1164206,4.51978289 C11.0585908,4.53978003 11.0036524,4.55977717 10.948714,4.58263105 C10.9342566,4.58834452 10.9197991,4.59405799 10.9082331,4.59977146 C10.8937757,4.60548493 10.8822097,4.6111984 10.8677522,4.61691187 C10.8359458,4.63119554 10.8099224,4.63976575 10.7867904,4.65119269 C10.7318521,4.6769033 10.6769137,4.70261391 10.6219753,4.72832453 L10.543905,4.76831881 C10.5034241,4.78831595 10.4629432,4.81116983 10.4253538,4.83402371 C10.4080049,4.84545065 10.3906559,4.85402085 10.373307,4.86544779 C10.361741,4.87116126 10.350175,4.87973147 10.338609,4.88830167 C10.2865622,4.91972575 10.2345153,4.95114984 10.1853599,4.98543065 C10.1709025,4.99400086 10.1593365,5.00257106 10.144879,5.013998 C10.1188556,5.03113841 10.0928321,5.05113555 10.0668087,5.06827596 C10.0523512,5.0797029 10.0378938,5.0882731 10.0234363,5.09970004 L9.99596713,5.12112555 L9.95078755,5.15683474 L9.93090854,5.17111841 C9.89042764,5.20254249 9.87886166,5.2111127 9.86729569,5.22253964 C9.81524882,5.26539066 9.76320195,5.31109841 9.71404657,5.35680617 L9.67067417,5.39680046 C9.63308477,5.43108127 9.61284432,5.45107842 9.59260387,5.47107556 C9.2514077,5.80817026 8.96804139,6.20525639 8.7627454,6.64233681 C8.7222645,6.72803885 8.68467509,6.81374089 8.65286867,6.90229967 C8.47937909,7.35080703 8.38685132,7.83645194 8.38685132,8.34209399 C8.38685132,8.92772461 8.51118551,9.48193115 8.73672196,9.98471647 C9.02008827,10.6160548 9.45959519,11.1616912 10.0118703,11.573061 C9.52609953,11.3730896 8.99117334,11.2616769 8.43022371,11.2616769 C8.27986608,11.2616769 8.12950845,11.2702471 7.98204231,11.2845308 C6.86303455,11.4045136 5.87703546,11.9701471 5.21199209,12.7986002 C4.94886623,12.4100843 4.7551362,11.9672904 4.65393395,11.4959292 C4.67995739,11.4702185 4.70308933,11.4502214 4.72332978,11.4302243 C4.74067874,11.4130838 4.7580277,11.3988002 4.77537665,11.3816598 C4.78405113,11.3730896 4.79272561,11.3673761 4.80140009,11.3588059 C4.81296606,11.3473789 4.82453203,11.335952 4.83609801,11.3273818 C4.85344696,11.3130981 4.87079592,11.2988145 4.88814488,11.2845308 C4.90838533,11.2673904 4.93151727,11.2473932 4.95175772,11.2302528 C4.96910668,11.2159691 4.98645564,11.2016855 5.0038046,11.1874018 C5.02693654,11.1674047 5.05006848,11.1502642 5.07609192,11.1302671 C5.08765789,11.1216969 5.10211536,11.11027 5.11657282,11.098843 L5.16861969,11.0588487 C5.19175164,11.0417083 5.21488358,11.0245679 5.23801552,11.0074275 C5.26403896,10.9874304 5.29295389,10.97029 5.31897732,10.9502928 C5.34789225,10.9302957 5.37391569,10.9102985 5.40283062,10.8931581 C5.48668391,10.8360234 5.57632019,10.7817455 5.66306498,10.7303242 C5.68041394,10.721754 5.6948714,10.7103271 5.71222036,10.7017569 C5.75559276,10.6760463 5.79896515,10.6503357 5.84522904,10.6274818 C5.86546949,10.6160548 5.88860143,10.6046279 5.90884188,10.593201 C5.94643129,10.5732038 5.96956323,10.5617769 5.99269518,10.55035 C6.00426115,10.5446365 6.01582712,10.538923 6.02739309,10.5332095 C6.04185056,10.5246393 6.05919951,10.5160691 6.07654847,10.5103557 C6.09100594,10.5017855 6.1054634,10.496072 6.12281236,10.4875018 C6.14016131,10.4789316 6.15751027,10.4703614 6.17775072,10.4617912 C6.2297976,10.4389373 6.25582103,10.4275104 6.28184447,10.4160834 C6.3107594,10.4046565 6.33967433,10.3903728 6.36858926,10.3789459 L6.45244255,10.344665 C6.47557449,10.3360948 6.49870644,10.3275246 6.52183838,10.3189544 C6.69243646,10.2561063 6.86881753,10.1989716 7.04809009,10.1532638 C7.06833054,10.1475503 7.08857099,10.1418369 7.10881144,10.1389801 C7.21868818,10.1132695 7.30254147,10.0961291 7.38350327,10.0789887 C7.19555623,9.53620911 7.09146249,8.95057849 7.09146249,8.34209399 C7.09146249,7.90501357 7.14350936,7.47936009 7.24471161,7.07370376 C7.27073505,6.97371804 7.29675848,6.87087559 7.32856491,6.77374661 C7.48759702,6.26524782 7.71891645,5.78817312 8.01384873,5.35680617 C8.07457008,5.26824739 8.13818292,5.18254535 8.20179577,5.09684331 C9.19068635,3.82273961 10.7463095,3 12.4985543,3 Z M16.5929082,5.34823597 C16.7201339,5.34823597 16.8502511,5.35394944 16.9745853,5.36251964 C19.7822249,5.56249107 21.9971085,7.87644622 21.9971085,10.6989002 C21.9971085,11.4073704 21.8583168,12.0815598 21.6038655,12.6986145 C21.3465226,12.218683 21.0168924,11.7787459 20.6352153,11.3959434 C20.6409983,11.3588059 20.6467813,11.3216683 20.6525643,11.2845308 C20.6554558,11.2759606 20.6554558,11.2673904 20.6554558,11.2588202 L20.6612388,11.2102557 C20.6641303,11.1902585 20.6670218,11.1674047 20.6699133,11.1474075 C20.6728047,11.1274104 20.6756962,11.1045565 20.6756962,11.0845593 C20.6756962,11.0759891 20.6785877,11.0645622 20.6785877,11.055992 C20.6814792,11.0188544 20.6814792,10.9902871 20.6843707,10.9645765 C20.6872622,10.9274389 20.6901537,10.9102985 20.6901537,10.8931581 C20.6901537,10.8788744 20.6930452,10.861734 20.6930452,10.8445936 L20.6930452,10.6989002 C20.6930452,8.82202542 19.4034394,7.24225111 17.6511946,6.77946008 C17.31289,6.6909013 16.9572363,6.64233681 16.5871252,6.64233681 C16.4598996,6.64233681 16.3355654,6.64805028 16.2141227,6.65947722 C16.1244864,6.66804742 16.0377416,6.67947436 15.9509968,6.6909013 C14.843555,6.85944865 13.8835794,7.46793315 13.2532339,8.32781031 C12.8281844,8.90772747 12.5563841,9.60477075 12.4956628,10.356092 C12.4349414,9.60191401 12.1631411,8.90487073 11.7409831,8.32495358 C11.1106377,7.45650621 10.144879,6.84516498 9.02876275,6.67661763 C9.23984173,6.24810741 9.52899102,5.86530496 9.87886166,5.54535066 C9.91066809,5.55392087 9.94247451,5.56249107 9.97428093,5.57391801 C10.0147618,5.58534495 10.0552427,5.59962862 10.0957236,5.61105556 C10.1159641,5.61676903 10.1362045,5.62533924 10.1593365,5.63105271 C10.2056004,5.64533638 10.2229493,5.65390658 10.2431898,5.65962005 L10.3010196,5.6796172 C10.3472835,5.69675761 10.3704155,5.70818455 10.3964389,5.71675475 C10.4253538,5.72818169 10.4455943,5.73675189 10.4687262,5.7453221 C10.4947497,5.75674904 10.5207731,5.76817597 10.5467965,5.77674618 C10.5641455,5.78531638 10.5814944,5.79102985 10.6017349,5.79960006 C10.6161924,5.80531353 10.6277583,5.811027 10.6422158,5.81674047 C10.7289606,5.85387802 10.8128139,5.89672904 10.8966672,5.93958006 L10.9400396,5.96243394 L10.983412,5.98528782 C11.0123269,5.99957149 11.0412418,6.0167119 11.0701567,6.03385231 C11.0961802,6.04813598 11.1250951,6.06527639 11.1511186,6.07956006 C11.1858165,6.09955721 11.2118399,6.11384088 11.2349718,6.12812455 C11.2696698,6.1481217 11.2899102,6.15954864 11.3072592,6.17383231 L11.3390656,6.19382945 C11.3564145,6.20525639 11.3737635,6.21668333 11.3911125,6.22525354 C11.3997869,6.230967 11.4113529,6.23668047 11.4200274,6.24525068 C11.4373764,6.25667762 11.4547253,6.26810456 11.4749658,6.28238823 C11.5154467,6.31095558 11.5356871,6.32523925 11.5559276,6.33952293 C11.5732765,6.35094986 11.5906255,6.3623768 11.6050829,6.37380374 C11.6224319,6.38523068 11.6397809,6.39951436 11.6571298,6.41094129 C11.6802618,6.4280817 11.7033937,6.44522211 11.7294171,6.46521925 C11.775681,6.50235681 11.8219449,6.53949436 11.8682088,6.57663191 C11.8913407,6.59662905 11.9144727,6.61376946 11.9376046,6.6337666 C11.9607366,6.65376375 11.9838685,6.67090416 12.004109,6.6909013 L12.0706133,6.75089273 C12.0937452,6.77088987 12.1139857,6.79088702 12.1371176,6.81088416 C12.1602496,6.8308813 12.18049,6.85087845 12.2007305,6.87373232 C12.2209709,6.89372947 12.2441029,6.91658335 12.2643433,6.93658049 C12.2845838,6.95657763 12.3048242,6.97943151 12.3250647,6.99942865 C12.385786,7.06227682 12.4465074,7.12798172 12.5043372,7.19368662 C13.1838381,6.4195115 14.0859839,5.83959434 15.1124639,5.55106413 C15.2049916,5.52535352 15.3004109,5.49964291 15.3987217,5.47964576 C15.7832902,5.39394372 16.1823162,5.34823597 16.5929082,5.34823597 Z" id="Combined-Shape-Copy-4" fill-rule="nonzero" transform="translate(12.500000, 13.000000) rotate(-346.000000) translate(-12.500000, -13.000000) "></path>
            </g>
        </g>
    </g>
</svg>