<svg width="22" height="20" viewBox="0 0 22 20" fill="none" xmlns="http://www.w3.org/2000/svg">
<path fill-rule="evenodd" clip-rule="evenodd" d="M0.946813 0.5C0.700045 0.5 0.5 0.702538 0.5 0.952381C0.5 1.20222 0.700045 1.40476 0.946813 1.40476H2.83567L5.40004 11.3573L5.38479 11.3577C5.3697 11.3582 5.34964 11.3592 5.3253 11.3609C5.27676 11.3645 5.21035 11.3713 5.13183 11.3845C4.9769 11.4106 4.7635 11.4638 4.5447 11.5746C4.32415 11.6862 4.09001 11.8608 3.91202 12.1312C3.73218 12.4044 3.62762 12.7483 3.62769 13.1667C3.62776 13.5852 3.73238 13.929 3.91223 14.2022C4.09021 14.4725 4.32431 14.6471 4.54484 14.7588C4.76361 14.8695 4.97697 14.9227 5.13187 14.9488C5.21038 14.9621 5.27678 14.9689 5.3253 14.9724C5.34964 14.9741 5.3697 14.9751 5.38479 14.9756L5.40367 14.9761L5.41021 14.9762L5.41272 14.9762L5.41379 14.9762C5.41379 14.9762 5.41473 14.9762 5.41473 14.5238V14.9762H19.713C19.9597 14.9762 20.1598 14.7737 20.1598 14.5238C20.1598 14.274 19.9597 14.0714 19.713 14.0714H5.41747L5.41457 14.0713C5.41002 14.0712 5.4013 14.0708 5.38899 14.0699C5.36423 14.0681 5.32594 14.0643 5.27882 14.0564C5.18247 14.0401 5.06081 14.0084 4.94456 13.9496C4.83005 13.8916 4.72911 13.8117 4.65579 13.7003C4.58432 13.5918 4.52136 13.4267 4.52132 13.1666C4.52128 12.9065 4.5842 12.7415 4.65562 12.633C4.72891 12.5216 4.82984 12.4418 4.94437 12.3838C5.06065 12.3249 5.18234 12.2932 5.27874 12.277C5.32588 12.269 5.36419 12.2652 5.38896 12.2634C5.40127 12.2625 5.41001 12.2621 5.41456 12.262L5.41746 12.2619H18.3723C18.5646 12.2619 18.7354 12.1373 18.7962 11.9526L21.4771 3.80972C21.5225 3.67177 21.4996 3.52012 21.4157 3.40215C21.3317 3.28419 21.1968 3.21429 21.0532 3.21429H7.20198C6.95521 3.21429 6.75517 3.41682 6.75517 3.66667C6.75517 3.91651 6.95521 4.11905 7.20198 4.11905H20.4333L18.0503 11.3571H6.30868C6.30865 11.3194 6.30394 11.2811 6.2941 11.243L3.61322 0.83819C3.5619 0.638993 3.38421 0.5 3.18088 0.5H0.946813ZM7.64901 18.5952C8.14255 18.5952 8.54264 18.1902 8.54264 17.6905C8.54264 17.1908 8.14255 16.7857 7.64901 16.7857C7.15547 16.7857 6.75538 17.1908 6.75538 17.6905C6.75538 18.1902 7.15547 18.5952 7.64901 18.5952ZM7.64901 19.5C8.63608 19.5 9.43626 18.6898 9.43626 17.6905C9.43626 16.6911 8.63608 15.881 7.64901 15.881C6.66194 15.881 5.86176 16.6911 5.86176 17.6905C5.86176 18.6898 6.66194 19.5 7.64901 19.5ZM17.4789 17.6905C17.4789 18.1902 17.0788 18.5952 16.5853 18.5952C16.0917 18.5952 15.6916 18.1902 15.6916 17.6905C15.6916 17.1908 16.0917 16.7857 16.5853 16.7857C17.0788 16.7857 17.4789 17.1908 17.4789 17.6905ZM18.3725 17.6905C18.3725 18.6898 17.5723 19.5 16.5853 19.5C15.5982 19.5 14.798 18.6898 14.798 17.6905C14.798 16.6911 15.5982 15.881 16.5853 15.881C17.5723 15.881 18.3725 16.6911 18.3725 17.6905Z" fill="#616F82"/>
<path d="M5.41459 11.4138L5.41473 11.8095M0.5 0.952381C0.5 0.702538 0.700045 0.5 0.946813 0.5H3.18088C3.38421 0.5 3.5619 0.638993 3.61322 0.83819L6.2941 11.243C6.30394 11.2811 6.30865 11.3194 6.30868 11.3571H18.0503L20.4333 4.11905H7.20198C6.95521 4.11905 6.75517 3.91651 6.75517 3.66667C6.75517 3.41682 6.95521 3.21429 7.20198 3.21429H21.0532C21.1968 3.21429 21.3317 3.28419 21.4157 3.40215C21.4996 3.52012 21.5225 3.67177 21.4771 3.80972L18.7962 11.9526C18.7354 12.1373 18.5646 12.2619 18.3723 12.2619H5.41746L5.41456 12.262C5.41001 12.2621 5.40127 12.2625 5.38896 12.2634C5.36419 12.2652 5.32588 12.269 5.27874 12.277C5.18234 12.2932 5.06065 12.3249 4.94437 12.3838C4.82984 12.4418 4.72891 12.5216 4.65562 12.633C4.5842 12.7415 4.52128 12.9065 4.52132 13.1666C4.52136 13.4267 4.58432 13.5918 4.65579 13.7003C4.72911 13.8117 4.83005 13.8916 4.94456 13.9496C5.06081 14.0084 5.18247 14.0401 5.27882 14.0564C5.32594 14.0643 5.36423 14.0681 5.38899 14.0699C5.4013 14.0708 5.41002 14.0712 5.41457 14.0713L5.41747 14.0714H19.713C19.9597 14.0714 20.1598 14.274 20.1598 14.5238C20.1598 14.7737 19.9597 14.9762 19.713 14.9762H5.41473V14.5238C5.41473 14.9762 5.41379 14.9762 5.41379 14.9762L5.41272 14.9762L5.41021 14.9762L5.40367 14.9761L5.38479 14.9756C5.3697 14.9751 5.34964 14.9741 5.3253 14.9724C5.27678 14.9689 5.21038 14.9621 5.13187 14.9488C4.97697 14.9227 4.76361 14.8695 4.54484 14.7588C4.32431 14.6471 4.09021 14.4725 3.91223 14.2022C3.73238 13.929 3.62776 13.5852 3.62769 13.1667C3.62762 12.7483 3.73218 12.4044 3.91202 12.1312C4.09001 11.8608 4.32415 11.6862 4.5447 11.5746C4.7635 11.4638 4.9769 11.4106 5.13183 11.3845C5.21035 11.3713 5.27676 11.3645 5.3253 11.3609C5.34964 11.3592 5.3697 11.3582 5.38479 11.3577L5.40004 11.3573L2.83567 1.40476H0.946813C0.700045 1.40476 0.5 1.20222 0.5 0.952381ZM8.54264 17.6905C8.54264 18.1902 8.14255 18.5952 7.64901 18.5952C7.15547 18.5952 6.75538 18.1902 6.75538 17.6905C6.75538 17.1908 7.15547 16.7857 7.64901 16.7857C8.14255 16.7857 8.54264 17.1908 8.54264 17.6905ZM9.43626 17.6905C9.43626 18.6898 8.63608 19.5 7.64901 19.5C6.66194 19.5 5.86176 18.6898 5.86176 17.6905C5.86176 16.6911 6.66194 15.881 7.64901 15.881C8.63608 15.881 9.43626 16.6911 9.43626 17.6905ZM16.5853 18.5952C17.0788 18.5952 17.4789 18.1902 17.4789 17.6905C17.4789 17.1908 17.0788 16.7857 16.5853 16.7857C16.0917 16.7857 15.6916 17.1908 15.6916 17.6905C15.6916 18.1902 16.0917 18.5952 16.5853 18.5952ZM16.5853 19.5C17.5723 19.5 18.3725 18.6898 18.3725 17.6905C18.3725 16.6911 17.5723 15.881 16.5853 15.881C15.5982 15.881 14.798 16.6911 14.798 17.6905C14.798 18.6898 15.5982 19.5 16.5853 19.5Z" stroke="#616F82" stroke-width="0.3" stroke-linecap="round"/>
</svg>
