<svg width="20" height="20" viewBox="0 0 20 20" fill="none" xmlns="http://www.w3.org/2000/svg">
<rect opacity="0.01" width="20" height="20" fill="#D8D8D8"/>
<path fill-rule="evenodd" clip-rule="evenodd" d="M2.81726 5.23338C2.81726 4.23603 3.63782 3.41675 4.6634 3.41675C5.68897 3.41675 6.50953 4.23603 6.50953 5.23338C6.50953 6.23073 5.68897 7.05001 4.6634 7.05001C3.63782 7.05001 2.81726 6.23073 2.81726 5.23338ZM4.6634 2.41675C3.0975 2.41675 1.81726 3.67185 1.81726 5.23338C1.81726 6.26744 2.37868 7.16713 3.21269 7.65695C2.35078 8.09635 1.72985 8.93679 1.6061 9.93335L1.5835 9.95468V10.1703V10.2995V16.2938V16.7938H2.0835H7.1732H7.6732V16.2938V12.4815L7.7453 12.5212L7.85789 12.5832H7.9864H9.22981H9.74699L9.74321 12.4712C9.81884 12.4415 9.89169 12.4062 9.96123 12.3659L10.0082 12.5832H11.989H12.1175L12.2301 12.5212L12.3022 12.4815V16.2938V16.7938H12.8022H17.8919H18.3919V16.2938V10.2995V10.1703V9.95469L18.3693 9.93335C18.2455 8.93679 17.6246 8.09635 16.7627 7.65695C17.5967 7.16713 18.1581 6.26744 18.1581 5.23338C18.1581 3.67185 16.8779 2.41675 15.312 2.41675C13.7461 2.41675 12.4658 3.67185 12.4658 5.23338C12.4658 6.29799 13.0609 7.22016 13.9359 7.69927C13.7211 7.81705 13.5224 7.96012 13.344 8.12444L11.4353 9.41967H10.1615H9.17184C9.16679 9.41962 9.16173 9.4196 9.15667 9.4196L9.15402 9.41961L9.14468 9.41967H9.14339H8.54004L6.6314 8.12444C6.453 7.96012 6.2543 7.81705 6.03949 7.69927C6.91445 7.22016 7.50953 6.29799 7.50953 5.23338C7.50953 3.67185 6.22929 2.41675 4.6634 2.41675ZM9.19725 11.5805L9.15615 11.5832H8.11491L7.41429 11.1975L6.6732 10.7896V11.6356V15.7938H2.5835V10.2995V10.2465L2.58632 10.1937C2.64167 9.16004 3.51063 8.32847 4.58604 8.32847C5.12629 8.32847 5.61478 8.53834 5.97463 8.87933L6.00414 8.90729L6.03778 8.93012L8.10564 10.3334L8.23277 10.4197H8.3864H9.14468L9.14733 10.4197L9.15667 10.4196H9.15778C9.49176 10.4202 9.75153 10.6861 9.75153 11.0007C9.75153 11.3029 9.51204 11.56 9.19725 11.5805ZM13.4658 5.23338C13.4658 4.23603 14.2864 3.41675 15.312 3.41675C16.3375 3.41675 17.1581 4.23603 17.1581 5.23338C17.1581 6.23073 16.3375 7.05001 15.312 7.05001C14.2864 7.05001 13.4658 6.23073 13.4658 5.23338ZM14.0007 8.87933C14.3606 8.53834 14.8491 8.32847 15.3893 8.32847C16.4647 8.32847 17.3337 9.16004 17.389 10.1937L17.3919 10.2465V10.2995V15.7938H13.3022V11.6356V10.7896L12.5611 11.1975L11.8605 11.5832H11.1212C11.1962 11.39 11.2374 11.18 11.2374 10.96C11.2374 10.7711 11.207 10.5895 11.1509 10.4197H11.589H11.7426L11.8697 10.3334L13.9376 8.93012L13.9712 8.90729L14.0007 8.87933Z" fill="white"/>
</svg>
