<svg width="20" height="20" viewBox="0 0 20 20" fill="none" xmlns="http://www.w3.org/2000/svg">
<path fill-rule="evenodd" clip-rule="evenodd" d="M10 19C14.9706 19 19 14.9706 19 10C19 5.02944 14.9706 1 10 1C5.02944 1 1 5.02944 1 10C1 14.9706 5.02944 19 10 19ZM10 20C15.5228 20 20 15.5228 20 10C20 4.47715 15.5228 0 10 0C4.47715 0 0 4.47715 0 10C0 15.5228 4.47715 20 10 20ZM6.7715 13.2875L3.44162 16.012L2.80838 15.238L5.19232 13.2875H4.01925C4.01925 13.2875 3.94521 13.2809 3.92147 13.2534C3.89201 13.2192 3.88465 13.1509 3.88465 13.1509V12.724C3.88465 12.724 3.87667 12.6766 3.92146 12.5728C3.96625 12.4689 4.15385 12.4127 4.15385 12.4127C4.15385 12.4127 4.64303 12.2312 5.47503 12.2118C5.82892 12.2035 6.15857 12.2401 6.41862 12.2842L8.19272 10.8327C8.19133 10.8131 8.19175 10.8025 8.19175 10.8025L8.2907 8.99562C8.2907 8.99562 8.2907 8.43551 8.84888 7.94034C9.40706 7.44517 10.0152 7.50199 10.0152 7.50199C10.0152 7.50199 10.5318 7.45328 11.1066 7.88351C11.2334 7.97843 11.3351 8.08559 11.4165 8.19497L16.5584 3.98802L17.1916 4.76198L13.5142 7.77074C13.9997 7.45927 14.4569 7.50199 14.4569 7.50199C14.4569 7.50199 14.9735 7.45329 15.5483 7.88352C16.1232 8.31375 16.1815 8.99563 16.1815 8.99563L16.2502 10.8025C16.2502 10.8025 16.2502 11.2248 15.931 11.4705C15.5579 11.7577 15.3734 11.7231 15.3734 11.7231H13.5176C13.5176 11.7231 13.1718 11.7231 12.9111 11.4228C12.6223 11.09 12.6335 10.8025 12.6335 10.8025L12.7324 8.99563C12.7324 8.99563 12.7324 8.50445 13.1908 8.03539L11.7481 9.21575L11.8085 10.8025C11.8085 10.8025 11.8085 11.2248 11.4893 11.4705C11.1162 11.7577 10.9317 11.7231 10.9317 11.7231H9.07583C9.07583 11.7231 8.93983 11.7231 8.77411 11.649L7.24949 12.8964V13.1509C7.24949 13.1509 7.24744 13.211 7.22004 13.2534C7.19795 13.2875 7.1149 13.2875 7.1149 13.2875H6.7715ZM9.1664 11.3281C9.18677 11.3338 9.19839 11.3359 9.19839 11.3359H10.8163C10.8163 11.3359 11.0242 11.3424 11.2646 11.0966C11.4228 10.9349 11.4336 10.6956 11.4336 10.6956L11.3773 9.51916L9.1664 11.3281ZM11.1015 8.45277C11.0385 8.36727 10.9603 8.28361 10.8632 8.20936C10.4149 7.86657 10.012 7.90537 10.012 7.90537C10.012 7.90537 9.53768 7.8601 9.10234 8.25463C8.667 8.64916 8.667 9.09544 8.667 9.09544L8.61491 10.4872L11.1015 8.45277ZM3.75006 10.8025L3.84901 8.99562C3.84901 8.99562 3.84901 8.4355 4.40719 7.94033C4.96537 7.44516 5.57354 7.50198 5.57354 7.50198C5.57354 7.50198 6.09006 7.45328 6.66491 7.88351C7.23975 8.31374 7.29807 8.99562 7.29807 8.99562L7.36676 10.8025C7.36676 10.8025 7.36676 11.2248 7.04757 11.4705C6.67449 11.7577 6.48999 11.7231 6.48999 11.7231H4.63414C4.63414 11.7231 4.28841 11.7231 4.0277 11.4228C3.73888 11.09 3.75006 10.8025 3.75006 10.8025ZM4.16542 10.6956L4.22531 9.09544C4.22531 9.09544 4.22531 8.64916 4.66065 8.25463C5.09599 7.86009 5.57032 7.90536 5.57032 7.90536C5.57032 7.90536 5.97317 7.86656 6.42151 8.20935C6.86984 8.55214 6.91533 9.09544 6.91533 9.09544L6.99188 10.6956C6.99188 10.6956 6.98111 10.9349 6.82294 11.0966C6.58253 11.3424 6.37461 11.3359 6.37461 11.3359H4.7567C4.7567 11.3359 4.54228 11.2971 4.34085 11.0966C4.19141 10.9479 4.16542 10.6956 4.16542 10.6956ZM11.422 12.4127C11.422 12.4127 10.734 12.1927 9.91672 12.2118C9.08472 12.2312 8.59554 12.4127 8.59554 12.4127C8.59554 12.4127 8.40794 12.4689 8.36315 12.5728C8.31836 12.6766 8.32634 12.7241 8.32634 12.7241V13.1509C8.32634 13.1509 8.3337 13.2192 8.36315 13.2534C8.3869 13.2809 8.46094 13.2875 8.46094 13.2875H11.5566C11.5566 13.2875 11.6396 13.2875 11.6617 13.2534C11.6891 13.211 11.6912 13.1509 11.6912 13.1509V12.7241C11.6912 12.7241 11.6912 12.6581 11.6617 12.5728C11.6286 12.4766 11.422 12.4127 11.422 12.4127ZM13.1087 9.09545L13.0488 10.6956C13.0488 10.6956 13.0748 10.9479 13.2243 11.0966C13.4257 11.2971 13.6401 11.3359 13.6401 11.3359H15.258C15.258 11.3359 15.4659 11.3424 15.7064 11.0966C15.8645 10.9349 15.8753 10.6956 15.8753 10.6956L15.7987 9.09545C15.7987 9.09545 15.7533 8.55215 15.3049 8.20936C14.8566 7.86657 14.4537 7.90538 14.4537 7.90538C14.4537 7.90538 13.9794 7.86011 13.5441 8.25464C13.1087 8.64917 13.1087 9.09545 13.1087 9.09545ZM14.3584 12.2118C15.1757 12.1927 15.8637 12.4127 15.8637 12.4127C15.8637 12.4127 16.0703 12.4766 16.1034 12.5728C16.1329 12.6581 16.1329 12.7241 16.1329 12.7241V13.1509C16.1329 13.1509 16.1308 13.211 16.1034 13.2534C16.0814 13.2875 15.9983 13.2875 15.9983 13.2875H12.9027C12.9027 13.2875 12.8286 13.2809 12.8049 13.2534C12.7754 13.2192 12.7681 13.1509 12.7681 13.1509V12.7241C12.7681 12.7241 12.7601 12.6766 12.8049 12.5728C12.8497 12.4689 13.0373 12.4127 13.0373 12.4127C13.0373 12.4127 13.5264 12.2312 14.3584 12.2118Z" fill="#F62434"/>
</svg>
