<svg width="24" height="24" viewBox="0 0 24 24" fill="none" xmlns="http://www.w3.org/2000/svg">
<g clip-path="url(#clip0)">
<path d="M16.4153 8.73542L16.9758 8.17529L17.5359 8.73581L16.9754 9.29594L16.4153 8.73542Z" fill="#4198C5"/>
<path d="M15.2939 7.61452L15.8545 7.0542L16.4148 7.61452L15.8545 8.17484L15.2939 7.61452Z" fill="#4198C5"/>
<path d="M14.1732 6.49441L14.7337 5.93408L15.2941 6.49441L14.7337 7.05473L14.1732 6.49441Z" fill="#4198C5"/>
<path d="M18.6566 10.9771L19.2171 10.4167L19.7775 10.9771L19.2171 11.5374L18.6566 10.9771Z" fill="#4198C5"/>
<path d="M17.5358 9.85642L18.0961 9.2959L18.6566 9.85622L18.0963 10.4167L17.5358 9.85642Z" fill="#4198C5"/>
<path d="M12.8452 16.1963C12.6963 16.1961 12.56 16.1125 12.4925 15.98L11.7768 14.5765L10.2212 14.8224C10.0508 14.8507 9.88149 14.7651 9.80332 14.6111C9.72496 14.4569 9.75553 14.27 9.87878 14.1489L10.9927 13.035L10.2795 11.6315C10.2015 11.4785 10.2309 11.2927 10.3524 11.1714C10.4737 11.0499 10.6595 11.0205 10.8123 11.0985L12.2164 11.8118L13.3301 10.6976C13.4512 10.5741 13.6383 10.5436 13.7923 10.6219C13.9465 10.7003 14.0321 10.8694 14.0038 11.0398L13.7519 12.5995L15.1558 13.3152C15.3085 13.3933 15.3936 13.5609 15.3665 13.7304C15.3394 13.8999 15.2063 14.0326 15.0368 14.0593L13.4808 14.3058L13.2367 15.8618C13.2098 16.0313 13.0768 16.1642 12.9073 16.1911C12.8868 16.1946 12.8659 16.1963 12.8452 16.1963ZM11.9995 13.7422C12.1485 13.7422 12.2849 13.826 12.3526 13.9587L12.6446 14.532L12.7454 13.8979C12.7723 13.7285 12.9054 13.5955 13.0751 13.5686L13.7089 13.4676L13.1357 13.1757C12.9826 13.0977 12.8973 12.9303 12.924 12.7609L13.0246 12.1249L12.5711 12.5798C12.4496 12.7009 12.2638 12.7303 12.111 12.6521L11.5371 12.3602L11.8297 12.9336C11.9074 13.0865 11.878 13.2722 11.7567 13.3935L11.3014 13.8492L11.9374 13.7486C11.9579 13.7447 11.9786 13.7426 11.9995 13.7422Z" fill="#4198C5"/>
<path d="M23.6518 7.66302L21.6903 5.7015L21.4101 5.98166C21.1106 6.28601 20.671 6.40635 20.2581 6.29704C19.8454 6.18753 19.5231 5.86518 19.4138 5.45229C19.3045 5.0396 19.4248 4.59981 19.7293 4.3005L20.0095 4.02034L18.048 2.0592C17.5838 1.59485 16.831 1.59485 16.3666 2.0592L14.966 3.46001L14.1255 2.61953C13.6612 2.15517 12.9085 2.15517 12.4442 2.61953L0.348267 14.7154C-0.116089 15.1798 -0.116089 15.9326 0.348267 16.3968L2.30979 18.3583L2.58975 18.0781C3.0603 17.6289 3.80076 17.6289 4.27111 18.0781C4.73547 18.5423 4.73547 19.2951 4.27111 19.7593L3.99095 20.0395L5.95247 22.0014C6.41663 22.4653 7.16908 22.4653 7.63324 22.0014L9.03405 20.6002L9.87492 21.4407C10.3391 21.9048 11.0915 21.9048 11.5559 21.4407L23.6518 9.34399C24.1161 8.87963 24.1161 8.12679 23.6518 7.66263V7.66302ZM7.07253 21.4403C6.99824 21.5148 6.89743 21.5566 6.79237 21.5566C6.68712 21.5566 6.58631 21.5148 6.51202 21.4403L5.08354 20.011C5.60439 19.2253 5.49972 18.1815 4.83318 17.5149C4.16644 16.8484 3.1226 16.7439 2.33707 17.2649L0.908203 15.8365C0.753418 15.6817 0.753418 15.4309 0.908203 15.2761L13.0045 3.17985C13.0788 3.10536 13.1796 3.06357 13.2848 3.06357C13.3901 3.06357 13.4909 3.10536 13.5652 3.17985L14.4057 4.02034L4.27072 14.1557C3.80675 14.6198 3.80675 15.3723 4.27072 15.8365L6.23185 17.798L6.51202 17.5178C6.97618 17.0535 7.72902 17.0535 8.19318 17.5178C8.65754 17.982 8.65754 18.7348 8.19318 19.199L7.91263 19.4791L8.47334 20.0395L7.07253 21.4403ZM23.0915 8.78405L10.9952 20.88C10.8404 21.0347 10.5895 21.0347 10.4349 20.88L9.006 19.4511C9.5253 18.6654 9.41966 17.6227 8.7535 16.9571C8.08715 16.2929 7.04603 16.1878 6.2603 16.7054L4.83105 15.2761C4.67626 15.1215 4.67626 14.8706 4.83105 14.7158L16.9269 2.61953C17.0012 2.54523 17.1022 2.50325 17.2073 2.50325C17.3126 2.50325 17.4134 2.54523 17.4877 2.61953L18.9165 4.04607C18.3962 4.83161 18.5011 5.87467 19.1673 6.54102C19.8334 7.20717 20.8767 7.31224 21.6622 6.79216L23.0919 8.22179C23.2465 8.37639 23.2465 8.62733 23.0919 8.78212L23.0915 8.78405Z" fill="#4198C5"/>
</g>
<defs>
<clipPath id="clip0">
<rect width="24" height="24" fill="white"/>
</clipPath>
</defs>
</svg>
