<svg width="16" height="10" viewBox="0 0 16 10" fill="none" xmlns="http://www.w3.org/2000/svg">
<path fill-rule="evenodd" clip-rule="evenodd" d="M10.3299 0H1.11112C0.497688 0.000728378 0.000723381 0.501125 0 1.11879V8.48125C0.000723381 9.09892 0.497688 9.59931 1.11112 9.60004H10.3299C10.9432 9.59931 11.4403 9.09892 11.441 8.48125V1.11879C11.4403 0.501125 10.9432 0.000728378 10.3299 0ZM12.1816 6.33239L15.9999 8.43144V1.19265L12.1816 3.2917V6.33239ZM5.67275 6.98185C6.87774 6.98185 7.85458 6.00501 7.85458 4.80002C7.85458 3.59503 6.87774 2.61819 5.67275 2.61819C4.46776 2.61819 3.49092 3.59503 3.49092 4.80002C3.49092 6.00501 4.46776 6.98185 5.67275 6.98185Z" fill="#616F82"/>
</svg>
