<svg width="14" height="14" viewBox="0 0 14 14" fill="none" xmlns="http://www.w3.org/2000/svg">
<path fill-rule="evenodd" clip-rule="evenodd" d="M6.70744 0.0988824C6.88097 -0.0329608 7.11903 -0.0329608 7.29256 0.0988824L13.8035 5.04555C14.0199 5.21 14.0644 5.52191 13.9028 5.74221C13.7412 5.96252 13.4348 6.00779 13.2183 5.84334L7 1.11895L0.781675 5.84334C0.56522 6.00779 0.258763 5.96252 0.0971844 5.74221C-0.0643946 5.52191 -0.0199089 5.21 0.196546 5.04555L6.70744 0.0988824ZM1.2533 7.03217C1.2533 6.8749 1.32633 6.72687 1.45027 6.63293L6.70789 2.64806C6.88124 2.51668 7.11876 2.51668 7.29211 2.64806L12.5497 6.63293C12.6737 6.72687 12.7467 6.8749 12.7467 7.03217V13.5022C12.7467 13.7771 12.5277 14 12.2576 14H1.74238C1.47227 14 1.2533 13.7771 1.2533 13.5022V7.03217ZM9.10009 9.09999H4.90009V14H9.10009V9.09999Z" fill="#8792A3"/>
</svg>
