<svg width="20" height="24" viewBox="0 0 20 24" fill="none" xmlns="http://www.w3.org/2000/svg">
<g clip-path="url(#clip0)">
<path d="M17.9975 5.54468C17.9975 4.69295 17.3045 4 16.4528 4C15.6011 4 14.9081 4.69295 14.9081 5.54468C14.9081 6.163 15.2735 6.69732 15.7995 6.94392L15.1424 8.44441C14.8802 8.35585 14.5999 8.3071 14.3082 8.3071C14.0186 8.3071 13.7402 8.35516 13.4797 8.44254L12.8186 6.94333C13.3439 6.69648 13.7086 6.16247 13.7086 5.54468C13.7086 4.69295 13.0157 4 12.164 4C11.3122 4 10.6193 4.69295 10.6193 5.54468C10.6193 6.28654 11.1451 6.90773 11.8435 7.0557L12.6558 8.8977C12.2149 9.25855 11.8943 9.76046 11.7623 10.3337C10.897 9.10664 9.46895 8.30347 7.85668 8.30347C5.22317 8.30347 3.0806 10.446 3.0806 13.0795C3.0806 14.6508 3.84346 16.0472 5.0181 16.9181H4.61778C3.17688 16.9181 2.00462 18.0904 2.00462 19.5313V20H14.3082C15.7491 20 16.9214 18.8278 16.9214 17.3869V10.9203C16.9214 10.108 16.5488 9.38118 15.9656 8.90151L16.7741 7.05545C17.4721 6.9072 17.9975 6.28622 17.9975 5.54468ZM11.5568 5.54468C11.5568 5.20989 11.8292 4.93751 12.164 4.93751C12.4987 4.93751 12.7711 5.20989 12.7711 5.54468C12.7711 5.87947 12.4987 6.15181 12.164 6.15181C11.8292 6.15181 11.5568 5.87947 11.5568 5.54468ZM4.01812 13.0795C4.01812 10.963 5.74008 9.24099 7.85668 9.24099C9.97005 9.24099 11.6899 10.9578 11.6951 13.0699V15.2424C11.6951 16.1664 10.9434 16.9181 10.0194 16.9181H7.85665C5.74008 16.9181 4.01812 15.1961 4.01812 13.0795ZM15.9839 17.3869C15.9839 18.3108 15.2322 19.0625 14.3083 19.0625H3.00888C3.21213 18.3659 3.85649 17.8556 4.61781 17.8556H10.0195C11.4604 17.8556 12.6326 16.6834 12.6326 15.2425V10.9203C12.6326 9.99631 13.3843 9.24461 14.3083 9.24461C15.2322 9.24461 15.9839 9.99631 15.9839 10.9203V17.3869ZM16.4528 4.93751C16.7876 4.93751 17.0599 5.20989 17.0599 5.54468C17.0599 5.87947 16.7876 6.15181 16.4528 6.15181C16.118 6.15181 15.8456 5.87947 15.8456 5.54468C15.8456 5.20989 16.118 4.93751 16.4528 4.93751Z" fill="#4198C5"/>
<path d="M7.8514 10.4553C6.40672 10.4553 5.23139 11.6307 5.23139 13.0753C5.23139 14.52 6.40672 15.6953 7.8514 15.6953C9.29608 15.6953 10.4714 14.52 10.4714 13.0753C10.4714 11.6307 9.29608 10.4553 7.8514 10.4553ZM7.8514 14.7579C6.92367 14.7579 6.16891 14.0031 6.16891 13.0754C6.16891 12.1476 6.92367 11.3929 7.8514 11.3929C8.77913 11.3929 9.5339 12.1476 9.5339 13.0754C9.5339 14.0031 8.77913 14.7579 7.8514 14.7579Z" fill="#4198C5"/>
<path d="M7.37827 12.6064H8.32458V13.5439H7.37827V12.6064Z" fill="#4198C5"/>
</g>
<defs>
<clipPath id="clip0">
<rect width="16" height="16" fill="white" transform="translate(2 4)"/>
</clipPath>
</defs>
</svg>
