<svg width="18" height="16" viewBox="0 0 18 16" fill="none" xmlns="http://www.w3.org/2000/svg">
<path fill-rule="evenodd" clip-rule="evenodd" d="M7.50445 0.826091C8.14672 -0.275364 9.74922 -0.275364 10.3915 0.826091L10.3915 0.826168L17.6682 13.3097L17.6683 13.3098C18.3168 14.4221 17.4999 15.799 16.2247 15.799H1.67121C0.395992 15.799 -0.420927 14.422 0.22769 13.3097L7.5044 0.826168L7.50445 0.826091ZM8.49176 1.4017L8.49172 1.40178L1.215 13.8853L1.21496 13.8854C1.01999 14.2198 1.25927 14.6562 1.67121 14.6562H16.2247C16.6367 14.6562 16.8759 14.2198 16.681 13.8854L16.6809 13.8853L9.40422 1.40178L9.40418 1.4017C9.20285 1.05657 8.69309 1.05657 8.49176 1.4017ZM8.94669 5.01331C9.41254 5.01331 9.78933 5.40187 9.77563 5.86951L9.63861 10.6697C9.62834 11.0479 9.32006 11.3471 8.94327 11.3471C8.56648 11.3471 8.2582 11.0445 8.24792 10.6697L8.11434 5.86951C8.10406 5.40187 8.47742 5.01331 8.94669 5.01331ZM8.07382 12.8288C8.07382 13.3068 8.46088 13.6953 8.93701 13.6953C9.41313 13.6953 9.80019 13.3068 9.80019 12.8288C9.80019 12.3509 9.41313 11.9623 8.93701 11.9623C8.46088 11.9623 8.07382 12.3509 8.07382 12.8288Z" fill="#FF0000"/>
</svg>
