<svg width="12" height="12" viewBox="0 0 12 12" fill="none" xmlns="http://www.w3.org/2000/svg">
<path fill-rule="evenodd" clip-rule="evenodd" d="M6.76303 5.00516H10.555C10.9956 5.00516 11.3529 5.36237 11.3529 5.80301C11.3529 6.24365 10.9956 6.60086 10.555 6.60086H6.76303V10.7525C6.76303 11.1801 6.41638 11.5267 5.98877 11.5267C5.56116 11.5267 5.21452 11.1801 5.21452 10.7525V6.60086H1.44483C1.00418 6.60086 0.646973 6.24365 0.646973 5.80301C0.646973 5.36237 1.00418 5.00516 1.44483 5.00516H5.21452V0.830406C5.21452 0.402798 5.56116 0.0561523 5.98877 0.0561523C6.41638 0.0561523 6.76303 0.402798 6.76303 0.830407V5.00516Z" fill="#616F82"/>
</svg>
