<svg width="16" height="8" viewBox="0 0 16 8" fill="none" xmlns="http://www.w3.org/2000/svg">
<path d="M0.183312 3.55759C0.1835 3.5574 0.183656 3.55718 0.183875 3.557L3.44963 0.306998C3.69428 0.0635293 4.09 0.0644353 4.33353 0.309123C4.57703 0.553779 4.57609 0.949497 4.33144 1.193L2.13881 3.375H15.375C15.7202 3.375 16 3.65481 16 4C16 4.34518 15.7202 4.62499 15.375 4.62499H2.13884L4.33141 6.80699C4.57606 7.05049 4.577 7.44621 4.3335 7.69087C4.08997 7.93559 3.69422 7.93643 3.44959 7.69299L0.183844 4.44299C0.183656 4.44281 0.1835 4.44259 0.183281 4.4424C-0.0615003 4.19809 -0.0607188 3.80109 0.183312 3.55759Z" fill="#616F82"/>
</svg>
