<svg width="24" height="24" viewBox="0 0 24 24" fill="none" xmlns="http://www.w3.org/2000/svg">
<path d="M16.2492 14.2846C16.1977 14.1236 16.2546 13.9483 16.3909 13.8484L19.437 11.6136C19.922 11.2578 20.1153 10.6583 19.9294 10.0863C19.7436 9.51423 19.2348 9.14281 18.6333 9.14004L14.8554 9.12254C14.6864 9.12172 14.5372 9.01346 14.4843 8.85302L13.3002 5.26526C13.1117 4.69408 12.6013 4.32509 11.9999 4.32501C11.3984 4.32501 10.8879 4.69408 10.6994 5.26518L10.1657 6.88169C10.0811 7.13777 10.2201 7.41404 10.4763 7.49854C10.7325 7.58327 11.0086 7.44408 11.0932 7.18792L11.627 5.5714C11.7095 5.32126 11.9332 5.30181 11.9999 5.30181C12.0664 5.30181 12.2901 5.32126 12.3727 5.5714L13.5568 9.15925C13.7416 9.71887 14.2615 10.0966 14.8508 10.0994L18.6288 10.1169C18.8922 10.1181 18.9799 10.3249 19.0004 10.3882C19.021 10.4515 19.0716 10.6703 18.8592 10.8261L15.813 13.0609C15.3379 13.4095 15.1393 14.0208 15.3188 14.5822L16.47 18.1818C16.5503 18.4328 16.3807 18.58 16.3268 18.6191C16.2729 18.6582 16.0806 18.7741 15.8667 18.6202L12.7999 16.4131C12.3214 16.0688 11.6785 16.0688 11.2 16.4131L8.13257 18.6206C7.91873 18.7744 7.7263 18.6587 7.6725 18.6196C7.61861 18.5804 7.44905 18.4333 7.52923 18.1824L8.68014 14.5822C8.85963 14.0209 8.66093 13.4096 8.18588 13.061L5.13983 10.8261C4.92746 10.6703 4.97809 10.4515 4.99868 10.3883C5.01928 10.325 5.10695 10.1182 5.37027 10.117L9.14851 10.0995C9.41819 10.0982 9.63585 9.87858 9.63463 9.60882C9.63333 9.33987 9.41493 9.1227 9.14623 9.1227C9.1455 9.1227 9.14469 9.1227 9.14396 9.1227L5.36572 9.1402C4.76425 9.14297 4.25551 9.5144 4.06967 10.0865C3.88384 10.6585 4.07708 11.2581 4.56198 11.6139L7.60803 13.8487C7.74421 13.9486 7.80119 14.1239 7.74974 14.2848L6.59892 17.885C6.41577 18.4579 6.61186 19.0565 7.09847 19.41C7.34267 19.5873 7.62284 19.6761 7.90318 19.6761C8.18149 19.6761 8.45996 19.5886 8.70326 19.4136L11.7706 17.2061C11.9078 17.1073 12.0922 17.1073 12.2293 17.2061L15.2962 19.4131C15.7844 19.7645 16.4143 19.7632 16.901 19.4096C17.3877 19.056 17.5837 18.4574 17.4005 17.8845L16.2492 14.2846Z" fill="#4198C5"/>
<path d="M12 0C5.38319 0 0 5.38319 0 12C0 18.6168 5.38319 24 12 24C12.2697 24 12.4884 23.7813 12.4884 23.5116C12.4884 23.2419 12.2697 23.0232 12 23.0232C5.92182 23.0233 0.976794 18.0783 0.976794 12C0.976794 5.92173 5.92182 0.976794 12 0.976794C18.0782 0.976794 23.0232 5.92182 23.0232 12C23.0232 15.7835 21.1168 19.2594 17.9235 21.2981C17.6962 21.4432 17.6295 21.7452 17.7746 21.9726C17.9198 22.1999 18.2217 22.2666 18.4491 22.1215C21.9249 19.9023 24 16.1187 24 12.0001C24.0001 5.38319 18.6169 0 12 0Z" fill="#4198C5"/>
</svg>
