<svg width="16" height="16" viewBox="0 0 16 16" fill="none" xmlns="http://www.w3.org/2000/svg">
<path d="M8.94953 7.99989L14.8033 2.14618C15.0656 1.88396 15.0656 1.45887 14.8033 1.19666C14.5411 0.934447 14.116 0.934447 13.8538 1.19666L8 7.05037L2.14619 1.19755C1.88398 0.935342 1.45888 0.935342 1.19666 1.19755C0.934446 1.45977 0.934446 1.88486 1.19666 2.14707L7.05047 8.00078L1.19756 13.8536C0.935341 14.1158 0.935341 14.5409 1.19756 14.8031C1.32911 14.9338 1.50005 15 1.67188 15C1.84371 15 2.01553 14.9347 2.14619 14.8031L8 8.9494L13.8538 14.8031C13.9854 14.9338 14.1563 15 14.3281 15C14.5 15 14.6718 14.9347 14.8024 14.8031C15.0647 14.5409 15.0647 14.1158 14.8024 13.8536L8.94953 7.99989Z" fill="white" stroke="white" stroke-width="0.7"/>
</svg>
