<svg width="22" height="20" viewBox="0 0 22 20" fill="none" xmlns="http://www.w3.org/2000/svg">
<path d="M5.32861 7.682C6.97387 7.682 8.30761 6.29811 8.30761 4.591C8.30761 2.88389 6.97387 1.5 5.32861 1.5C3.68335 1.5 2.34961 2.88389 2.34961 4.591C2.34961 6.29811 3.68335 7.682 5.32861 7.682Z" fill="#4198C5" stroke="#F1F2F4" stroke-width="0.5"/>
<path fill-rule="evenodd" clip-rule="evenodd" d="M1.00008 18.302C0.99608 15.732 1.14208 13.712 1.43808 12.239C1.88208 10.029 2.75608 8.39803 4.50708 8.23903C6.25808 8.08103 6.71208 9.25403 6.93008 9.90303C7.14908 10.551 7.45408 12.431 8.58508 13.363C9.12008 13.804 9.81708 14.255 10.6451 14.255C10.6581 14.255 10.6581 14.64 10.6451 15.409H11.6851V16.763C10.6771 16.765 9.85708 16.673 9.22608 16.486C8.56493 16.2835 7.94497 15.9653 7.39508 15.546V18.302H1.00008Z" fill="#4198C5" stroke="#F1F2F4" stroke-width="0.5"/>
<path d="M16.6714 7.682C15.0261 7.682 13.6924 6.29811 13.6924 4.591C13.6924 2.88389 15.0261 1.5 16.6714 1.5C18.3166 1.5 19.6504 2.88389 19.6504 4.591C19.6504 6.29811 18.3166 7.682 16.6714 7.682Z" fill="#8792A3" stroke="#F1F2F4" stroke-width="0.5"/>
<path fill-rule="evenodd" clip-rule="evenodd" d="M21.0005 18.302C21.0045 15.732 20.8585 13.712 20.5625 12.239C20.1185 10.029 19.2445 8.39803 17.4935 8.23903C15.7425 8.08103 15.2885 9.25403 15.0705 9.90303C14.8515 10.551 14.5465 12.431 13.4155 13.363C12.6615 13.985 11.7385 14.283 10.6445 14.255V15.409H11.6855V16.763C11.7805 16.765 12.1435 16.673 12.7745 16.486C13.4357 16.2835 14.0556 15.9653 14.6055 15.546V18.302H21.0005Z" fill="#8792A3" stroke="#F1F2F4" stroke-width="0.5"/>
</svg>
