<svg width="18" height="18" viewBox="0 0 18 18" fill="none" xmlns="http://www.w3.org/2000/svg">
<g clip-path="url(#clip0)">
<path d="M7.43874 7.92124C6.8157 7.29824 5.80201 7.2982 5.17897 7.92128C4.87719 8.22309 4.71094 8.62436 4.71094 9.05116C4.71094 9.47796 4.87716 9.87927 5.17897 10.181C5.48079 10.4829 5.88206 10.6491 6.30886 10.6491C6.73565 10.6491 7.13696 10.4829 7.43874 10.181C8.06178 9.55801 8.06178 8.54431 7.43874 7.92124ZM6.63057 9.3728C6.54465 9.45873 6.43043 9.50605 6.30893 9.50605C6.18743 9.50605 6.0732 9.45873 5.98732 9.3728C5.9014 9.28688 5.85408 9.1727 5.85408 9.0512C5.85408 8.9297 5.9014 8.81547 5.98732 8.72955C6.07602 8.64085 6.19249 8.59656 6.30896 8.59656C6.42543 8.59656 6.54191 8.64092 6.63057 8.72955C6.80786 8.90688 6.80786 9.19544 6.63057 9.3728Z" fill="#616F82"/>
<path d="M12.8294 7.82528C12.2064 7.20228 11.1926 7.20228 10.5696 7.82532C10.2678 8.1271 10.1016 8.5284 10.1016 8.9552C10.1016 9.382 10.2677 9.7833 10.5696 10.0851C10.8811 10.3966 11.2903 10.5523 11.6995 10.5523C12.1087 10.5523 12.5178 10.3966 12.8294 10.085C13.1312 9.78323 13.2974 9.38196 13.2974 8.95517C13.2974 8.52837 13.1311 8.12706 12.8294 7.82528ZM12.0212 9.27684C11.8438 9.45421 11.5552 9.45421 11.3778 9.27684C11.2919 9.19092 11.2446 9.0767 11.2446 8.9552C11.2446 8.8337 11.2919 8.71948 11.3778 8.63356C11.5552 8.45623 11.8438 8.45619 12.0212 8.63356C12.1071 8.71948 12.1544 8.83367 12.1544 8.95517C12.1544 9.07667 12.1071 9.19092 12.0212 9.27684Z" fill="#616F82"/>
<path d="M9.16206 5.13409L8.02539 5.25537L8.83737 12.8655L9.97403 12.7442L9.16206 5.13409Z" fill="#616F82"/>
<path d="M16.4267 6.40208C16.6213 5.80629 16.6665 5.1726 16.5567 4.54773C16.4203 3.77138 16.0526 3.06548 15.4935 2.50639C14.9345 1.9473 14.2286 1.57967 13.4522 1.4432C12.8273 1.3333 12.1936 1.37861 11.5979 1.57317L10.0247 0L0 10.0247L1.5732 11.5979C1.37865 12.1937 1.3334 12.8274 1.44323 13.4522C1.57971 14.2286 1.94734 14.9345 2.50643 15.4936C3.06551 16.0527 3.77142 16.4203 4.54777 16.5568C5.17267 16.6666 5.80633 16.6214 6.40212 16.4268L7.97532 18L18 7.97532L16.4267 6.40208ZM7.97525 16.3834L6.67001 15.0782L6.31092 15.2385C5.30081 15.6896 4.09672 15.4672 3.31467 14.6852C2.53269 13.9032 2.31032 12.6991 2.76141 11.689L2.92173 11.3299L1.61648 10.0246L10.0247 1.61652L11.3299 2.92176L11.689 2.76145C12.6991 2.31036 13.9033 2.53269 14.6853 3.3147C15.4673 4.09668 15.6896 5.30078 15.2386 6.31096L15.0782 6.67004L16.3835 7.97529L7.97525 16.3834Z" fill="#616F82"/>
</g>
<defs>
<clipPath id="clip0">
<rect width="18" height="18" fill="white"/>
</clipPath>
</defs>
</svg>
