<svg width="6" height="14" viewBox="0 0 6 14" fill="none" xmlns="http://www.w3.org/2000/svg">
<path fill-rule="evenodd" clip-rule="evenodd" d="M4.1564 3.70114C4.567 3.70114 4.91813 3.56144 5.20977 3.28202C5.50141 3.00261 5.64764 2.66357 5.64764 2.26574C5.64764 1.86963 5.50141 1.52888 5.20977 1.24691C4.91895 0.96409 4.567 0.823532 4.1564 0.823532C3.74661 0.823532 3.39301 0.96409 3.09889 1.24691C2.80726 1.52888 2.65854 1.86963 2.65854 2.26574C2.65854 2.66272 2.80643 3.00261 3.09889 3.28202C3.39301 3.56144 3.74661 3.70114 4.1564 3.70114ZM4.11839 13.0155C4.41829 12.9081 4.81816 12.7531 5.32047 12.5486L5.48818 11.8441C5.40061 11.8859 5.26181 11.9344 5.07014 11.989C4.87681 12.0435 4.7058 12.0716 4.55295 12.0716C4.22909 12.0716 4.00024 12.0162 3.86971 11.9063C3.73752 11.7964 3.67225 11.5894 3.67225 11.2862C3.67225 11.1661 3.69208 10.9872 3.73256 10.7529C3.77387 10.5186 3.81931 10.3091 3.87053 10.1259L4.49595 7.84292C4.55709 7.63251 4.59922 7.40336 4.62153 7.15206C4.64383 6.90161 4.6554 6.72612 4.6554 6.62646C4.6554 6.146 4.49099 5.75499 4.16465 5.45429C3.83666 5.15443 3.3707 5.0028 2.76677 5.0028C2.43217 5.0028 2.07691 5.06413 1.701 5.1885C1.3251 5.31117 0.931011 5.4594 0.519576 5.63233L0.353516 6.33767C0.474137 6.28997 0.621196 6.24141 0.790561 6.18774C0.961579 6.13578 1.12847 6.11108 1.2904 6.11108C1.62169 6.11108 1.84393 6.1673 1.96207 6.2823C2.07857 6.3973 2.13722 6.60175 2.13722 6.89309C2.13722 7.05665 2.11905 7.23639 2.08104 7.43232C2.04304 7.62655 1.99512 7.83526 1.93977 8.05504L1.31105 10.3449C1.2557 10.5859 1.21521 10.8006 1.1896 10.9914C1.16482 11.1822 1.15243 11.3697 1.15243 11.5528C1.15243 12.0239 1.32014 12.4115 1.65722 12.7173C1.9943 13.0231 2.46769 13.1765 3.07576 13.1765C3.47149 13.1765 3.81931 13.1228 4.11839 13.0155Z" fill="#616F82"/>
</svg>
