<svg width="16" height="16" viewBox="0 0 16 16" fill="none" xmlns="http://www.w3.org/2000/svg">
<path fill-rule="evenodd" clip-rule="evenodd" d="M6.93916 7.26264H1.63585C1.05007 7.26264 0.575195 7.73752 0.575195 8.3233C0.575195 8.90909 1.05007 9.38396 1.63586 9.38396H6.93916V14.6873C6.93916 15.2731 7.41403 15.7479 7.99982 15.7479C8.5856 15.7479 9.06048 15.2731 9.06048 14.6873V9.38396H14.3638C14.9496 9.38396 15.4244 8.90909 15.4244 8.3233C15.4244 7.73752 14.9496 7.26264 14.3638 7.26264H9.06048V1.95934C9.06048 1.37355 8.5856 0.898682 7.99982 0.898682C7.41403 0.898682 6.93916 1.37356 6.93916 1.95934V7.26264Z" fill="#616F82"/>
</svg>
