<svg width="32" height="32" viewBox="0 0 32 32" fill="none" xmlns="http://www.w3.org/2000/svg">
<g clip-path="url(#clip0)">
<path d="M26.5594 3.9812C23.51 1.29726 19.588 -0.114051 15.5167 0.00707441C11.4267 0.128824 7.57995 1.79014 4.68514 4.68501C1.79027 7.57982 0.128953 11.4265 0.00720334 15.5166C-0.113984 19.5883 1.29739 23.51 3.98127 26.5593C4.07389 26.6646 4.20327 26.7183 4.33333 26.7183C4.44333 26.7183 4.55377 26.6798 4.64283 26.6014C4.83714 26.4304 4.85608 26.1342 4.68502 25.9399C2.15864 23.0696 0.830203 19.3778 0.944328 15.5444C1.05889 11.6942 2.62289 8.07307 5.34802 5.34789C8.07314 2.6227 11.6944 1.05876 15.5446 0.944199C19.3778 0.829449 23.0696 2.15857 25.94 4.68495C26.1343 4.85601 26.4306 4.8372 26.6016 4.64276C26.7726 4.44845 26.7538 4.15226 26.5594 3.9812Z" fill="#4198C5"/>
<path d="M28.0184 5.44066C27.8474 5.24635 27.5512 5.22747 27.3568 5.39847C27.1625 5.56953 27.1436 5.86572 27.3147 6.06003C29.841 8.93041 31.1695 12.6222 31.0554 16.4555C30.9408 20.3057 29.3769 23.9268 26.6517 26.652C23.9265 29.3772 20.3054 30.9412 16.4552 31.0557C12.6218 31.17 8.93009 29.8413 6.05971 27.315C5.86546 27.144 5.56921 27.1628 5.39815 27.3572C5.22709 27.5515 5.24596 27.8477 5.44034 28.0188C8.36865 30.5962 12.1015 32 15.9992 32C16.1602 32 16.3215 31.9975 16.483 31.9927C20.5731 31.871 24.4198 30.2097 27.3146 27.3148C30.2095 24.42 31.8708 20.5733 31.9925 16.4833C32.1136 12.4117 30.7023 8.49003 28.0184 5.44066Z" fill="#4198C5"/>
<path d="M19.0038 21.9607H14.4941C14.2353 21.9607 14.0254 22.1706 14.0254 22.4294C14.0254 22.6883 14.2353 22.8982 14.4941 22.8982H19.0038C19.2626 22.8982 19.4725 22.6883 19.4725 22.4294C19.4725 22.1706 19.2626 21.9607 19.0038 21.9607Z" fill="#4198C5"/>
<path d="M13.6525 10.2445C12.8069 9.39886 11.6825 8.93311 10.4866 8.93311C9.29069 8.93311 8.16631 9.39886 7.32069 10.2445C5.87569 11.6895 5.59106 13.9264 6.62856 15.6841C6.76013 15.9071 7.04763 15.981 7.2705 15.8495C7.49344 15.718 7.5675 15.4305 7.43594 15.2076C6.61588 13.8182 6.84113 12.0499 7.98363 10.9074C8.70013 10.1909 9.64988 9.84729 10.5907 9.87473C10.2394 10.1901 10.0179 10.6474 10.0179 11.1555C10.0179 12.1047 10.7901 12.8769 11.7393 12.8769C12.5876 12.8769 13.2942 12.2599 13.4348 11.451C14.3487 12.8254 14.2004 14.7024 12.9896 15.9134C11.8466 17.0563 10.0779 17.2812 8.68831 16.4604C8.46538 16.3287 8.178 16.4027 8.04631 16.6256C7.91463 16.8485 7.98863 17.136 8.2115 17.2676C8.91906 17.6855 9.704 17.8892 10.484 17.8892C11.642 17.8891 12.7888 17.44 13.6525 16.5762C14.4981 15.7306 14.9639 14.6062 14.9639 13.4103C14.9639 12.2145 14.4981 11.0901 13.6525 10.2445ZM11.7392 11.9395C11.3069 11.9395 10.9553 11.5879 10.9553 11.1556C10.9553 10.7234 11.3069 10.3717 11.7392 10.3717C12.1714 10.3717 12.5231 10.7234 12.5231 11.1556C12.5231 11.5879 12.1714 11.9395 11.7392 11.9395Z" fill="#4198C5"/>
<path d="M24.676 10.2445C23.8303 9.39885 22.706 8.93311 21.51 8.93311C20.3141 8.93311 19.1898 9.39885 18.3441 10.2445C16.8991 11.6895 16.6145 13.9264 17.652 15.6841C17.7835 15.9071 18.071 15.981 18.2939 15.8495C18.5168 15.718 18.5909 15.4305 18.4593 15.2076C17.6393 13.8182 17.8645 12.0499 19.007 10.9074C19.7235 10.1909 20.6733 9.84729 21.6141 9.87473C21.2628 10.1901 21.0413 10.6474 21.0413 11.1555C21.0413 12.1047 21.8135 12.8769 22.7627 12.8769C23.6111 12.8769 24.3176 12.2598 24.4582 11.451C25.3721 12.8253 25.224 14.7024 24.013 15.9133C22.8701 17.0562 21.1014 17.2812 19.7117 16.4603C19.4888 16.3287 19.2014 16.4027 19.0697 16.6255C18.9381 16.8485 19.012 17.1359 19.2349 17.2675C19.9425 17.6855 20.7274 17.8892 21.5074 17.8891C22.6655 17.8891 23.8122 17.44 24.676 16.5762C25.5216 15.7306 25.9873 14.6062 25.9873 13.4103C25.9873 12.2145 25.5216 11.0901 24.676 10.2445ZM22.7627 11.9395C22.3305 11.9395 21.9788 11.5879 21.9788 11.1556C21.9788 10.7234 22.3305 10.3717 22.7627 10.3717C23.195 10.3717 23.5466 10.7234 23.5466 11.1556C23.5466 11.5879 23.195 11.9395 22.7627 11.9395Z" fill="#4198C5"/>
</g>
<defs>
<clipPath id="clip0">
<rect width="32" height="32" fill="white"/>
</clipPath>
</defs>
</svg>
