<svg width="40" height="40" xmlns="http://www.w3.org/2000/svg"><g fill="none" fill-rule="evenodd"><circle stroke="#EAECEF" stroke-width=".667" cx="20" cy="20" r="19.667"/><path d="M7 31.966c1.629-.83 3.06-1.456 4.293-1.876 1.85-.63 3.582-.82 4.011-1.154.43-.333.735-2.79.735-3.008 0-.218-.841-.64-1.033-1.502-.19-.862-.272-2.211-.423-2.55-.15-.338-.694-.338-.832-.718a3.618 3.618 0 01-.196-1.133c0-.302-.608-1.176-.608-2.007 0-.83.94-.364.94-.523 0-.16-.452-.771-.559-1.614-.106-.843-.497-2.879.113-4.219.61-1.34 1.683-1.384 1.863-1.506.18-.122.267-.49.735-.81a5.84 5.84 0 011.328-.67c.426-.156.691-.175.997-.249.306-.073.737-.362 1.636-.412.9-.05 1.19.026 1.964.273.774.247 1.03.417 1.474.62.444.203.963.225 1.531.646.568.421 1.02.712 1.39 2.175.37 1.463.37 2.299.216 3.309-.155 1.01-.717 2.34-.717 2.457 0 .117.55-.362.717 0 .167.362.167 1.091 0 1.432-.168.34-.237.658-.306.914-.07.256-.07 1.132-.411 1.451-.342.32-.446.122-.577.275-.13.152-.13 1.637-.423 2.537-.292.9-.873 1.35-1.068 1.71-.195.359.271 2.831.67 3.294.176.205 1.672.418 4.108 1.186.83.262 2.308.82 4.432 1.672V35c-5.146 3.262-9.61 4.893-13.39 4.893-3.78 0-7.983-1.631-12.61-4.893v-3.034z" fill="#EAECEF"/></g></svg>