<svg width="10" height="10" xmlns="http://www.w3.org/2000/svg"><g fill="#FFF" fill-rule="nonzero"><path d="M3.34 6.95c.21 0 .42-.03.62-.07-.44-.38-.8-.86-1.05-1.43a2.05 2.05 0 0 1-1.4-2.66C1.8 2 2.52 1.46 3.34 1.46c.22 0 .44.04.65.12a2.05 2.05 0 0 1 1.08 2.82c.2.48.62.8 1.1.89A3.52 3.52 0 0 0 4.45.2C4.1.07 3.72 0 3.34 0 1.94 0 .68.93.2 2.3c-.54 1.6.11 3.35 1.47 4.17l-.4 1.2-.14-.31a.59.59 0 0 0-.8-.3.64.64 0 0 0-.28.84l.77 1.7c.1.23.32.36.54.36.09 0 .18-.02.26-.06l1.55-.77c.3-.15.43-.52.28-.83a.59.59 0 0 0-.8-.3l-.28.15.43-1.26c.17.03.35.04.53.04z"/><path d="M9.93 7.32a.59.59 0 0 0-.79-.33l-.65.3-.26-.61c.56-.39 1-.94 1.24-1.6.33-.87.32-1.81-.04-2.66A3.32 3.32 0 0 0 5.7.4c.49.32.83.76 1.07 1.4.64.12 1.15.55 1.4 1.18.21.5.22 1.05.03 1.55s-.56.9-1.03 1.12a1.86 1.86 0 0 1-1.11.13A1.96 1.96 0 0 1 4.61 4.6a2.1 2.1 0 0 1 .11-1.83c-.23-.41-.58-.72-1.01-.88l-.08-.02c-.13.2-.24.42-.33.65v.04a3.6 3.6 0 0 0 .04 2.61 3.37 3.37 0 0 0 3.05 2.1c.25 0 .5-.04.75-.1l.25.61-.66.3c-.3.14-.44.5-.3.82.1.24.31.38.54.38.08 0 .16-.02.24-.05l.66-.3.24.58c.1.24.31.38.55.38.07 0 .16-.02.23-.05.3-.14.44-.5.31-.82l-.24-.59.66-.3c.3-.13.44-.5.3-.81z"/></g></svg>
