<?xml version="1.0" encoding="UTF-8"?>
<svg width="10px" height="7px" viewBox="0 0 10 7" version="1.1" xmlns="http://www.w3.org/2000/svg" xmlns:xlink="http://www.w3.org/1999/xlink">
    <!-- Generator: Sketch 51.1 (57501) - http://www.bohemiancoding.com/sketch -->
    <title>Combined Shape</title>
    <desc>Created with Sketch.</desc>
    <defs></defs>
    <g id="Специалист" stroke="none" stroke-width="1" fill="none" fill-rule="evenodd">
        <g id="Контактная-информация" transform="translate(-1243.000000, -195.000000)" fill="#FFFFFF" fill-rule="nonzero">
            <g id="Group-2" transform="translate(1224.000000, 136.000000)">
                <g id="Group-12" transform="translate(14.000000, 52.000000)">
                    <g id="Group-13">
                        <path d="M5.95980079,9.15767844 C5.72918357,9.01849304 5.51148591,8.82706741 5.30692282,8.58345378 C5.10234018,8.33985756 5,8.11358769 5,7.90478346 C5,7.64628137 5.07718514,7.43084263 5.23155541,7.25848468 C5.38594523,7.08616156 5.60637926,7 5.8928184,7 L14.1071034,7 C14.348842,7 14.5581351,7.07785536 14.7348459,7.23365316 C14.9115762,7.38941613 14.9999805,7.57669737 14.9999805,7.79547948 C14.9999805,8.05729012 14.9088789,8.30753827 14.7264804,8.54608459 C14.5442187,8.7847354 14.3173347,8.98861163 14.0457697,9.15757396 C12.6470163,10.0226723 11.7764016,10.5612865 11.4341991,10.7733644 C11.3970041,10.7966114 11.3178839,10.8470754 11.1970146,10.9250353 C11.0760671,11.0029777 10.9756815,11.065962 10.8956818,11.1140056 C10.8156821,11.1620144 10.718971,11.2158392 10.605529,11.2755498 C10.4921456,11.3350863 10.3850755,11.3799606 10.2846703,11.4096331 C10.1842065,11.4395319 10.0911699,11.4543682 10.0056193,11.4543682 L9.99999023,11.4543682 L9.99438067,11.4543682 C9.90883007,11.4543682 9.81583263,11.4395493 9.71536881,11.4096331 C9.61492454,11.3799606 9.50795208,11.3351385 9.39447097,11.2755498 C9.28095077,11.2159089 9.18423969,11.1620318 9.10424,11.1140056 C9.02429895,11.065962 8.92383514,11.0029777 8.80292674,10.9250353 C8.68203789,10.8471451 8.60301548,10.7966114 8.56582041,10.7733644 C8.22727299,10.5612865 7.73992577,10.2588852 7.10375918,9.8661431 C6.46761215,9.47340101 6.0862992,9.2372055 5.95980079,9.15767844 Z M14.4418786,9.68958852 C14.6540448,9.56036359 14.8400006,9.41609348 15,9.2570742 L15,13.2044335 C15,13.4233375 14.9126512,13.6104446 14.7377386,13.7662772 C14.5628847,13.9221098 14.3526729,14 14.1071816,14 L5.89287704,14 C5.64732706,14 5.43709577,13.9221098 5.26226137,13.7662772 C5.08738788,13.6104968 5,13.42332 5,13.2044335 L5,9.2570742 C5.16369347,9.41945426 5.35156471,9.56372438 5.56367236,9.68958852 C6.91037611,10.5049019 7.83483866,11.0767235 8.3370991,11.404827 C8.54912856,11.5439776 8.72120705,11.6526024 8.85323683,11.7304404 C8.9853057,11.8083306 9.16111738,11.887875 9.38057413,11.969039 C9.60003088,12.0503248 9.80467215,12.0908458 9.99440022,12.0908458 L10.0000098,12.0908458 L10.0056975,12.0908458 C10.1954647,12.0908458 10.3999887,12.0503248 10.6194454,11.969039 C10.8389804,11.887875 11.0146748,11.8083306 11.1467827,11.7304404 C11.2788907,11.6526024 11.4509105,11.5439776 11.6629595,11.404827 C12.2953148,10.9971094 13.2217709,10.4253226 14.4418786,9.68958852 Z" id="Combined-Shape"></path>
                    </g>
                </g>
            </g>
        </g>
    </g>
</svg>