<svg width="20" height="20" viewBox="0 0 20 20" fill="none" xmlns="http://www.w3.org/2000/svg">
<path d="M12.1861 6.8728H3.90805C3.81957 6.8728 3.74805 6.94432 3.74805 7.0328C3.74805 7.12128 3.81957 7.1928 3.90805 7.1928H12.1861C12.2746 7.1928 12.3461 7.12128 12.3461 7.0328C12.3461 6.94432 12.2746 6.8728 12.1861 6.8728Z" fill="#616F82"/>
<path d="M12.1861 8.43384H3.90805C3.81957 8.43384 3.74805 8.50536 3.74805 8.59384C3.74805 8.68232 3.81957 8.75384 3.90805 8.75384H12.1861C12.2746 8.75384 12.3461 8.68232 12.3461 8.59384C12.3461 8.50536 12.2746 8.43384 12.1861 8.43384Z" fill="#616F82"/>
<path d="M12.1861 9.99609H3.90805C3.81957 9.99609 3.74805 10.0676 3.74805 10.1561C3.74805 10.2446 3.81957 10.3161 3.90805 10.3161H12.1861C12.2746 10.3161 12.3461 10.2446 12.3461 10.1561C12.3461 10.0676 12.2746 9.99609 12.1861 9.99609Z" fill="#616F82"/>
<path d="M12.1861 11.5579H3.90805C3.81957 11.5579 3.74805 11.6294 3.74805 11.7179C3.74805 11.8063 3.81957 11.8779 3.90805 11.8779H12.1861C12.2746 11.8779 12.3461 11.8063 12.3461 11.7179C12.3461 11.6294 12.2746 11.5579 12.1861 11.5579Z" fill="#616F82"/>
<path d="M16.0933 13.1201H10.3143C10.2258 13.1201 10.1543 13.1916 10.1543 13.2801C10.1543 13.3686 10.2258 13.4401 10.3143 13.4401H16.0933C16.1818 13.4401 16.2533 13.3686 16.2533 13.2801C16.2533 13.1916 16.1818 13.1201 16.0933 13.1201Z" fill="#616F82"/>
<path d="M16.0933 14.6821H10.3143C10.2258 14.6821 10.1543 14.7536 10.1543 14.8421C10.1543 14.9306 10.2258 15.0021 10.3143 15.0021H16.0933C16.1818 15.0021 16.2533 14.9306 16.2533 14.8421C16.2533 14.7536 16.1818 14.6821 16.0933 14.6821Z" fill="#616F82"/>
<path d="M16.0933 16.2439H10.3143C10.2258 16.2439 10.1543 16.3154 10.1543 16.4039C10.1543 16.4924 10.2258 16.5639 10.3143 16.5639H16.0933C16.1818 16.5639 16.2533 16.4924 16.2533 16.4039C16.2533 16.3154 16.1818 16.2439 16.0933 16.2439Z" fill="#616F82"/>
<path d="M16.0933 17.8062H10.3143C10.2258 17.8062 10.1543 17.8777 10.1543 17.9662C10.1543 18.0546 10.2258 18.1262 10.3143 18.1262H16.0933C16.1818 18.1262 16.2533 18.0546 16.2533 17.9662C16.2533 17.8777 16.1818 17.8062 16.0933 17.8062Z" fill="#616F82"/>
<path d="M16.0926 6.8728H13.5936C13.5051 6.8728 13.4336 6.94432 13.4336 7.0328C13.4336 7.12128 13.5051 7.1928 13.5936 7.1928H16.0926C16.1811 7.1928 16.2526 7.12128 16.2526 7.0328C16.2526 6.94432 16.1811 6.8728 16.0926 6.8728Z" fill="#616F82"/>
<path d="M16.0926 8.43384H13.5936C13.5051 8.43384 13.4336 8.50536 13.4336 8.59384C13.4336 8.68232 13.5051 8.75384 13.5936 8.75384H16.0926C16.1811 8.75384 16.2526 8.68232 16.2526 8.59384C16.2526 8.50536 16.1811 8.43384 16.0926 8.43384Z" fill="#616F82"/>
<path d="M16.0926 9.99609H13.5936C13.5051 9.99609 13.4336 10.0676 13.4336 10.1561C13.4336 10.2446 13.5051 10.3161 13.5936 10.3161H16.0926C16.1811 10.3161 16.2526 10.2446 16.2526 10.1561C16.2526 10.0676 16.1811 9.99609 16.0926 9.99609Z" fill="#616F82"/>
<path d="M16.0926 11.5579H13.5936C13.5051 11.5579 13.4336 11.6294 13.4336 11.7179C13.4336 11.8063 13.5051 11.8779 13.5936 11.8779H16.0926C16.1811 11.8779 16.2526 11.8063 16.2526 11.7179C16.2526 11.6294 16.1811 11.5579 16.0926 11.5579Z" fill="#616F82"/>
<path d="M17.3439 0H2.66193C2.40145 0 2.18945 0.21184 2.18945 0.47232V19.5277C2.18945 19.7882 2.40145 20 2.66193 20H17.3439C17.6043 20 17.8162 19.7882 17.8162 19.5277V0.47232C17.8162 0.21184 17.6043 0 17.3439 0ZM17.4962 19.5277C17.4962 19.6117 17.4279 19.68 17.3439 19.68H2.66193C2.57793 19.68 2.50945 19.6117 2.50945 19.5277V0.47232C2.50945 0.38832 2.57793 0.32 2.66193 0.32H17.3439C17.4279 0.32 17.4962 0.38832 17.4962 0.47232V19.5277Z" fill="#616F82"/>
<path d="M16.0909 1.87378H3.90805C3.81957 1.87378 3.74805 1.9453 3.74805 2.03378V5.46994C3.74805 5.55842 3.81957 5.62994 3.90805 5.62994H16.0908C16.1792 5.62994 16.2508 5.55842 16.2509 5.46994V2.03378C16.2509 1.9453 16.1794 1.87378 16.0909 1.87378ZM15.9309 5.30994H4.06805V2.19378H15.9309V5.30994Z" fill="#616F82"/>
<path d="M8.59381 13.1201H3.90805C3.81957 13.1201 3.74805 13.1916 3.74805 13.2801V17.9659C3.74805 18.0544 3.81957 18.1259 3.90805 18.1259H8.59381C8.68229 18.1259 8.75381 18.0544 8.75381 17.9659V13.2801C8.75381 13.1916 8.68229 13.1201 8.59381 13.1201ZM8.43381 17.8059H4.06805V13.4401H8.43381V17.8059Z" fill="#616F82"/>
</svg>
