<svg width="20" height="20" viewBox="0 0 20 20" fill="none" xmlns="http://www.w3.org/2000/svg">
<mask id="path-1-inside-1_2923_1787" fill="white">
<path fill-rule="evenodd" clip-rule="evenodd" d="M3.26638 7.88806C4.90571 7.88806 6.23465 6.56997 6.23465 4.94403C6.23465 3.31809 4.90571 2 3.26638 2C1.62705 2 0.298111 3.31809 0.298111 4.94403C0.298111 6.56997 1.62705 7.88806 3.26638 7.88806ZM0 11.218L0.00447923 11.2138C0.0927477 9.55777 1.47452 8.24196 3.16616 8.24196C4.01687 8.24196 4.78922 8.57473 5.3581 9.1162L7.97429 10.8995H8.93127L8.95014 10.8994C9.71516 10.8994 10.3353 11.5145 10.3353 12.2733C10.3353 13.0017 9.76377 13.5977 9.0412 13.6442L9.04135 13.6489H7.46821L6.43937 13.0801V18.9999H0V11.3823V11.218Z"/>
</mask>
<path d="M0.00447923 11.2138L0.6925 11.9395L0.98184 11.6651L1.00306 11.267L0.00447923 11.2138ZM0 11.218L-0.688021 10.4923L-1 10.7881V11.218H0ZM5.3581 9.1162L4.66867 9.84054L4.72762 9.89665L4.79486 9.94249L5.3581 9.1162ZM7.97429 10.8995L7.41105 11.7258L7.66588 11.8995H7.97429V10.8995ZM8.93127 10.8995V11.8995L8.93789 11.8995L8.93127 10.8995ZM8.95014 10.8994V9.89936L8.94352 9.8994L8.95014 10.8994ZM9.0412 13.6442L8.97697 12.6463L8.00906 12.7086L8.04176 13.6779L9.0412 13.6442ZM9.04135 13.6489V14.6489H10.0757L10.0408 13.6152L9.04135 13.6489ZM7.46821 13.6489L6.98437 14.5241L7.21019 14.6489H7.46821V13.6489ZM6.43937 13.0801L6.92321 12.205L5.43937 11.3846V13.0801H6.43937ZM6.43937 18.9999V19.9999H7.43937V18.9999H6.43937ZM0 18.9999H-1V19.9999H0V18.9999ZM5.23465 4.94403C5.23465 6.00997 4.36117 6.88806 3.26638 6.88806V8.88806C5.45025 8.88806 7.23465 7.12997 7.23465 4.94403H5.23465ZM3.26638 3C4.36117 3 5.23465 3.87809 5.23465 4.94403H7.23465C7.23465 2.75809 5.45025 1 3.26638 1V3ZM1.29811 4.94403C1.29811 3.87809 2.17159 3 3.26638 3V1C1.08251 1 -0.701889 2.75809 -0.701889 4.94403H1.29811ZM3.26638 6.88806C2.17159 6.88806 1.29811 6.00997 1.29811 4.94403H-0.701889C-0.701889 7.12997 1.08251 8.88806 3.26638 8.88806V6.88806ZM-0.683541 10.4881L-0.688021 10.4923L0.688021 11.9437L0.6925 11.9395L-0.683541 10.4881ZM3.16616 7.24196C0.947219 7.24196 -0.877311 8.96942 -0.994103 11.1605L1.00306 11.267C1.06281 10.1461 2.00183 9.24196 3.16616 9.24196V7.24196ZM6.04754 8.39185C5.29937 7.67974 4.28256 7.24196 3.16616 7.24196V9.24196C3.75118 9.24196 4.27907 9.46972 4.66867 9.84054L6.04754 8.39185ZM8.53753 10.0732L5.92134 8.2899L4.79486 9.94249L7.41105 11.7258L8.53753 10.0732ZM8.93127 9.89951H7.97429V11.8995H8.93127V9.89951ZM8.94352 9.8994L8.92465 9.89953L8.93789 11.8995L8.95676 11.8994L8.94352 9.8994ZM11.3353 12.2733C11.3353 10.9545 10.2597 9.89938 8.95014 9.89938V11.8994C9.17063 11.8994 9.33534 12.0745 9.33534 12.2733H11.3353ZM9.10542 14.6422C10.3438 14.5625 11.3353 13.5395 11.3353 12.2733H9.33534C9.33534 12.4639 9.18375 12.633 8.97697 12.6463L9.10542 14.6422ZM10.0408 13.6152L10.0406 13.6105L8.04176 13.6779L8.04192 13.6826L10.0408 13.6152ZM7.46821 14.6489H9.04135V12.6489H7.46821V14.6489ZM5.95553 13.9553L6.98437 14.5241L7.95205 12.7738L6.92321 12.205L5.95553 13.9553ZM7.43937 18.9999V13.0801H5.43937V18.9999H7.43937ZM0 19.9999H6.43937V17.9999H0V19.9999ZM-1 11.3823V18.9999H1V11.3823H-1ZM-1 11.218V11.3823H1V11.218H-1Z" fill="#616F82" mask="url(#path-1-inside-1_2923_1787)"/>
<mask id="path-3-inside-2_2923_1787" fill="white">
<path fill-rule="evenodd" clip-rule="evenodd" d="M13.7647 4.94403C13.7647 6.56997 15.0936 7.88806 16.733 7.88806C18.3723 7.88806 19.7013 6.56997 19.7013 4.94403C19.7013 3.31809 18.3723 2 16.733 2C15.0936 2 13.7647 3.31809 13.7647 4.94403ZM19.9955 11.2138L20 11.218V11.3823V18.9999H13.5606V13.0801L12.5318 13.6489H10.0293C10.5731 13.4003 10.9505 12.855 10.9505 12.2222C10.9505 11.6667 10.6597 11.1786 10.2209 10.8995H12.0257L14.6419 9.1162C15.2108 8.57473 15.9831 8.24196 16.8338 8.24196C18.5255 8.24196 19.9072 9.55777 19.9955 11.2138Z"/>
</mask>
<path d="M20 11.218H21V10.7881L20.688 10.4923L20 11.218ZM19.9955 11.2138L18.9969 11.267L19.0182 11.6652L19.3075 11.9395L19.9955 11.2138ZM20 18.9999V19.9999H21V18.9999H20ZM13.5606 18.9999H12.5606V19.9999H13.5606V18.9999ZM13.5606 13.0801H14.5606V11.3846L13.0768 12.205L13.5606 13.0801ZM12.5318 13.6489V14.6489H12.7898L13.0156 14.5241L12.5318 13.6489ZM10.0293 13.6489L9.61356 12.7394L10.0293 14.6489V13.6489ZM10.2209 10.8995V9.89951H6.78555L9.68418 11.7433L10.2209 10.8995ZM12.0257 10.8995V11.8995H12.3341L12.5889 11.7258L12.0257 10.8995ZM14.6419 9.1162L15.2051 9.94249L15.2724 9.89665L15.3313 9.84054L14.6419 9.1162ZM16.733 6.88806C15.6382 6.88806 14.7647 6.00997 14.7647 4.94403H12.7647C12.7647 7.12997 14.5491 8.88806 16.733 8.88806V6.88806ZM18.7013 4.94403C18.7013 6.00997 17.8278 6.88806 16.733 6.88806V8.88806C18.9168 8.88806 20.7013 7.12997 20.7013 4.94403H18.7013ZM16.733 3C17.8278 3 18.7013 3.87809 18.7013 4.94403H20.7013C20.7013 2.75809 18.9168 1 16.733 1V3ZM14.7647 4.94403C14.7647 3.87809 15.6382 3 16.733 3V1C14.5491 1 12.7647 2.75809 12.7647 4.94403H14.7647ZM20.688 10.4923L20.6835 10.4881L19.3075 11.9395L19.312 11.9437L20.688 10.4923ZM21 11.3823V11.218H19V11.3823H21ZM21 18.9999V11.3823H19V18.9999H21ZM13.5606 19.9999H20V17.9999H13.5606V19.9999ZM12.5606 13.0801V18.9999H14.5606V13.0801H12.5606ZM13.0156 14.5241L14.0445 13.9553L13.0768 12.205L12.0479 12.7738L13.0156 14.5241ZM10.0293 14.6489H12.5318V12.6489H10.0293V14.6489ZM9.9505 12.2222C9.9505 12.4458 9.81782 12.6461 9.61356 12.7394L10.445 14.5584C11.3283 14.1546 11.9505 13.2641 11.9505 12.2222H9.9505ZM9.68418 11.7433C9.84877 11.848 9.9505 12.0253 9.9505 12.2222H11.9505C11.9505 11.3081 11.4707 10.5093 10.7576 10.0557L9.68418 11.7433ZM12.0257 9.89951H10.2209V11.8995H12.0257V9.89951ZM14.0787 8.2899L11.4625 10.0732L12.5889 11.7258L15.2051 9.94249L14.0787 8.2899ZM16.8338 7.24196C15.7174 7.24196 14.7006 7.67974 13.9525 8.39185L15.3313 9.84054C15.7209 9.46972 16.2488 9.24196 16.8338 9.24196V7.24196ZM20.9941 11.1605C20.8773 8.96942 19.0528 7.24196 16.8338 7.24196V9.24196C17.9982 9.24196 18.9372 10.1461 18.9969 11.267L20.9941 11.1605Z" fill="#616F82" mask="url(#path-3-inside-2_2923_1787)"/>
</svg>
