<svg width="20" height="20" viewBox="0 0 20 20" fill="none" xmlns="http://www.w3.org/2000/svg">
<g clip-path="url(#clip0_2923_1820)">
<path d="M6.08154 12.1483H4.79492V10.1568C4.79492 9.50888 4.53629 8.92065 4.11728 8.48883C4.83292 8.01321 5.30579 7.20007 5.30579 6.27814C5.30579 4.81543 4.11575 3.62524 2.65289 3.62524C1.19003 3.62524 0 4.81528 0 6.27814C0 7.0751 0.353699 7.79044 0.911713 8.27719C0.356903 8.71664 0 9.39551 0 10.1568V16.0888H3.91113V19.9999H7.85156V13.9184C7.85156 12.9424 7.0575 12.1483 6.08154 12.1483ZM2.65289 4.79712C3.46954 4.79712 4.13391 5.46149 4.13391 6.27814C4.13391 7.09479 3.46954 7.75931 2.65289 7.75931C1.83624 7.75931 1.17188 7.09479 1.17188 6.27814C1.17188 5.46149 1.83624 4.79712 2.65289 4.79712ZM6.67969 18.828H5.08301V14.9169H1.17188V10.1568C1.17188 9.48096 1.72165 8.93118 2.39746 8.93118C3.07327 8.93118 3.62305 9.48096 3.62305 10.1568V13.3202H6.08154C6.41129 13.3202 6.67969 13.5886 6.67969 13.9184V18.828Z" fill="#616F82"/>
<path d="M19.0883 8.27719C19.6463 7.79044 20 7.0751 20 6.27814C20 4.81528 18.81 3.62524 17.3471 3.62524C15.8842 3.62524 14.6942 4.81528 14.6942 6.27814C14.6942 7.19992 15.1671 8.01321 15.8827 8.48883C15.4637 8.92065 15.2051 9.50888 15.2051 10.1566V12.1483H13.9185C12.9425 12.1483 12.1484 12.9424 12.1484 13.9184V19.9999H16.0889V16.0888H20V10.1568C20 9.39551 19.6431 8.71664 19.0883 8.27719ZM17.3471 4.79712C18.1638 4.79712 18.8281 5.46149 18.8281 6.27814C18.8281 7.09479 18.1638 7.75931 17.3471 7.75931C16.5305 7.75931 15.8661 7.09479 15.8661 6.27814C15.8661 5.46149 16.5305 4.79712 17.3471 4.79712ZM18.8281 14.9169H14.917V18.828H13.3203V13.9184C13.3203 13.5886 13.5887 13.3202 13.9185 13.3202H16.377V10.1568C16.377 9.48096 16.9267 8.93118 17.6025 8.93118C18.2784 8.93118 18.8281 9.48096 18.8281 10.1568V14.9169Z" fill="#616F82"/>
<path d="M13.75 4.7525V1.65359C13.75 0.74173 13.0083 0 12.0964 0H7.90359C6.99173 0 6.25 0.74173 6.25 1.65359V4.7525C6.25 5.66437 6.99173 6.40625 7.90359 6.40625H8.61343L10 8.80783L11.3866 6.40625H12.0964C13.0083 6.40625 13.75 5.66437 13.75 4.7525ZM12.5781 4.7525C12.5781 5.01831 12.3621 5.23438 12.0964 5.23438H10.71L10 6.46408L9.29001 5.23438H7.90359C7.63794 5.23438 7.42188 5.01831 7.42188 4.7525V1.65359C7.42188 1.38794 7.63794 1.17188 7.90359 1.17188H12.0964C12.3621 1.17188 12.5781 1.38794 12.5781 1.65359V4.7525Z" fill="#616F82"/>
</g>
<defs>
<clipPath id="clip0_2923_1820">
<rect width="20" height="20" fill="white"/>
</clipPath>
</defs>
</svg>
