<svg width="20" height="20" viewBox="0 0 20 20" fill="none" xmlns="http://www.w3.org/2000/svg">
<g clip-path="url(#clip0_2923_1917)">
<path d="M3.44141 7.03125H9.30078C9.62437 7.03125 9.88672 6.76891 9.88672 6.44531C9.88672 6.12172 9.62437 5.85938 9.30078 5.85938H3.44141C3.11781 5.85938 2.85547 6.12172 2.85547 6.44531C2.85547 6.76891 3.11781 7.03125 3.44141 7.03125Z" fill="#616F82"/>
<path d="M3.44141 9.375H9.30078C9.62437 9.375 9.88672 9.11266 9.88672 8.78906C9.88672 8.46547 9.62437 8.20312 9.30078 8.20312H3.44141C3.11781 8.20312 2.85547 8.46547 2.85547 8.78906C2.85547 9.11266 3.11781 9.375 3.44141 9.375Z" fill="#616F82"/>
<path d="M3.44141 11.7188H9.30078C9.62437 11.7188 9.88672 11.4564 9.88672 11.1328C9.88672 10.8092 9.62437 10.5469 9.30078 10.5469H3.44141C3.11781 10.5469 2.85547 10.8092 2.85547 11.1328C2.85547 11.4564 3.11781 11.7188 3.44141 11.7188Z" fill="#616F82"/>
<path d="M4.61328 14.0625C3.64402 14.0625 2.85547 14.8511 2.85547 15.8203C2.85547 16.7896 3.64402 17.5781 4.61328 17.5781C5.58254 17.5781 6.37109 16.7896 6.37109 15.8203C6.37109 14.8511 5.58254 14.0625 4.61328 14.0625ZM4.61328 16.4062C4.2902 16.4062 4.02734 16.1434 4.02734 15.8203C4.02734 15.4972 4.2902 15.2344 4.61328 15.2344C4.93637 15.2344 5.19922 15.4972 5.19922 15.8203C5.19922 16.1434 4.93637 16.4062 4.61328 16.4062Z" fill="#616F82"/>
<path d="M18.9012 7.04848L19.3155 6.63418C19.5444 6.40535 19.5444 6.03437 19.3155 5.80555C19.0868 5.57672 18.7157 5.57672 18.4869 5.80555L18.0726 6.21984L17.6582 5.80555C17.4295 5.57672 17.0584 5.57672 16.8296 5.80555L15.7461 6.8891V4.10156C15.7461 3.95207 15.6862 3.7993 15.5749 3.68773C15.5747 3.68754 15.5745 3.68734 15.5743 3.68715C15.4852 3.59801 12.0959 0.208633 12.0574 0.170313C11.9508 0.064375 11.8008 0 11.6445 0H1.09766C0.774062 0 0.511719 0.262344 0.511719 0.585938V19.4141C0.511719 19.7377 0.774062 20 1.09766 20H15.1602C15.4838 20 15.7461 19.7377 15.7461 19.4141V11.8609L19.3155 8.29145C19.5444 8.06262 19.5444 7.69164 19.3155 7.46281L18.9012 7.04848ZM11.3723 14.5773C10.8825 15.0672 10.2701 15.3899 9.60422 15.5168C9.73117 14.851 10.0539 14.2385 10.5437 13.7487L14.758 9.53441L15.5866 10.363L11.3723 14.5773ZM12.2304 2.00051L13.7455 3.51562H12.2304V2.00051ZM14.5742 18.8281H1.68355V1.17188H11.0586V4.10156C11.0586 4.42516 11.3209 4.6875 11.6445 4.6875H14.5742V8.06098L9.71508 12.92C8.90777 13.7273 8.43867 14.7825 8.3784 15.914L7.71453 16.5779C7.4857 16.8067 7.4857 17.1777 7.71453 17.4065C7.94332 17.6354 8.31434 17.6354 8.54316 17.4065L9.20703 16.7427C10.3385 16.6824 11.3937 16.2133 12.201 15.406L14.5742 13.0328V18.8281ZM16.4153 9.53441L15.5866 8.70578L17.2439 7.04852L18.0726 7.87715L16.4153 9.53441Z" fill="#616F82"/>
</g>
<defs>
<clipPath id="clip0_2923_1917">
<rect width="20" height="20" fill="white"/>
</clipPath>
</defs>
</svg>
