<svg width="20" height="20" viewBox="0 0 20 20" fill="none" xmlns="http://www.w3.org/2000/svg">
<g clip-path="url(#clip0_2923_1825)">
<path d="M12.3438 2.34375C12.3438 1.05133 11.2924 0 10 0C8.70758 0 7.65625 1.05133 7.65625 2.34375C7.65625 3.63617 8.70758 4.6875 10 4.6875C11.2924 4.6875 12.3438 3.63617 12.3438 2.34375ZM10 3.51562C9.35379 3.51562 8.82812 2.98996 8.82812 2.34375C8.82812 1.69754 9.35379 1.17188 10 1.17188C10.6462 1.17188 11.1719 1.69754 11.1719 2.34375C11.1719 2.98996 10.6462 3.51562 10 3.51562Z" fill="#616F82"/>
<path d="M12.3438 12.9297C12.3438 11.6373 11.2924 10.5859 10 10.5859C8.70758 10.5859 7.65625 11.6373 7.65625 12.9297C7.65625 14.2221 8.70758 15.2734 10 15.2734C11.2924 15.2734 12.3438 14.2221 12.3438 12.9297ZM10 14.1016C9.35379 14.1016 8.82812 13.5759 8.82812 12.9297C8.82812 12.2835 9.35379 11.7578 10 11.7578C10.6462 11.7578 11.1719 12.2835 11.1719 12.9297C11.1719 13.5759 10.6462 14.1016 10 14.1016Z" fill="#616F82"/>
<path d="M6.48438 12.9297C6.48438 11.8396 5.73624 10.9209 4.72656 10.6601V9.41406H15.2734V10.6601C14.2638 10.9209 13.5156 11.8396 13.5156 12.9297C13.5156 14.2221 14.567 15.2734 15.8594 15.2734C17.1518 15.2734 18.2031 14.2221 18.2031 12.9297C18.2031 11.8396 17.455 10.9209 16.4453 10.6601V9.41406H17.6172V8.24219H13.5156C13.5156 6.29242 11.9365 4.6875 10 4.6875C8.06564 4.6875 6.48438 6.29028 6.48438 8.24219H2.38281V9.41406H3.55469V10.6601C2.54501 10.9209 1.79688 11.8396 1.79688 12.9297C1.79688 14.2221 2.84821 15.2734 4.14062 15.2734C5.43304 15.2734 6.48438 14.2221 6.48438 12.9297ZM17.0312 12.9297C17.0312 13.5759 16.5056 14.1016 15.8594 14.1016C15.2132 14.1016 14.6875 13.5759 14.6875 12.9297C14.6875 12.2835 15.2132 11.7578 15.8594 11.7578C16.5056 11.7578 17.0312 12.2835 17.0312 12.9297ZM10 5.85938C11.2924 5.85938 12.3438 6.92825 12.3438 8.24219H7.65625C7.65625 6.92825 8.70758 5.85938 10 5.85938ZM4.14062 14.1016C3.49442 14.1016 2.96875 13.5759 2.96875 12.9297C2.96875 12.2835 3.49442 11.7578 4.14062 11.7578C4.78683 11.7578 5.3125 12.2835 5.3125 12.9297C5.3125 13.5759 4.78683 14.1016 4.14062 14.1016Z" fill="#616F82"/>
<path d="M0.625 18.8281V20H19.375V18.8281C19.375 16.8784 17.7959 15.2734 15.8594 15.2734C14.6451 15.2734 13.5699 15.8997 12.9297 16.8704C12.2913 15.9026 11.2175 15.2734 10 15.2734C8.78571 15.2734 7.71057 15.8997 7.07031 16.8704C6.43188 15.9026 5.35812 15.2734 4.14062 15.2734C2.20627 15.2734 0.625 16.8762 0.625 18.8281ZM15.8594 16.4453C17.1518 16.4453 18.2031 17.5142 18.2031 18.8281H13.5156C13.5156 17.5142 14.567 16.4453 15.8594 16.4453ZM10 16.4453C11.2924 16.4453 12.3438 17.5142 12.3438 18.8281H7.65625C7.65625 17.5142 8.70758 16.4453 10 16.4453ZM4.14062 16.4453C5.43304 16.4453 6.48438 17.5142 6.48438 18.8281H1.79688C1.79688 17.5142 2.84821 16.4453 4.14062 16.4453Z" fill="#616F82"/>
</g>
<defs>
<clipPath id="clip0_2923_1825">
<rect width="20" height="20" fill="white"/>
</clipPath>
</defs>
</svg>
