<svg width="20" height="20" viewBox="0 0 20 20" fill="none" xmlns="http://www.w3.org/2000/svg">
<path d="M15.823 7.9184V5.82156C15.823 2.61156 13.2114 0 10.0014 0C6.79133 0 4.17977 2.61156 4.17977 5.8216V7.91844H2.04492V20H17.9578V7.9184H15.823ZM10.0014 1.17188C12.5652 1.17188 14.6511 3.25773 14.6511 5.8216V7.91844H13.4792V5.82164C13.4793 3.90391 11.9191 2.34375 10.0014 2.34375C8.08367 2.34375 6.52352 3.90391 6.52352 5.8216V7.9184H5.35164V5.8216C5.35164 3.25773 7.4375 1.17188 10.0014 1.17188ZM12.3074 5.8216V7.9184H7.69539V5.8216C7.69539 4.55008 8.72988 3.51562 10.0014 3.51562C11.2729 3.51562 12.3074 4.55008 12.3074 5.8216ZM3.2168 18.8281V9.09027H16.7859V18.8281H3.2168Z" fill="#616F82"/>
<path d="M11.9718 12.9527C11.9718 11.8657 11.0875 10.9814 10.0006 10.9814C8.9136 10.9814 8.0293 11.8657 8.0293 12.9527C8.0293 13.4823 8.23883 13.9789 8.60434 14.3443L8.05254 16.9371H11.9486L11.3968 14.3443C11.7622 13.9789 11.9718 13.4823 11.9718 12.9527ZM10.4322 13.6252L10.0922 13.8441L10.5011 15.7652H9.50008L9.90891 13.8441L9.56895 13.6252C9.33868 13.4768 9.20122 13.2254 9.20122 12.9527C9.20118 12.5119 9.55977 12.1533 10.0006 12.1533C10.4413 12.1533 10.7999 12.5119 10.7999 12.9527C10.7999 13.2254 10.6625 13.4768 10.4322 13.6252Z" fill="#616F82"/>
</svg>
