<svg width="21" height="20" viewBox="0 0 21 20" fill="none" xmlns="http://www.w3.org/2000/svg">
<g clip-path="url(#clip0_2923_1881)">
<path d="M19.5808 17.5357H19.2475V8.84415C20.0001 8.35989 20.5 7.51548 20.5 6.55595C20.5 6.50497 20.4867 6.45485 20.4614 6.4106L18.1367 2.34231C17.9734 2.05665 17.6676 1.87915 17.3386 1.87915H3.66145C3.33242 1.87915 3.0266 2.05661 2.86332 2.34231L0.538594 6.4106C0.51332 6.45485 0.5 6.50501 0.5 6.55595C0.5 7.51548 0.999922 8.35989 1.7525 8.84415V17.5357H1.41922C1.25742 17.5357 1.12625 17.6668 1.12625 17.8286C1.12625 17.9904 1.25742 18.1216 1.41922 18.1216H19.5808C19.7426 18.1216 19.8737 17.9904 19.8737 17.8286C19.8737 17.6668 19.7426 17.5357 19.5808 17.5357ZM1.10613 6.84892H2.04535C2.20715 6.84892 2.33832 6.71774 2.33832 6.55595C2.33832 6.39415 2.20715 6.26298 2.04535 6.26298H1.29781L3.37207 2.63302C3.43129 2.52942 3.54215 2.46509 3.66145 2.46509H17.3386C17.4579 2.46509 17.5688 2.52942 17.6279 2.63302L19.7021 6.26298H18.9545C18.7926 6.26298 18.6615 6.39415 18.6615 6.55595C18.6615 6.71774 18.7926 6.84892 18.9545 6.84892H19.8938C19.7506 7.88735 18.8574 8.68974 17.7802 8.68974C16.7031 8.68974 15.8104 7.88728 15.6671 6.84892H17.7021C17.8639 6.84892 17.995 6.71774 17.995 6.55595C17.995 6.39415 17.8639 6.26298 17.7021 6.26298H3.29809C3.13629 6.26298 3.00512 6.39415 3.00512 6.55595C3.00512 6.71774 3.13629 6.84892 3.29809 6.84892H5.33289C5.18961 7.88728 4.29684 8.68974 3.21973 8.68974C2.14254 8.68974 1.24937 7.88735 1.10613 6.84892ZM15.0399 6.84892C14.8966 7.88728 14.0039 8.68974 12.9268 8.68974C11.8496 8.68974 10.9569 7.88728 10.8136 6.84892H15.0399ZM10.1864 6.84892C10.0431 7.88728 9.15035 8.68974 8.07324 8.68974C6.99613 8.68974 6.10336 7.88728 5.96008 6.84892H10.1864ZM17.0959 17.5357H13.9243V16.556H17.0959V17.5357ZM17.0959 15.97H13.9243V10.6065H17.0959V15.97ZM18.6616 17.5357H17.6818V10.3135C17.6818 10.1517 17.5507 10.0206 17.3889 10.0206H13.6313C13.4695 10.0206 13.3384 10.1517 13.3384 10.3135V17.5357H2.33844V9.12829C2.61504 9.22333 2.91129 9.27567 3.21973 9.27567C4.27813 9.27567 5.19723 8.66802 5.64648 7.78321C6.09574 8.66798 7.01484 9.27567 8.07324 9.27567C9.13164 9.27567 10.0507 8.66802 10.5 7.78321C10.9493 8.66798 11.8684 9.27567 12.9268 9.27567C13.9852 9.27567 14.9043 8.66802 15.3535 7.78321C15.8028 8.66798 16.7219 9.27567 17.7803 9.27567C18.0887 9.27567 18.385 9.22333 18.6616 9.12833V17.5357Z" fill="#616F82"/>
<path d="M12.0659 10.0205H3.61133C3.44953 10.0205 3.31836 10.1517 3.31836 10.3135V16.263C3.31836 16.4248 3.44953 16.5559 3.61133 16.5559H12.0659C12.2277 16.5559 12.3588 16.4248 12.3588 16.263V10.3135C12.3588 10.1516 12.2277 10.0205 12.0659 10.0205ZM11.7729 15.97H3.9043V10.6064H11.7729V15.97Z" fill="#616F82"/>
</g>
<defs>
<clipPath id="clip0_2923_1881">
<rect width="20" height="20" fill="white" transform="translate(0.5)"/>
</clipPath>
</defs>
</svg>
