<svg width="20" height="20" viewBox="0 0 20 20" fill="none" xmlns="http://www.w3.org/2000/svg">
<path d="M15.7999 0.169678C14.4069 0.169678 13.2754 1.30121 13.2754 2.69419C13.2754 4.08716 14.4069 5.2187 15.7999 5.2187C17.1929 5.2187 18.3244 4.08716 18.3244 2.69419C18.3244 1.30121 17.1929 0.169678 15.7999 0.169678ZM15.7999 4.21788C14.9584 4.21788 14.2762 3.53569 14.2762 2.69419C14.2762 1.85268 14.9584 1.17049 15.7999 1.17049C16.6414 1.17049 17.3236 1.85268 17.3236 2.69419C17.3236 3.53569 16.6414 4.21788 15.7999 4.21788Z" fill="#616F82"/>
<path d="M10.0011 5.2187C11.394 5.2187 12.5256 4.08716 12.5256 2.69419C12.5256 1.30121 11.394 0.169678 10.0011 0.169678C8.6081 0.169678 7.47656 1.30121 7.47656 2.69419C7.47656 4.08716 8.6081 5.2187 10.0011 5.2187ZM10.0011 1.17049C10.8426 1.17049 11.5248 1.85268 11.5248 2.69419C11.5248 3.53569 10.8426 4.21788 10.0011 4.21788C9.15957 4.21788 8.47738 3.53569 8.47738 2.69419C8.47738 1.85677 9.15957 1.17049 10.0011 1.17049Z" fill="#616F82"/>
<path d="M17.4964 5.72925H15.3477C15.0699 5.72925 14.8453 5.95392 14.8453 6.2317C14.8453 6.50948 15.0699 6.73415 15.3477 6.73415H17.4964C18.3256 6.73415 18.9997 7.40817 18.9997 8.23742V11.4359C18.9997 12.0609 18.6034 12.6288 18.0111 12.8453C17.815 12.9188 17.6843 13.1067 17.6843 13.315V17.833C17.6843 18.3804 17.239 18.8257 16.6917 18.8257H14.4204C14.1426 18.8257 13.918 19.0503 13.918 19.3281C13.918 19.6059 14.1426 19.8306 14.4204 19.8306H16.6917C17.7905 19.8306 18.6851 18.9359 18.6851 17.8371V13.6296C19.4858 13.1966 20.0005 12.351 20.0005 11.4278V8.22925C20.0005 6.84853 18.8771 5.72925 17.4964 5.72925Z" fill="#616F82"/>
<path d="M8.86369 19.8185H11.1349C12.2338 19.8185 13.1284 18.9239 13.1284 17.825V13.6298C13.929 13.1967 14.4438 12.3512 14.4438 11.428V8.22943C14.4438 6.84871 13.3204 5.72534 11.9397 5.72534H8.05487C6.67415 5.72534 5.55078 6.84871 5.55078 8.22943V11.428C5.55078 12.3512 6.06549 13.1967 6.86614 13.6298V17.825C6.87023 18.9239 7.76483 19.8185 8.86369 19.8185ZM6.55568 11.428V8.22943C6.55568 7.40018 7.2297 6.72616 8.05895 6.72616H11.9438C12.773 6.72616 13.447 7.40018 13.447 8.22943V11.428C13.447 12.053 13.0508 12.6208 12.4625 12.8373C12.2665 12.9108 12.1357 13.0987 12.1357 13.307V17.825C12.1357 18.3724 11.6905 18.8177 11.1431 18.8177H8.87186C8.32447 18.8177 7.87921 18.3724 7.87921 17.825V13.307C7.87921 13.0987 7.74849 12.9108 7.55242 12.8373C6.95193 12.6208 6.55568 12.053 6.55568 11.428Z" fill="#616F82"/>
<path d="M6.7248 2.69419C6.7248 1.30121 5.59327 0.169678 4.20029 0.169678C2.80732 0.169678 1.67578 1.30121 1.67578 2.69419C1.67578 4.08716 2.80732 5.2187 4.20029 5.2187C5.58918 5.2187 6.7248 4.08716 6.7248 2.69419ZM2.6766 2.69419C2.6766 1.85677 3.35879 1.17049 4.20029 1.17049C5.04179 1.17049 5.72398 1.85268 5.72398 2.69419C5.72398 3.53569 5.04179 4.21788 4.20029 4.21788C3.35879 4.21788 2.6766 3.53569 2.6766 2.69419Z" fill="#616F82"/>
<path d="M3.30882 19.8184H5.58007C5.85784 19.8184 6.08252 19.5937 6.08252 19.316C6.08252 19.0382 5.85784 18.8135 5.58007 18.8135H3.30882C2.76144 18.8135 2.31618 18.3683 2.31618 17.8209V13.307C2.31618 13.0986 2.18546 12.9107 1.98938 12.8372C1.40114 12.6207 1.0049 12.057 1.0049 11.4279V8.22936C1.0049 7.40011 1.67892 6.72609 2.50817 6.72609H4.64869C4.92647 6.72609 5.15114 6.50142 5.15114 6.22364C5.15114 5.94586 4.92647 5.72119 4.64869 5.72119H2.50409C1.12337 5.72119 0 6.84456 0 8.22528V11.4238C0 12.347 0.514706 13.1926 1.31536 13.6256V17.8209C1.31536 18.9238 2.20997 19.8184 3.30882 19.8184Z" fill="#616F82"/>
</svg>
