<svg width="20" height="20" viewBox="0 0 20 20" fill="none" xmlns="http://www.w3.org/2000/svg">
<g clip-path="url(#clip0_2923_1814)">
<path d="M15.1883 9.72458L7.85498 4.72458C7.75265 4.65524 7.62065 4.64758 7.51132 4.70524C7.40232 4.76291 7.33398 4.87624 7.33398 4.99991V14.9999C7.33398 15.1236 7.40232 15.2369 7.51165 15.2946C7.56032 15.3206 7.61398 15.3332 7.66732 15.3332C7.73298 15.3332 7.79865 15.3136 7.85498 15.2752L15.1883 10.2752C15.2793 10.2132 15.334 10.1102 15.334 9.99991C15.334 9.88958 15.2793 9.78658 15.1883 9.72458ZM8.00065 14.3689V5.63091L14.409 9.99991L8.00065 14.3689Z" fill="#616F82"/>
<path d="M10 0C4.486 0 0 4.486 0 10C0 15.514 4.486 20 10 20C15.514 20 20 15.514 20 10C20 4.486 15.514 0 10 0ZM10 19.3333C4.85367 19.3333 0.666667 15.1463 0.666667 10C0.666667 4.85367 4.85367 0.666667 10 0.666667C15.1463 0.666667 19.3333 4.85367 19.3333 10C19.3333 15.1463 15.1463 19.3333 10 19.3333Z" fill="#616F82"/>
</g>
<defs>
<clipPath id="clip0_2923_1814">
<rect width="20" height="20" fill="white"/>
</clipPath>
</defs>
</svg>
