<svg width="16" height="8" viewBox="0 0 16 8" fill="none" xmlns="http://www.w3.org/2000/svg">
<path d="M15.8167 4.44241C15.8165 4.4426 15.8163 4.44282 15.8161 4.443L12.5504 7.693C12.3057 7.93647 11.91 7.93556 11.6665 7.69088C11.423 7.44622 11.4239 7.0505 11.6686 6.807L13.8612 4.625L0.625 4.625C0.279813 4.625 0 4.34519 0 4C0 3.65482 0.279813 3.37501 0.625 3.37501L13.8612 3.37501L11.6686 1.19301C11.4239 0.949507 11.423 0.553788 11.6665 0.309132C11.91 0.0644135 12.3058 0.06357 12.5504 0.307007L15.8162 3.55701C15.8163 3.55719 15.8165 3.55741 15.8167 3.5576C16.0615 3.80191 16.0607 4.19891 15.8167 4.44241Z" fill="#4198C5"/>
</svg>
