<svg width="20" height="20" viewBox="0 0 20 20" fill="none" xmlns="http://www.w3.org/2000/svg">
<path d="M3.875 3.25H4.625V2H5.875V3.25H14.125V2H15.375V3.25H16.125C17.1589 3.25 18 4.09113 18 5.125V16.125C18 17.1589 17.1589 18 16.125 18H3.875C2.84113 18 2 17.1589 2 16.125V5.125C2 4.09113 2.84113 3.25 3.875 3.25ZM3.25 16.125C3.25 16.4696 3.53037 16.75 3.875 16.75H16.125C16.4696 16.75 16.75 16.4696 16.75 16.125V7.875H3.25V16.125ZM3.25 6.625H16.75V5.125C16.75 4.78038 16.4696 4.5 16.125 4.5H15.375V5.75H14.125V4.5H5.875V5.75H4.625V4.5H3.875C3.53037 4.5 3.25 4.78038 3.25 5.125V6.625Z" fill="#4198C5"/>
</svg>
