<svg width="20" height="20" viewBox="0 0 20 20" fill="none" xmlns="http://www.w3.org/2000/svg">
<g clip-path="url(#clip0_2214_11707)">
<path d="M19.6614 5.10632C19.4509 4.97611 19.1878 4.96423 18.9664 5.07489L14.2857 7.41558V5.71414C14.2857 4.53068 13.3263 3.57129 12.1428 3.57129H2.14286C0.959388 3.57129 0 4.53068 0 5.71414V14.2856C0 15.469 0.959388 16.4284 2.14286 16.4284H12.1428C13.3263 16.4284 14.2857 15.469 14.2857 14.2856V12.5841L18.9664 14.9284C19.3193 15.1047 19.7483 14.9617 19.9247 14.6088C19.9748 14.5084 20.0006 14.3977 20 14.2856V5.71414C20.0001 5.46654 19.872 5.23656 19.6614 5.10632ZM12.8571 14.2856C12.8571 14.6801 12.5373 14.9999 12.1428 14.9999H2.14286C1.74835 14.9999 1.42856 14.6801 1.42856 14.2856V5.71414C1.42856 5.31964 1.74835 4.99985 2.14286 4.99985H12.1428C12.5373 4.99985 12.8571 5.31964 12.8571 5.71414V14.2856ZM18.5714 13.1299L14.2857 10.987V9.01276L18.5714 6.8699V13.1299Z" fill="#4198C5"/>
<path d="M7.1428 7.14282C5.56483 7.14282 4.28564 8.42201 4.28564 9.99997C4.28564 11.5779 5.56483 12.8571 7.1428 12.8571C8.72077 12.8571 9.99995 11.5779 9.99995 9.99997C9.99995 8.42201 8.72073 7.14282 7.1428 7.14282ZM7.1428 11.4285C6.35384 11.4285 5.71424 10.7889 5.71424 9.99997C5.71424 9.21101 6.35384 8.57142 7.1428 8.57142C7.93176 8.57142 8.57136 9.21101 8.57136 9.99997C8.57136 10.7889 7.93176 11.4285 7.1428 11.4285Z" fill="#4198C5"/>
</g>
<defs>
<clipPath id="clip0_2214_11707">
<rect width="20" height="20" fill="white"/>
</clipPath>
</defs>
</svg>
