<svg width="14" height="16" viewBox="0 0 14 16" fill="none" xmlns="http://www.w3.org/2000/svg">
<g clip-path="url(#clip0_2193_16363)">
<path d="M13.4323 7.42671C13.0323 7.28647 12.5871 7.48159 12.4387 7.85964C12.1097 8.7072 9.94195 9.62183 7.01292 9.62183C4.16131 9.62183 2.02582 8.75598 1.61292 7.92062C1.43227 7.55476 0.967758 7.39623 0.580662 7.56696C0.193565 7.73769 0.0258228 8.17671 0.206468 8.54257C0.961307 10.067 3.69679 11.0852 7.01292 11.0852C8.59356 11.0852 10.129 10.8413 11.3484 10.3901C12.6903 9.89622 13.5742 9.195 13.8968 8.35964C14.0387 7.98769 13.8323 7.56696 13.4323 7.42671Z" fill="#4198C5"/>
<path d="M13.4323 11.1584C13.0323 11.0182 12.5871 11.2133 12.4387 11.5913C12.1097 12.4389 9.94195 13.3535 7.01292 13.3535C4.16131 13.3535 2.02582 12.4877 1.61292 11.6523C1.43227 11.2865 0.967758 11.1279 0.580662 11.2986C0.193565 11.4694 0.0258228 11.9084 0.206468 12.2743C0.961307 13.7986 3.69679 14.8169 7.01292 14.8169C8.59356 14.8169 10.129 14.573 11.3484 14.1218C12.6903 13.6279 13.5742 12.9267 13.8968 12.0913C14.0387 11.7133 13.8323 11.2925 13.4323 11.1584Z" fill="#4198C5"/>
<path d="M7.0129 0.5177C3.0129 0.5177 0 1.98721 0 3.93843C0 5.88965 3.0129 7.35916 7.0129 7.35916C11.0129 7.35916 14.0258 5.88965 14.0258 3.93843C14.0258 1.98721 11.0129 0.5177 7.0129 0.5177ZM7.0129 5.89575C3.67742 5.89575 1.54839 4.73721 1.54839 3.93843C1.54839 3.13965 3.67742 1.98111 7.0129 1.98111C10.3484 1.98111 12.4774 3.13965 12.4774 3.93843C12.4774 4.73721 10.3484 5.89575 7.0129 5.89575Z" fill="#4198C5"/>
</g>
<defs>
<clipPath id="clip0_2193_16363">
<rect width="14" height="15" fill="white" transform="translate(0 0.5)"/>
</clipPath>
</defs>
</svg>
