<svg width="20" height="20" viewBox="0 0 20 20" fill="none" xmlns="http://www.w3.org/2000/svg">
<g clip-path="url(#clip0_2192_15584)">
<path d="M17.9972 3.54468C17.9972 2.69295 17.3043 2 16.4526 2C15.6009 2 14.9079 2.69295 14.9079 3.54468C14.9079 4.163 15.2733 4.69732 15.7992 4.94392L15.1421 6.44441C14.88 6.35585 14.5997 6.3071 14.308 6.3071C14.0184 6.3071 13.74 6.35516 13.4794 6.44254L12.8184 4.94333C13.3437 4.69648 13.7084 4.16247 13.7084 3.54468C13.7084 2.69295 13.0155 2 12.1637 2C11.312 2 10.6191 2.69295 10.6191 3.54468C10.6191 4.28654 11.1448 4.90773 11.8433 5.0557L12.6555 6.8977C12.2147 7.25855 11.8941 7.76046 11.7621 8.33372C10.8968 7.10664 9.46873 6.30347 7.85645 6.30347C5.22294 6.30347 3.08038 8.44601 3.08038 11.0795C3.08038 12.6508 3.84324 14.0472 5.01788 14.9181H4.61756C3.17666 14.9181 2.00439 16.0904 2.00439 17.5313V18H14.308C15.7489 18 16.9212 16.8278 16.9212 15.3869V8.92026C16.9212 8.108 16.5486 7.38118 15.9654 6.90151L16.7738 5.05545C17.4719 4.9072 17.9972 4.28622 17.9972 3.54468ZM11.5566 3.54468C11.5566 3.20989 11.829 2.93751 12.1637 2.93751C12.4985 2.93751 12.7709 3.20989 12.7709 3.54468C12.7709 3.87947 12.4985 4.15181 12.1637 4.15181C11.829 4.15181 11.5566 3.87947 11.5566 3.54468ZM4.01789 11.0795C4.01789 8.96298 5.73986 7.24099 7.85645 7.24099C9.96983 7.24099 11.6896 8.95777 11.6949 11.0699V13.2424C11.6949 14.1664 10.9432 14.9181 10.0192 14.9181H7.85642C5.73986 14.9181 4.01789 13.1961 4.01789 11.0795ZM15.9837 15.3869C15.9837 16.3108 15.232 17.0625 14.3081 17.0625H3.00866C3.21191 16.3659 3.85627 15.8556 4.61759 15.8556H10.0192C11.4601 15.8556 12.6324 14.6834 12.6324 13.2425V8.92026C12.6324 7.99631 13.3841 7.24461 14.3081 7.24461C15.232 7.24461 15.9837 7.99631 15.9837 8.92026V15.3869ZM16.4526 2.93751C16.7874 2.93751 17.0597 3.20989 17.0597 3.54468C17.0597 3.87947 16.7874 4.15181 16.4526 4.15181C16.1178 4.15181 15.8454 3.87947 15.8454 3.54468C15.8454 3.20989 16.1178 2.93751 16.4526 2.93751Z" fill="#4198C5"/>
<path d="M7.85097 8.45532C6.40629 8.45532 5.23096 9.63065 5.23096 11.0753C5.23096 12.52 6.40629 13.6953 7.85097 13.6953C9.29565 13.6953 10.471 12.52 10.471 11.0753C10.471 9.63065 9.29565 8.45532 7.85097 8.45532ZM7.85097 12.7579C6.92323 12.7579 6.16847 12.0031 6.16847 11.0754C6.16847 10.1476 6.92323 9.39287 7.85097 9.39287C8.7787 9.39287 9.53346 10.1476 9.53346 11.0754C9.53346 12.0031 8.7787 12.7579 7.85097 12.7579Z" fill="#4198C5"/>
<path d="M7.37793 10.6064H8.32424V11.5439H7.37793V10.6064Z" fill="#4198C5"/>
</g>
<defs>
<clipPath id="clip0_2192_15584">
<rect width="16" height="16" fill="white" transform="translate(2 2)"/>
</clipPath>
</defs>
</svg>
