<svg width="14" height="17" viewBox="0 0 14 17" fill="none" xmlns="http://www.w3.org/2000/svg">
<path fill-rule="evenodd" clip-rule="evenodd" d="M0.89958 9.2217L0.899469 9.22147C0.513289 8.39126 0.319092 7.49602 0.319092 6.56771C0.319092 2.98308 3.28279 0.0996094 6.8885 0.0996094C10.4944 0.0996094 13.458 2.98306 13.4584 6.56761V6.56771C13.4584 7.49588 13.2644 8.3912 12.8779 9.22163L12.8778 9.22178C11.4189 12.3554 8.66198 15.6073 7.87588 16.5051L7.8751 16.506C7.62401 16.7921 7.26312 16.952 6.88865 16.952C6.51419 16.952 6.15329 16.7921 5.90221 16.506L5.9015 16.5052C5.11501 15.6071 2.35811 12.3551 0.89958 9.2217ZM6.65378 15.8463C5.8685 14.9497 3.19868 11.7912 1.80617 8.7997C1.48305 8.10505 1.31909 7.35417 1.31909 6.56771C1.31909 3.55261 3.81768 1.09961 6.8885 1.09961C9.95948 1.09961 12.4581 3.55261 12.4584 6.56771C12.4584 7.35417 12.2946 8.10505 11.9713 8.7997C10.5783 11.7915 7.90849 14.9498 7.12352 15.8463C7.06469 15.9134 6.97892 15.952 6.88865 15.952C6.79839 15.952 6.71262 15.9134 6.65378 15.8463ZM6.88858 10.4539C4.80084 10.4539 3.10376 8.75692 3.10376 6.66917C3.10376 4.58131 4.80081 2.88428 6.88858 2.88428C8.97633 2.88428 10.6733 4.58126 10.6734 6.66908M6.88858 10.4539C8.97639 10.4539 10.6736 8.75701 10.6734 6.66917L6.88858 10.4539ZM4.10376 6.66917C4.10376 8.20461 5.3531 9.45392 6.88858 9.45392C8.42421 9.45392 9.67355 8.20461 9.6734 6.66917C9.6734 5.13359 8.42406 3.88428 6.88858 3.88428C5.3531 3.88428 4.10376 5.13359 4.10376 6.66917Z" fill="#4198C5"/>
</svg>
