<svg width="20" height="17" viewBox="0 0 20 17" fill="none" xmlns="http://www.w3.org/2000/svg">
<path fill-rule="evenodd" clip-rule="evenodd" d="M3.95486 6.30491C5.43842 6.30491 6.64109 5.11737 6.64109 3.65246C6.64109 2.18754 5.43842 1 3.95486 1C2.47129 1 1.26862 2.18754 1.26862 3.65246C1.26862 5.11737 2.47129 6.30491 3.95486 6.30491ZM1 9.30501L1.00405 9.30119C1.08393 7.80919 2.33441 6.62369 3.86532 6.62369C4.63522 6.62369 5.3342 6.92352 5.84903 7.41138L8.21659 9.01805H9.0985C9.79083 9.01805 10.3521 9.57223 10.3521 10.2559C10.3521 10.9117 9.83546 11.4485 9.18213 11.491L9.18227 11.4952H7.7586L6.82752 10.9827V16.3162H1V9.45297V9.30501Z" fill="#EC8532"/>
<path d="M1.00405 9.30119L1.17565 9.483L1.24835 9.41438L1.2537 9.31455L1.00405 9.30119ZM1 9.30501L0.828406 9.1232L0.75 9.1972V9.30501H1ZM5.84903 7.41138L5.67707 7.59285L5.69183 7.60683L5.70865 7.61825L5.84903 7.41138ZM8.21659 9.01805L8.07621 9.22491L8.13978 9.26805H8.21659V9.01805ZM9.18213 11.491L9.1659 11.2415L8.92406 11.2572L8.93227 11.4994L9.18213 11.491ZM9.18227 11.4952V11.7452H9.44088L9.43212 11.4867L9.18227 11.4952ZM7.7586 11.4952L7.63805 11.7142L7.69435 11.7452H7.7586V11.4952ZM6.82752 10.9827L6.94806 10.7637L6.57752 10.5597V10.9827H6.82752ZM6.82752 16.3162V16.5662H7.07752V16.3162H6.82752ZM1 16.3162H0.75V16.5662H1V16.3162ZM6.39109 3.65246C6.39109 4.97632 5.30334 6.05491 3.95486 6.05491V6.55491C5.5735 6.55491 6.89109 5.25841 6.89109 3.65246H6.39109ZM3.95486 1.25C5.30334 1.25 6.39109 2.32859 6.39109 3.65246H6.89109C6.89109 2.0465 5.5735 0.75 3.95486 0.75V1.25ZM1.51862 3.65246C1.51862 2.32859 2.60637 1.25 3.95486 1.25V0.75C2.33621 0.75 1.01862 2.0465 1.01862 3.65246H1.51862ZM3.95486 6.05491C2.60637 6.05491 1.51862 4.97632 1.51862 3.65246H1.01862C1.01862 5.25841 2.33621 6.55491 3.95486 6.55491V6.05491ZM0.832459 9.11938L0.828406 9.1232L1.17159 9.48682L1.17565 9.483L0.832459 9.11938ZM3.86532 6.37369C2.20358 6.37369 0.841498 7.6611 0.75441 9.28782L1.2537 9.31455C1.32636 7.95727 2.46525 6.87369 3.86532 6.87369V6.37369ZM6.02099 7.22992C5.46127 6.69951 4.70129 6.37369 3.86532 6.37369V6.87369C4.56914 6.87369 5.20713 7.14753 5.67707 7.59285L6.02099 7.22992ZM8.35697 8.81118L5.98941 7.20452L5.70865 7.61825L8.07621 9.22491L8.35697 8.81118ZM9.0985 8.76805H8.21659V9.26805H9.0985V8.76805ZM10.6021 10.2559C10.6021 9.43119 9.92591 8.76805 9.0985 8.76805V9.26805C9.65575 9.26805 10.1021 9.71328 10.1021 10.2559H10.6021ZM9.19835 11.7404C9.9796 11.6896 10.6021 11.0471 10.6021 10.2559H10.1021C10.1021 10.7764 9.69132 11.2073 9.1659 11.2415L9.19835 11.7404ZM9.43212 11.4867L9.43198 11.4825L8.93227 11.4994L8.93241 11.5036L9.43212 11.4867ZM7.7586 11.7452H9.18227V11.2452H7.7586V11.7452ZM6.70697 11.2017L7.63805 11.7142L7.87915 11.2761L6.94806 10.7637L6.70697 11.2017ZM7.07752 16.3162V10.9827H6.57752V16.3162H7.07752ZM1 16.5662H6.82752V16.0662H1V16.5662ZM0.75 9.45297V16.3162H1.25V9.45297H0.75ZM0.75 9.30501V9.45297H1.25V9.30501H0.75Z" fill="white"/>
<path fill-rule="evenodd" clip-rule="evenodd" d="M13.46 3.65246C13.46 5.11737 14.6626 6.30491 16.1462 6.30491C17.6298 6.30491 18.8324 5.11737 18.8324 3.65246C18.8324 2.18754 17.6298 1 16.1462 1C14.6626 1 13.46 2.18754 13.46 3.65246ZM19.097 9.30119L19.101 9.30501V9.45297V16.3162H13.2735V10.9827L12.3424 11.4952H10.0752C10.5673 11.2712 10.9088 10.7799 10.9088 10.2097C10.9088 9.70929 10.6456 9.26953 10.2484 9.01805H11.8845L14.252 7.41138C14.7668 6.92352 15.4658 6.62369 16.2357 6.62369C17.7666 6.62369 19.0171 7.80919 19.097 9.30119Z" fill="#EC8532"/>
<path d="M19.101 9.30501H19.351V9.1972L19.2726 9.1232L19.101 9.30501ZM19.097 9.30119L18.8473 9.31455L18.8527 9.41438L18.9254 9.483L19.097 9.30119ZM19.101 16.3162V16.5662H19.351V16.3162H19.101ZM13.2735 16.3162H13.0235V16.5662H13.2735V16.3162ZM13.2735 10.9827H13.5235V10.5597L13.153 10.7637L13.2735 10.9827ZM12.3424 11.4952V11.7452H12.4067L12.463 11.7142L12.3424 11.4952ZM10.0752 11.4952L9.97163 11.2676L10.0752 11.7452V11.4952ZM10.2484 9.01805V8.76805H9.38631L10.1147 9.22926L10.2484 9.01805ZM11.8845 9.01805V9.26805H11.9613L12.0248 9.22491L11.8845 9.01805ZM14.252 7.41138L14.3924 7.61825L14.4092 7.60683L14.424 7.59285L14.252 7.41138ZM16.1462 6.05491C14.7977 6.05491 13.71 4.97632 13.71 3.65246H13.21C13.21 5.25841 14.5275 6.55491 16.1462 6.55491V6.05491ZM18.5824 3.65246C18.5824 4.97632 17.4947 6.05491 16.1462 6.05491V6.55491C17.7648 6.55491 19.0824 5.25841 19.0824 3.65246H18.5824ZM16.1462 1.25C17.4947 1.25 18.5824 2.32859 18.5824 3.65246H19.0824C19.0824 2.0465 17.7648 0.75 16.1462 0.75V1.25ZM13.71 3.65246C13.71 2.32859 14.7977 1.25 16.1462 1.25V0.75C14.5275 0.75 13.21 2.0465 13.21 3.65246H13.71ZM19.2726 9.1232L19.2686 9.11937L18.9254 9.483L18.9295 9.48683L19.2726 9.1232ZM19.351 9.45297V9.30501H18.851V9.45297H19.351ZM19.351 16.3162V9.45297H18.851V16.3162H19.351ZM13.2735 16.5662H19.101V16.0662H13.2735V16.5662ZM13.0235 10.9827V16.3162H13.5235V10.9827H13.0235ZM12.463 11.7142L13.3941 11.2017L13.153 10.7637L12.2219 11.2761L12.463 11.7142ZM10.0752 11.7452H12.3424V11.2452H10.0752V11.7452ZM10.6588 10.2097C10.6588 10.677 10.3791 11.0822 9.97163 11.2676L10.1788 11.7227C10.7555 11.4602 11.1588 10.8828 11.1588 10.2097H10.6588ZM10.1147 9.22926C10.4434 9.43737 10.6588 9.79946 10.6588 10.2097H11.1588C11.1588 9.61912 10.8479 9.10168 10.3822 8.80683L10.1147 9.22926ZM11.8845 8.76805H10.2484V9.26805H11.8845V8.76805ZM14.1116 7.20452L11.7441 8.81118L12.0248 9.22491L14.3924 7.61825L14.1116 7.20452ZM16.2357 6.37369C15.3998 6.37369 14.6398 6.69951 14.0801 7.22992L14.424 7.59285C14.8939 7.14753 15.5319 6.87369 16.2357 6.87369V6.37369ZM19.3466 9.28782C19.2595 7.6611 17.8975 6.37369 16.2357 6.37369V6.87369C17.6358 6.87369 18.7747 7.95727 18.8473 9.31455L19.3466 9.28782Z" fill="white"/>
</svg>
