<svg width="17" height="15" viewBox="0 0 17 15" fill="none" xmlns="http://www.w3.org/2000/svg">
<path fill-rule="evenodd" clip-rule="evenodd" d="M14.7393 13.9818H2.36406C1.3382 13.9818 0.503906 13.1301 0.503906 12.0829V4.38217C0.503906 3.33498 1.3382 2.48333 2.36406 2.48333H4.88923L5.11026 1.72219C5.20047 1.3057 5.57346 1 6.01214 1H11.0916C11.5179 1 11.8951 1.30412 11.995 1.72598L12.0009 1.75193L12.2024 2.48328H14.7396C15.7655 2.48328 16.5998 3.33493 16.5998 4.38212V12.0828C16.5995 13.1301 15.7649 13.9818 14.7393 13.9818ZM2.36405 3.11629C1.68011 3.11629 1.12396 3.68406 1.12396 4.38217V12.0829C1.12396 12.7811 1.68016 13.3488 2.36405 13.3488H14.7393C15.4233 13.3488 15.9794 12.781 15.9794 12.0829V4.38217C15.9794 3.68401 15.4232 3.11629 14.7393 3.11629H11.7327L11.3933 1.88045C11.362 1.73677 11.2351 1.63267 11.0913 1.63267H6.0118C5.86578 1.63267 5.74176 1.73455 5.70982 1.8808L5.35145 3.11629H2.36405ZM4.61701 8.0523C4.61701 10.267 6.38233 12.0687 8.55217 12.0687C10.7214 12.0687 12.4864 10.2667 12.4864 8.0523C12.4864 5.83762 10.7214 4.03565 8.55217 4.03565C6.38228 4.03565 4.61701 5.83733 4.61701 8.0523ZM8.55218 4.66827C6.72425 4.66827 5.23708 6.18606 5.23708 8.05201C5.23708 9.91795 6.7243 11.4354 8.55218 11.4354C10.3798 11.4354 11.8664 9.91761 11.8664 8.05201C11.8663 6.18606 10.3794 4.66827 8.55218 4.66827ZM13.7671 4.87494C13.7671 4.55274 14.0229 4.29102 14.3391 4.29102C14.6547 4.29102 14.9105 4.55274 14.9108 4.87494C14.9108 5.19738 14.655 5.4588 14.3391 5.4588C14.0228 5.4588 13.7671 5.19742 13.7671 4.87494Z" fill="#6C7A8C"/>
<path d="M4.88923 2.48333V2.68333H5.03941L5.0813 2.5391L4.88923 2.48333ZM5.11026 1.72219L5.30279 1.7781L5.30573 1.76453L5.11026 1.72219ZM11.995 1.72598L12.1901 1.68175L12.1896 1.67991L11.995 1.72598ZM12.0009 1.75193L11.8056 1.79621L11.8081 1.80506L12.0009 1.75193ZM12.2024 2.48328L12.0096 2.5364L12.05 2.68328H12.2024V2.48328ZM16.5998 12.0828L16.7998 12.0829V12.0828H16.5998ZM11.7327 3.11629L11.5399 3.16927L11.5803 3.31629H11.7327V3.11629ZM11.3933 1.88045L11.1976 1.92309L11.2004 1.93343L11.3933 1.88045ZM5.70982 1.8808L5.90234 1.93664L5.90522 1.92346L5.70982 1.8808ZM5.35145 3.11629V3.31629H5.50169L5.54354 3.17201L5.35145 3.11629ZM12.4864 8.0523L12.6864 8.05231V8.0523H12.4864ZM11.8664 8.05201H12.0664V8.052L11.8664 8.05201ZM14.9108 4.87494H15.1108V4.87476L14.9108 4.87494ZM2.36406 14.1818H14.7393V13.7818H2.36406V14.1818ZM0.303906 12.0829C0.303906 13.2367 1.22388 14.1818 2.36406 14.1818V13.7818C1.45252 13.7818 0.703906 13.0236 0.703906 12.0829H0.303906ZM0.303906 4.38217V12.0829H0.703906V4.38217H0.303906ZM2.36406 2.28333C1.22388 2.28333 0.303906 3.22842 0.303906 4.38217H0.703906C0.703906 3.44153 1.45252 2.68333 2.36406 2.68333V2.28333ZM4.88923 2.28333H2.36406V2.68333H4.88923V2.28333ZM4.9182 1.66641L4.69717 2.42755L5.0813 2.5391L5.30233 1.77796L4.9182 1.66641ZM6.01214 0.8C5.47938 0.8 5.02495 1.17129 4.9148 1.67985L5.30573 1.76453C5.376 1.44011 5.66753 1.2 6.01214 1.2V0.8ZM11.0916 0.8H6.01214V1.2H11.0916V0.8ZM12.1896 1.67991C12.0691 1.17056 11.6134 0.8 11.0916 0.8V1.2C11.4224 1.2 11.7212 1.43768 11.8004 1.77205L12.1896 1.67991ZM12.1959 1.7077L12.1901 1.68175L11.8 1.77021L11.8058 1.79616L12.1959 1.7077ZM12.3952 2.43016L12.1937 1.69881L11.8081 1.80506L12.0096 2.5364L12.3952 2.43016ZM14.7396 2.28328H12.2024V2.68328H14.7396V2.28328ZM16.7998 4.38212C16.7998 3.22837 15.8798 2.28328 14.7396 2.28328V2.68328C15.6512 2.68328 16.3998 3.44148 16.3998 4.38212H16.7998ZM16.7998 12.0828V4.38212H16.3998V12.0828H16.7998ZM14.7393 14.1818C15.8792 14.1818 16.7994 13.2367 16.7998 12.0829L16.3998 12.0828C16.3995 13.0236 15.6506 13.7818 14.7393 13.7818V14.1818ZM1.32396 4.38217C1.32396 3.79061 1.79444 3.31629 2.36405 3.31629V2.91629C1.56579 2.91629 0.923962 3.57751 0.923962 4.38217H1.32396ZM1.32396 12.0829V4.38217H0.923962V12.0829H1.32396ZM2.36405 13.1488C1.79447 13.1488 1.32396 12.6745 1.32396 12.0829H0.923962C0.923962 12.8876 1.56585 13.5488 2.36405 13.5488V13.1488ZM14.7393 13.1488H2.36405V13.5488H14.7393V13.1488ZM15.7794 12.0829C15.7794 12.6745 15.309 13.1488 14.7393 13.1488V13.5488C15.5376 13.5488 16.1794 12.8876 16.1794 12.0829H15.7794ZM15.7794 4.38217V12.0829H16.1794V4.38217H15.7794ZM14.7393 3.31629C15.3089 3.31629 15.7794 3.79057 15.7794 4.38217H16.1794C16.1794 3.57745 15.5375 2.91629 14.7393 2.91629V3.31629ZM11.7327 3.31629H14.7393V2.91629H11.7327V3.31629ZM11.2004 1.93343L11.5399 3.16927L11.9256 3.06332L11.5861 1.82748L11.2004 1.93343ZM11.0913 1.83267C11.138 1.83267 11.1859 1.86819 11.1979 1.92303L11.5887 1.83788C11.538 1.60534 11.3323 1.43267 11.0913 1.43267V1.83267ZM6.0118 1.83267H11.0913V1.43267H6.0118V1.83267ZM5.90522 1.92346C5.91782 1.86574 5.96316 1.83267 6.0118 1.83267V1.43267C5.7684 1.43267 5.56569 1.60336 5.51443 1.83813L5.90522 1.92346ZM5.54354 3.17201L5.90191 1.93652L5.51774 1.82508L5.15937 3.06058L5.54354 3.17201ZM2.36405 3.31629H5.35145V2.91629H2.36405V3.31629ZM8.55217 11.8687C6.49661 11.8687 4.81701 10.1604 4.81701 8.0523H4.41701C4.41701 10.3736 6.26804 12.2687 8.55217 12.2687V11.8687ZM12.2864 8.0523C12.2864 10.1602 10.6071 11.8687 8.55217 11.8687V12.2687C10.8357 12.2687 12.6864 10.3732 12.6864 8.05231L12.2864 8.0523ZM8.55217 4.23565C10.6071 4.23565 12.2864 5.94415 12.2864 8.0523H12.6864C12.6864 5.7311 10.8358 3.83565 8.55217 3.83565V4.23565ZM4.81701 8.0523C4.81701 5.94391 6.49657 4.23565 8.55217 4.23565V3.83565C6.26798 3.83565 4.41701 5.73075 4.41701 8.0523H4.81701ZM5.43708 8.05201C5.43708 6.29264 6.83855 4.86827 8.55218 4.86827V4.46827C6.60995 4.46827 5.03708 6.07949 5.03708 8.05201H5.43708ZM8.55218 11.2354C6.83857 11.2354 5.43708 9.81134 5.43708 8.05201H5.03708C5.03708 10.0246 6.61003 11.6354 8.55218 11.6354V11.2354ZM11.6664 8.05201C11.6664 9.81107 10.2654 11.2354 8.55218 11.2354V11.6354C10.4941 11.6354 12.0664 10.0241 12.0664 8.05201H11.6664ZM8.55218 4.86827C10.2651 4.86827 11.6663 6.29259 11.6664 8.05201L12.0664 8.052C12.0663 6.07954 10.4938 4.46827 8.55218 4.46827V4.86827ZM14.3391 4.09102C13.9084 4.09102 13.5671 4.44632 13.5671 4.87494H13.9671C13.9671 4.65917 14.1373 4.49102 14.3391 4.49102V4.09102ZM15.1108 4.87476C15.1104 4.44646 14.7693 4.09102 14.3391 4.09102V4.49102C14.5401 4.49102 14.7106 4.65903 14.7108 4.87512L15.1108 4.87476ZM14.3391 5.6588C14.7695 5.6588 15.1108 5.30379 15.1108 4.87494H14.7108C14.7108 5.09096 14.5406 5.2588 14.3391 5.2588V5.6588ZM13.5671 4.87494C13.5671 5.30392 13.9085 5.6588 14.3391 5.6588V5.2588C14.1372 5.2588 13.9671 5.09092 13.9671 4.87494H13.5671Z" fill="#6C7A8C"/>
</svg>
