<?xml version="1.0" encoding="UTF-8"?>
<svg width="18px" height="15px" viewBox="0 0 18 15" version="1.1" xmlns="http://www.w3.org/2000/svg" xmlns:xlink="http://www.w3.org/1999/xlink">
    <!-- Generator: Sketch 61.2 (89653) - https://sketch.com -->
    <title>Combined Shape</title>
    <desc>Created with Sketch.</desc>
    <g id="Магазин" stroke="none" stroke-width="1" fill="none" fill-rule="evenodd">
        <g id="Каталог-|-1-1" transform="translate(-1494.000000, -108.000000)" fill="#6C7A8C" fill-rule="nonzero">
            <path d="M1502.625,120.75 C1503.24528,120.75 1503.75,121.254866 1503.75,121.875 C1503.75,122.495134 1503.24528,123 1502.625,123 C1502.00487,123 1501.5,122.495134 1501.5,121.875 C1501.5,121.254866 1502.00487,120.75 1502.625,120.75 Z M1508.625,120.75 C1509.24513,120.75 1509.75,121.254866 1509.75,121.875 C1509.75,122.495134 1509.24513,123 1508.625,123 C1508.00472,123 1507.5,122.495134 1507.5,121.875 C1507.5,121.254866 1508.00472,120.75 1508.625,120.75 Z M1498.15749,108 C1498.98479,108 1499.70263,108.58343 1499.86485,109.387413 L1499.86485,109.387413 L1500.28273,111.466728 L1511.41933,111.466728 C1511.78414,111.466728 1512.06051,111.798913 1511.98854,112.157877 L1511.98854,112.157877 L1510.82728,117.935907 C1510.77285,118.205657 1510.53473,118.400334 1510.25806,118.400334 L1510.25806,118.400334 L1501.67622,118.400334 L1501.90845,119.594424 L1510.83862,119.594424 C1511.15959,119.594424 1511.41917,119.85274 1511.41917,120.172137 C1511.41917,120.491534 1511.15943,120.75 1510.83862,120.75 L1510.83862,120.75 L1501.43206,120.75 C1501.15538,120.75 1500.91711,120.555323 1500.86269,120.285573 C1500.71089,119.529883 1500.60763,118.977746 1498.72626,109.614286 C1498.67183,109.344085 1498.43764,109.155576 1498.15749,109.155576 L1498.15749,109.155576 L1494.58071,109.155576 C1494.25974,109.155576 1494,108.89711 1494,108.577713 C1494,108.258316 1494.25974,108 1494.58071,108 L1494.58071,108 Z M1503.2903,115.511319 L1501.09551,115.511319 L1501.444,117.244608 L1503.2903,117.244608 L1503.2903,115.511319 Z M1506.7741,115.511319 L1504.45156,115.511319 L1504.45156,117.244608 L1506.7741,117.244608 L1506.7741,115.511319 Z M1510.13046,115.511319 L1507.93537,115.511319 L1507.93537,117.244608 L1509.78227,117.244608 L1510.13046,115.511319 Z M1506.7741,112.622304 L1504.45156,112.622304 L1504.45156,114.355743 L1506.7741,114.355743 L1506.7741,112.622304 Z M1510.71101,112.622304 L1507.93537,112.622304 L1507.93537,114.355743 L1510.36268,114.355743 L1510.71101,112.622304 Z M1503.2903,112.622304 L1500.51495,112.622304 L1500.86329,114.355743 L1503.2903,114.355743 L1503.2903,112.622304 Z" id="Combined-Shape"></path>
        </g>
    </g>
</svg>