<svg width="100%" height="100%" xmlns="http://www.w3.org/2000/svg"><g fill="#4198C5" fill-rule="nonzero"><path d="M17.594 15.467a.425.425 0 0 1 .154-.473l3.298-2.42a1.462 1.462 0 0 0 .533-1.653 1.462 1.462 0 0 0-1.403-1.025l-4.09-.019a.425.425 0 0 1-.403-.291L14.401 5.7a1.462 1.462 0 0 0-1.408-1.018c-.65 0-1.204.4-1.408 1.018l-.578 1.75a.529.529 0 1 0 1.005.332l.578-1.75a.413.413 0 0 1 .403-.292c.072 0 .315.02.404.291l1.282 3.885c.2.606.763 1.015 1.401 1.018l4.09.02c.286 0 .381.224.403.293a.413.413 0 0 1-.153.474l-3.298 2.42a1.481 1.481 0 0 0-.535 1.647l1.246 3.897a.413.413 0 0 1-.155.474.413.413 0 0 1-.498.001l-3.32-2.39a1.481 1.481 0 0 0-1.733 0l-3.32 2.39a.413.413 0 0 1-.5 0 .413.413 0 0 1-.154-.474l1.246-3.898a1.481 1.481 0 0 0-.535-1.647l-3.298-2.42a.413.413 0 0 1-.153-.474.413.413 0 0 1 .402-.294l4.091-.019a.529.529 0 0 0-.002-1.057H9.9l-4.09.019a1.462 1.462 0 0 0-1.404 1.024c-.201.62.008 1.269.533 1.654l3.298 2.42c.148.108.21.298.154.472l-1.246 3.898c-.199.62.014 1.269.54 1.651.265.192.568.288.872.288.301 0 .603-.094.866-.284l3.321-2.39a.425.425 0 0 1 .497 0l3.32 2.39c.53.38 1.211.379 1.738-.004.527-.383.74-1.031.54-1.652l-1.246-3.897z"/><path d="M12.993 0C5.829 0 0 5.829 0 12.993c0 7.164 5.829 12.993 12.993 12.993a.529.529 0 0 0 0-1.058c-6.581 0-11.935-5.354-11.935-11.935S6.412 1.058 12.993 1.058s11.935 5.354 11.935 11.935c0 4.097-2.064 7.86-5.521 10.068a.529.529 0 0 0 .569.891 12.946 12.946 0 0 0 6.01-10.959C25.986 5.83 20.157 0 12.993 0z"/></g></svg>