<?xml version="1.0" encoding="UTF-8"?>
<svg width="15px" height="14px" viewBox="0 0 15 14" version="1.1" xmlns="http://www.w3.org/2000/svg" xmlns:xlink="http://www.w3.org/1999/xlink">
    <g stroke="none" stroke-width="1" fill="#ffffff" fill-rule="evenodd">
        <g transform="translate(-1596.000000, -137.000000)" fill="#616F82">
            <g transform="translate(1596.000000, 137.000000)">
                <path d="M12.7303054,10.8699957 L14.63176,10.8699957 C14.8351333,10.8699957 15,11.0348624 15,11.2382358 C15,11.4416091 14.8351333,11.6064758 14.63176,11.6064758 L12.7303054,11.6064758 L12.7303054,11.6064758 L12.7303054,13.5018065 C12.7303054,13.7106537 12.5610014,13.8799578 12.3521542,13.8799578 L12.3427102,13.8799578 C12.1338631,13.8799578 11.964559,13.7106537 11.964559,13.5018065 L11.964559,11.6064758 L11.964559,11.6064758 L10.0741224,11.6064758 C9.87074903,11.6064758 9.70588235,11.4416091 9.70588235,11.2382358 C9.70588235,11.0348624 9.87074903,10.8699957 10.0741224,10.8699957 L11.964559,10.8699957 L11.964559,10.8699957 L11.964559,8.96399141 C11.964559,8.75514423 12.1338631,8.58584015 12.3427102,8.58584015 L12.3521542,8.58584015 C12.5610014,8.58584015 12.7303054,8.75514423 12.7303054,8.96399141 L12.7303054,10.8699957 L12.7303054,10.8699957 Z" id="+" stroke="#616F82" stroke-width="0.4"></path>
                <rect id="Rectangle" x="0" y="0" width="14.1176471" height="1.32352941" rx="0.661764706"></rect>
                <rect id="Rectangle" x="0" y="5.29411765" width="14.1176471" height="1.32352941" rx="0.661764706"></rect>
                <rect id="Rectangle" x="0" y="10.5882353" width="7.05882353" height="1.32352941" rx="0.661764706"></rect>
            </g>
        </g>
    </g>
</svg>