<svg width="20" height="20" viewBox="0 0 20 20" fill="none" xmlns="http://www.w3.org/2000/svg">
<path fill-rule="evenodd" clip-rule="evenodd" d="M1.17188 4.96094C1.17188 5.28453 0.909531 5.54688 0.585938 5.54688C0.262344 5.54688 0 5.28453 0 4.96094V2.16176C0 0.969766 0.969766 0 2.16172 0H4.96094C5.28453 0 5.54688 0.262344 5.54688 0.585938C5.54688 0.909531 5.28453 1.17188 4.96094 1.17188H2.16172C1.61594 1.17188 1.17188 1.61594 1.17188 2.16176V4.96094ZM15.0391 0H17.8383C19.0302 0 20 0.969766 20 2.16176V4.96094C20 5.28453 19.7377 5.54688 19.4141 5.54688C19.0905 5.54688 18.8281 5.28453 18.8281 4.96094V2.16176C18.8281 1.61594 18.3841 1.17188 17.8383 1.17188H15.0391C14.7155 1.17188 14.4531 0.909531 14.4531 0.585938C14.4531 0.262344 14.7155 0 15.0391 0ZM4.96094 18.8281H2.16172C1.61594 18.8281 1.17188 18.3841 1.17188 17.8382V15.0391C1.17188 14.7155 0.909531 14.4531 0.585938 14.4531C0.262344 14.4531 0 14.7155 0 15.0391V17.8382C0 19.0302 0.969766 20 2.16172 20H4.96094C5.28453 20 5.54688 19.7377 5.54688 19.4141C5.54688 19.0905 5.28453 18.8281 4.96094 18.8281ZM18.8281 15.0391C18.8281 14.7155 19.0905 14.4531 19.4141 14.4531C19.7377 14.4531 20 14.7155 20 15.0391V17.8382C20 19.0302 19.0303 20 17.8383 20H15.0391C14.7155 20 14.4531 19.7377 14.4531 19.4141C14.4531 19.0905 14.7155 18.8281 15.0391 18.8281H17.8383C18.3841 18.8281 18.8281 18.3841 18.8281 17.8382V15.0391ZM4.44444 4.44444H8.33333V8.33333H4.44444V4.44444ZM3.33333 3.33333H4.44444H8.33333H9.44444V4.44444V8.33333V9.44444H8.33333H4.44444H3.33333V8.33333V4.44444V3.33333ZM7.22222 5.55556H5.55556V7.22222H7.22222V5.55556ZM4.44444 11.6667H8.33333V15.5556H4.44444V11.6667ZM3.33333 10.5556H4.44444H8.33333H9.44444V11.6667V15.5556V16.6667H8.33333H4.44444H3.33333V15.5556V11.6667V10.5556ZM7.22222 12.7778H5.55556V14.4444H7.22222V12.7778ZM12.7778 12.7778H14.4444V14.4444H12.7778V12.7778ZM12.2222 10.5556H10.5556V12.2222H12.2222V10.5556ZM15 10.5556H16.6667V12.2222H15V10.5556ZM16.6667 15H15V16.6667H16.6667V15ZM10.5556 15H12.2222V16.6667H10.5556V15ZM12.7778 5.55556H14.4444V7.22222H12.7778V5.55556ZM11.6667 4.44444H15.5556V8.33333H11.6667V4.44444ZM10.5556 3.33333H11.6667H15.5556H16.6667V4.44444V8.33333V9.44444H15.5556H11.6667H10.5556V8.33333V4.44444V3.33333Z" fill="#616F82"/>
</svg>
