<svg width="20" height="18" viewBox="0 0 20 18" fill="none" xmlns="http://www.w3.org/2000/svg">
<path d="M4.32861 6.682C5.97387 6.682 7.30761 5.29811 7.30761 3.591C7.30761 1.88389 5.97387 0.5 4.32861 0.5C2.68335 0.5 1.34961 1.88389 1.34961 3.591C1.34961 5.29811 2.68335 6.682 4.32861 6.682Z" fill="#8792A3"/>
<path fill-rule="evenodd" clip-rule="evenodd" d="M8e-05 17.3021C-0.00392 14.7321 0.14208 12.7121 0.43808 11.2391C0.88208 9.02909 1.75608 7.39809 3.50708 7.23909C5.25808 7.08109 5.71208 8.25409 5.93008 8.90309C6.14908 9.55109 6.45408 11.4311 7.58508 12.3631C8.12008 12.8041 8.81708 13.2551 9.64508 13.2551C9.65808 13.2551 9.65808 13.6401 9.64508 14.4091H10.6851V15.7631C9.67708 15.7651 8.85708 15.6731 8.22608 15.4861C7.56493 15.2836 6.94497 14.9653 6.39508 14.5461V17.3021H8e-05Z" fill="#8792A3"/>
<path d="M15.6714 6.682C14.0261 6.682 12.6924 5.29811 12.6924 3.591C12.6924 1.88389 14.0261 0.5 15.6714 0.5C17.3166 0.5 18.6504 1.88389 18.6504 3.591C18.6504 5.29811 17.3166 6.682 15.6714 6.682Z" fill="#8792A3"/>
<path fill-rule="evenodd" clip-rule="evenodd" d="M20.0005 17.3021C20.0045 14.7321 19.8585 12.7121 19.5625 11.2391C19.1185 9.02909 18.2445 7.39809 16.4935 7.23909C14.7425 7.08109 14.2885 8.25409 14.0705 8.90309C13.8515 9.55109 13.5465 11.4311 12.4155 12.3631C11.6615 12.9851 10.7385 13.2831 9.64453 13.2551V14.4091H10.6855V15.7631C10.7805 15.7651 11.1435 15.6731 11.7745 15.4861C12.4357 15.2836 13.0556 14.9653 13.6055 14.5461V17.3021H20.0005Z" fill="#8792A3"/>
</svg>
