<svg width="24" height="24" viewBox="0 0 24 24" fill="none" xmlns="http://www.w3.org/2000/svg">
<path fill-rule="evenodd" clip-rule="evenodd" d="M4.50051 6.28905L5.66724 5.12069L9.41942 8.87287L7.61615 10.6761L7.86488 11.1621C9.01524 13.4187 10.5812 14.9847 12.8394 16.1383L13.3254 16.3854L15.1287 14.5805L18.8792 18.3327L17.7125 19.4994H17.6078C11.4387 19.4994 4.50051 12.5629 4.50051 6.39215V6.28905ZM17.6078 21H18.3344L21 18.3327L15.1287 12.4598L13.0456 14.5429C11.4355 13.6135 10.3882 12.5645 9.45873 10.956L11.5402 8.87291L5.66727 3L3 5.66727V6.39218C3 13.5005 10.5011 21 17.6078 21Z" fill="#4198C5"/>
</svg>
